<?xml version="1.0" encoding="UTF-8" standalone="no"?>
<!DOCTYPE svg PUBLIC "-//W3C//DTD SVG 1.1//EN" "http://www.w3.org/Graphics/SVG/1.1/DTD/svg11.dtd">
<svg width="100%" height="100%" viewBox="0 0 437 297" version="1.1" xmlns="http://www.w3.org/2000/svg" xmlns:xlink="http://www.w3.org/1999/xlink" xml:space="preserve" xmlns:serif="http://www.serif.com/" style="fill-rule:evenodd;clip-rule:evenodd;stroke-linecap:round;stroke-linejoin:round;stroke-miterlimit:1.5;">
    <g transform="matrix(1,0,0,1,-296.354,-197.855)">
        <g transform="matrix(1,0,0,1,363.393,285.855)">
            <g transform="matrix(48,0,0,48,231.771,116.744)">
            </g>
            <text x="203.979px" y="116.744px" style="font-family:'SkolarPE-Semibold', 'Skolar PE';font-weight:600;font-size:48px;">x</text>
        </g>
        <g transform="matrix(1,0,0,1,232.012,131.923)">
            <g transform="matrix(48,0,0,48,231.771,116.744)">
            </g>
            <text x="203.979px" y="116.744px" style="font-family:'SkolarPE-Semibold', 'Skolar PE';font-weight:600;font-size:48px;">x</text>
        </g>
        <g transform="matrix(1,0,0,1,91.8917,286.646)">
            <g transform="matrix(48,0,0,48,231.771,116.744)">
            </g>
            <text x="203.979px" y="116.744px" style="font-family:'SkolarPE-Semibold', 'Skolar PE';font-weight:600;font-size:48px;">x</text>
        </g>
        <g transform="matrix(1,0,0,1,432.324,369.357)">
            <g transform="matrix(48,0,0,48,228.171,116.744)">
            </g>
            <text x="203.979px" y="116.744px" style="font-family:'SkolarPE-Semibold', 'Skolar PE';font-weight:600;font-size:48px;">z</text>
        </g>
        <g transform="matrix(1,0,0,1,300.943,215.425)">
            <g transform="matrix(48,0,0,48,228.171,116.744)">
            </g>
            <text x="203.979px" y="116.744px" style="font-family:'SkolarPE-Semibold', 'Skolar PE';font-weight:600;font-size:48px;">z</text>
        </g>
        <g transform="matrix(1,0,0,1,160.823,370.148)">
            <g transform="matrix(48,0,0,48,228.171,116.744)">
            </g>
            <text x="203.979px" y="116.744px" style="font-family:'SkolarPE-Semibold', 'Skolar PE';font-weight:600;font-size:48px;">z</text>
        </g>
        <g transform="matrix(1,0,0,1,502.361,279.828)">
            <g transform="matrix(48,0,0,48,231.147,116.744)">
            </g>
            <text x="203.979px" y="116.744px" style="font-family:'SkolarPE-Semibold', 'Skolar PE';font-weight:600;font-size:48px;">y</text>
        </g>
        <g transform="matrix(1,0,0,1,370.98,125.896)">
            <g transform="matrix(48,0,0,48,231.147,116.744)">
            </g>
            <text x="203.979px" y="116.744px" style="font-family:'SkolarPE-Semibold', 'Skolar PE';font-weight:600;font-size:48px;">y</text>
        </g>
        <g transform="matrix(1,0,0,1,230.859,280.619)">
            <g transform="matrix(48,0,0,48,231.147,116.744)">
            </g>
            <text x="203.979px" y="116.744px" style="font-family:'SkolarPE-Semibold', 'Skolar PE';font-weight:600;font-size:48px;">y</text>
        </g>
        <g transform="matrix(1,0,0,1,207.107,-7.97363)">
            <path d="M389.212,401.737L389.212,396.464L485.094,396.464L480.095,391.568L496.912,399.101L480.095,406.633L485.094,401.737L389.212,401.737Z" style="fill:rgb(216,15,15);stroke:black;stroke-width:1px;"/>
        </g>
        <g transform="matrix(1,0,0,1,75.7263,-161.906)">
            <path d="M389.212,401.737L389.212,396.464L485.094,396.464L480.095,391.568L496.912,399.101L480.095,406.633L485.094,401.737L389.212,401.737Z" style="fill:rgb(216,15,15);stroke:black;stroke-width:1px;"/>
        </g>
        <g transform="matrix(1,0,0,1,-64.394,-7.18234)">
            <path d="M389.212,401.737L389.212,396.464L485.094,396.464L480.095,391.568L496.912,399.101L480.095,406.633L485.094,401.737L389.212,401.737Z" style="fill:rgb(216,15,15);stroke:black;stroke-width:1px;"/>
        </g>
        <g transform="matrix(0.33894,0.448549,-0.797836,0.602874,784.76,-4.15324)">
            <path d="M389.212,401.737L389.212,396.464L475.891,396.464L467,391.568L496.912,399.101L467,406.633L475.891,401.737L389.212,401.737Z" style="stroke:black;stroke-width:1.23px;"/>
        </g>
        <g transform="matrix(-0.348063,-0.441507,0.785311,-0.619102,327.065,725.092)">
            <path d="M389.212,401.737L389.212,396.464L475.891,396.464L467,391.568L496.912,399.101L467,406.633L475.891,401.737L389.212,401.737Z" style="stroke:black;stroke-width:1.23px;"/>
        </g>
        <g transform="matrix(0.348569,0.441108,-0.784601,0.620001,503.954,-6.6571)">
            <path d="M389.212,401.737L389.212,396.464L475.891,396.464L467,391.568L496.912,399.101L467,406.633L475.891,401.737L389.212,401.737Z" style="stroke:black;stroke-width:1.23px;"/>
        </g>
        <g transform="matrix(0.376365,-0.447482,0.7653,0.643673,208.091,377.865)">
            <path d="M389.212,401.737L389.212,396.464L476.7,396.464L468.151,391.568L496.912,399.101L468.151,406.633L476.7,401.737L389.212,401.737Z" style="stroke:black;stroke-width:1.22px;"/>
        </g>
        <g transform="matrix(0.376365,-0.447482,0.7653,0.643673,76.71,223.933)">
            <path d="M389.212,401.737L389.212,396.464L476.7,396.464L468.151,391.568L496.912,399.101L468.151,406.633L476.7,401.737L389.212,401.737Z" style="stroke:black;stroke-width:1.22px;"/>
        </g>
        <g transform="matrix(-0.372319,0.450854,-0.771067,-0.636754,882.4,490.726)">
            <path d="M389.212,401.737L389.212,396.464L476.7,396.464L468.151,391.568L496.912,399.101L468.151,406.633L476.7,401.737L389.212,401.737Z" style="stroke:black;stroke-width:1.22px;"/>
        </g>
        <g transform="matrix(1,0,0,1,241.975,10.6432)">
            <g transform="matrix(48,0,0,48,417.842,374.021)">
            </g>
            <text x="397.826px" y="374.021px" style="font-family:'SkolarPE-Semibold', 'Skolar PE';font-weight:600;font-size:48px;">?</text>
        </g>
        <g transform="matrix(1,0,0,1,110.594,-143.289)">
            <g transform="matrix(48,0,0,48,417.842,374.021)">
            </g>
            <text x="397.826px" y="374.021px" style="font-family:'SkolarPE-Semibold', 'Skolar PE';font-weight:600;font-size:48px;">?</text>
        </g>
        <g transform="matrix(1,0,0,1,-29.5262,11.4345)">
            <g transform="matrix(48,0,0,48,417.842,374.021)">
            </g>
            <text x="397.826px" y="374.021px" style="font-family:'SkolarPE-Semibold', 'Skolar PE';font-weight:600;font-size:48px;">?</text>
        </g>
        <g transform="matrix(1,0,0,1,281.487,-34.8247)">
            <circle cx="366.312" cy="509.392" r="18.205" style="fill-opacity:0;stroke:black;stroke-width:1px;"/>
        </g>
        <g transform="matrix(1,0,0,1,150.106,-188.757)">
            <circle cx="366.312" cy="509.392" r="18.205" style="fill-opacity:0;stroke:black;stroke-width:1px;"/>
        </g>
        <g transform="matrix(1,0,0,1,9.98524,-34.0335)">
            <circle cx="366.312" cy="509.392" r="18.205" style="fill-opacity:0;stroke:black;stroke-width:1px;"/>
        </g>
    </g>
</svg>
