<?xml version="1.0" encoding="UTF-8" standalone="no"?>
<!DOCTYPE svg PUBLIC "-//W3C//DTD SVG 1.1//EN" "http://www.w3.org/Graphics/SVG/1.1/DTD/svg11.dtd">
<svg width="100%" height="100%" viewBox="0 0 166 120" version="1.1" xmlns="http://www.w3.org/2000/svg" xmlns:xlink="http://www.w3.org/1999/xlink" xml:space="preserve" xmlns:serif="http://www.serif.com/" style="fill-rule:evenodd;clip-rule:evenodd;stroke-linecap:round;stroke-linejoin:round;stroke-miterlimit:1.5;">
    <g transform="matrix(1,0,0,1,-56.7961,-530.388)">
        <g transform="matrix(1,0,0,1,-147.666,442.66)">
            <g transform="matrix(48,0,0,48,231.771,116.744)">
            </g>
            <text x="203.979px" y="116.744px" style="font-family:'SkolarPE-Semibold', 'Skolar PE';font-weight:600;font-size:48px;">x</text>
        </g>
        <g transform="matrix(1,0,0,1,-78.7346,526.162)">
            <g transform="matrix(48,0,0,48,228.171,116.744)">
            </g>
            <text x="203.979px" y="116.744px" style="font-family:'SkolarPE-Semibold', 'Skolar PE';font-weight:600;font-size:48px;">z</text>
        </g>
        <g transform="matrix(1,0,0,1,-8.69834,436.633)">
            <g transform="matrix(48,0,0,48,231.147,116.744)">
            </g>
            <text x="203.979px" y="116.744px" style="font-family:'SkolarPE-Semibold', 'Skolar PE';font-weight:600;font-size:48px;">y</text>
        </g>
        <g transform="matrix(0.348569,0.441108,-0.784601,0.620001,264.396,149.357)">
            <path d="M389.212,401.737L389.212,396.464L475.891,396.464L467,391.568L496.912,399.101L467,406.633L475.891,401.737L389.212,401.737Z" style="stroke:black;stroke-width:1.23px;"/>
        </g>
        <g transform="matrix(-0.372319,0.450854,-0.771067,-0.636754,642.843,646.74)">
            <path d="M389.212,401.737L389.212,396.464L476.7,396.464L468.151,391.568L496.912,399.101L468.151,406.633L476.7,401.737L389.212,401.737Z" style="stroke:black;stroke-width:1.22px;"/>
        </g>
        <g transform="matrix(1,0,0,1,-229.572,121.981)">
            <circle cx="366.312" cy="509.392" r="18.205" style="fill-opacity:0;stroke:black;stroke-width:1px;"/>
        </g>
    </g>
</svg>
