<?xml version="1.0" encoding="UTF-8" standalone="no"?>
<!DOCTYPE svg PUBLIC "-//W3C//DTD SVG 1.1//EN" "http://www.w3.org/Graphics/SVG/1.1/DTD/svg11.dtd">
<svg width="100%" height="100%" viewBox="0 0 272 138" version="1.1" xmlns="http://www.w3.org/2000/svg" xmlns:xlink="http://www.w3.org/1999/xlink" xml:space="preserve" xmlns:serif="http://www.serif.com/" style="fill-rule:evenodd;clip-rule:evenodd;stroke-linecap:round;stroke-linejoin:round;stroke-miterlimit:1.5;">
    <g transform="matrix(1,0,0,1,-332.492,-411.361)">
        <g transform="matrix(1,0,0,1,127.764,311.467)">
            <g transform="matrix(22,0,0,22,290.703,116.744)">
            </g>
            <text x="203.979px" y="116.744px" style="font-family:'SkolarPE-Semibold', 'Skolar PE';font-weight:600;font-size:22px;">smoking</text>
        </g>
        <g transform="matrix(1,0,0,1,101.915,382.836)">
            <text x="325.159px" y="116.744px" style="font-family:'SkolarPE-Semibold', 'Skolar PE';font-weight:600;font-size:22px;">Genetic</text>
            <text x="290.234px" y="138.744px" style="font-family:'SkolarPE-Semibold', 'Skolar PE';font-weight:600;font-size:22px;">predisposition</text>
            <g transform="matrix(22,0,0,22,430.033,160.744)">
            </g>
            <text x="296.405px" y="160.744px" style="font-family:'SkolarPE-Semibold', 'Skolar PE';font-weight:600;font-size:22px;">(unobser<tspan x="386.803px 398.639px " y="160.744px 160.744px ">ve</tspan>d)</text>
        </g>
        <g transform="matrix(1,0,0,1,333.098,309.473)">
            <g transform="matrix(22,0,0,22,270.639,116.744)">
            </g>
            <text x="203.979px" y="116.744px" style="font-family:'SkolarPE-Semibold', 'Skolar PE';font-weight:600;font-size:22px;">cancer</text>
        </g>
        <g transform="matrix(1,0,0,1,34.767,21.6712)">
            <path d="M389.212,400.984L389.212,397.218L485.094,397.218L480.095,391.568L496.912,399.101L480.095,406.633L485.094,400.984L389.212,400.984Z" style="fill:rgb(216,15,15);stroke:black;stroke-width:1px;"/>
        </g>
        <g transform="matrix(-0.369806,-0.469087,0.785311,-0.619102,243.012,920.113)">
            <path d="M389.212,401.737L389.212,396.464L477.127,396.464L468.758,391.568L496.912,399.101L468.758,406.633L477.127,401.737L389.212,401.737Z" style="stroke:black;stroke-width:1.21px;"/>
        </g>
        <g transform="matrix(0.391052,-0.464945,0.7653,0.643673,64.7291,411.141)">
            <path d="M389.212,401.737L389.212,396.464L477.459,396.464L469.231,391.568L496.912,399.101L469.231,406.633L477.459,401.737L389.212,401.737Z" style="stroke:black;stroke-width:1.21px;"/>
        </g>
    </g>
</svg>
