<?xml version="1.0" encoding="UTF-8" standalone="no"?><!DOCTYPE svg PUBLIC "-//W3C//DTD SVG 1.1//EN" "http://www.w3.org/Graphics/SVG/1.1/DTD/svg11.dtd"><svg width="100%" height="100%" viewBox="0 0 1780 2956" version="1.1" xmlns="http://www.w3.org/2000/svg" xmlns:xlink="http://www.w3.org/1999/xlink" xml:space="preserve" xmlns:serif="http://www.serif.com/" style="fill-rule:evenodd;clip-rule:evenodd;stroke-miterlimit:10;"><path d="M535.47,838.583l708.67,0" style="fill:none;fill-rule:nonzero;stroke:#fff;stroke-width:3.32px;"/><path d="M594.526,838.583c-0,-442.919 147.639,-147.64 295.279,-147.64c147.639,0 295.279,-88.583 295.279,147.64c0,236.223 -147.64,88.584 -295.279,88.584c-147.64,-0 -295.279,59.056 -295.279,-88.584" style="fill:none;fill-rule:nonzero;stroke:#8f2727;stroke-width:0.42px;"/><path d="M594.526,838.583c-0,-442.919 147.639,-147.64 295.279,-147.64c147.639,0 295.279,-88.583 295.279,147.64c0,236.223 -147.64,88.584 -295.279,88.584c-147.64,-0 -295.279,59.056 -295.279,-88.584" style="fill:none;fill-rule:nonzero;stroke:#8f2727;stroke-opacity:0.67;stroke-width:6.23px;"/><path d="M594.526,838.583c-0,-442.919 147.639,-147.64 295.279,-147.64c147.639,0 295.279,-88.583 295.279,147.64c0,236.223 -147.64,88.584 -295.279,88.584c-147.64,-0 -295.279,59.056 -295.279,-88.584" style="fill:none;fill-rule:nonzero;stroke:#8f2727;stroke-opacity:0.45;stroke-width:12.45px;"/><path d="M594.526,838.583c-0,-442.919 147.639,-147.64 295.279,-147.64c147.639,0 295.279,-88.583 295.279,147.64c0,236.223 -147.64,88.584 -295.279,88.584c-147.64,-0 -295.279,59.056 -295.279,-88.584" style="fill:none;fill-rule:nonzero;stroke:#8f2727;stroke-opacity:0.3;stroke-width:18.68px;"/><path d="M594.526,838.583c-0,-442.919 147.639,-147.64 295.279,-147.64c147.639,0 295.279,-88.583 295.279,147.64c0,236.223 -147.64,88.584 -295.279,88.584c-147.64,-0 -295.279,59.056 -295.279,-88.584" style="fill:none;fill-rule:nonzero;stroke:#8f2727;stroke-opacity:0.2;stroke-width:24.91px;"/><path d="M594.526,838.583c-0,-442.919 147.639,-147.64 295.279,-147.64c147.639,0 295.279,-88.583 295.279,147.64c0,236.223 -147.64,88.584 -295.279,88.584c-147.64,-0 -295.279,59.056 -295.279,-88.584" style="fill:none;fill-rule:nonzero;stroke:#8f2727;stroke-opacity:0.14;stroke-width:31.14px;"/><path d="M594.526,838.583c-0,-442.919 147.639,-147.64 295.279,-147.64c147.639,0 295.279,-88.583 295.279,147.64c0,236.223 -147.64,88.584 -295.279,88.584c-147.64,-0 -295.279,59.056 -295.279,-88.584" style="fill:none;fill-rule:nonzero;stroke:#8f2727;stroke-opacity:0.09;stroke-width:37.36px;"/><path d="M594.526,838.583c-0,-442.919 147.639,-147.64 295.279,-147.64c147.639,0 295.279,-88.583 295.279,147.64c0,236.223 -147.64,88.584 -295.279,88.584c-147.64,-0 -295.279,59.056 -295.279,-88.584" style="fill:none;fill-rule:nonzero;stroke:#8f2727;stroke-opacity:0.06;stroke-width:43.59px;"/><path d="M594.526,838.583c-0,-442.919 147.639,-147.64 295.279,-147.64c147.639,0 295.279,-88.583 295.279,147.64c0,236.223 -147.64,88.584 -295.279,88.584c-147.64,-0 -295.279,59.056 -295.279,-88.584" style="fill:none;fill-rule:nonzero;stroke:#8f2727;stroke-opacity:0.04;stroke-width:49.82px;"/><path d="M594.526,838.583c-0,-442.919 147.639,-147.64 295.279,-147.64c147.639,0 295.279,-88.583 295.279,147.64c0,236.223 -147.64,88.584 -295.279,88.584c-147.64,-0 -295.279,59.056 -295.279,-88.584" style="fill:none;fill-rule:nonzero;stroke:#8f2727;stroke-opacity:0.03;stroke-width:56.04px;"/><path d="M594.526,838.583c-0,-442.919 147.639,-147.64 295.279,-147.64c147.639,0 295.279,-88.583 295.279,147.64c0,236.223 -147.64,88.584 -295.279,88.584c-147.64,-0 -295.279,59.056 -295.279,-88.584" style="fill:none;fill-rule:nonzero;stroke:#8f2727;stroke-opacity:0.02;stroke-width:62.27px;"/><path d="M594.526,838.583c-0,-442.919 147.639,-147.64 295.279,-147.64c147.639,0 295.279,-88.583 295.279,147.64c0,236.223 -147.64,88.584 -295.279,88.584c-147.64,-0 -295.279,59.056 -295.279,-88.584" style="fill:none;fill-rule:nonzero;stroke:#8f2727;stroke-opacity:0.01;stroke-width:68.5px;"/><path d="M594.526,838.583c-0,-442.919 147.639,-147.64 295.279,-147.64c147.639,0 295.279,-88.583 295.279,147.64c0,236.223 -147.64,88.584 -295.279,88.584c-147.64,-0 -295.279,59.056 -295.279,-88.584" style="fill:none;fill-rule:nonzero;stroke:#8f2727;stroke-opacity:0.01;stroke-width:74.73px;"/><path d="M594.526,838.583c-0,-442.919 147.639,-147.64 295.279,-147.64c147.639,0 295.279,-88.583 295.279,147.64c0,236.223 -147.64,88.584 -295.279,88.584c-147.64,-0 -295.279,59.056 -295.279,-88.584" style="fill:none;fill-rule:nonzero;stroke:#8f2727;stroke-opacity:0;stroke-width:80.95px;"/><path d="M594.526,838.583c-0,-442.919 147.639,-147.64 295.279,-147.64c147.639,0 295.279,-88.583 295.279,147.64c0,236.223 -147.64,88.584 -295.279,88.584c-147.64,-0 -295.279,59.056 -295.279,-88.584" style="fill:none;fill-rule:nonzero;stroke:#8f2727;stroke-opacity:0;stroke-width:87.18px;"/><path d="M594.526,838.583c-0,-442.919 147.639,-147.64 295.279,-147.64c147.639,0 295.279,-88.583 295.279,147.64c0,236.223 -147.64,88.584 -295.279,88.584c-147.64,-0 -295.279,59.056 -295.279,-88.584" style="fill:none;fill-rule:nonzero;stroke:#8f2727;stroke-opacity:0;stroke-width:93.41px;"/><path d="M594.526,838.583c-0,-442.919 147.639,-147.64 295.279,-147.64c147.639,0 295.279,-88.583 295.279,147.64c0,236.223 -147.64,88.584 -295.279,88.584c-147.64,-0 -295.279,59.056 -295.279,-88.584" style="fill:none;fill-rule:nonzero;stroke:#8f2727;stroke-opacity:0;stroke-width:99.63px;"/><path d="M594.526,838.583c-0,-442.919 147.639,-147.64 295.279,-147.64c147.639,0 295.279,-88.583 295.279,147.64c0,236.223 -147.64,88.584 -295.279,88.584c-147.64,-0 -295.279,59.056 -295.279,-88.584" style="fill:none;fill-rule:nonzero;stroke:#8f2727;stroke-opacity:0;stroke-width:105.86px;"/><path d="M594.526,838.583c-0,-442.919 147.639,-147.64 295.279,-147.64c147.639,0 295.279,-88.583 295.279,147.64c0,236.223 -147.64,88.584 -295.279,88.584c-147.64,-0 -295.279,59.056 -295.279,-88.584" style="fill:none;fill-rule:nonzero;stroke:#8f2727;stroke-opacity:0;stroke-width:112.09px;"/><path d="M594.526,838.583c-0,-442.919 147.639,-147.64 295.279,-147.64c147.639,0 295.279,-88.583 295.279,147.64c0,236.223 -147.64,88.584 -295.279,88.584c-147.64,-0 -295.279,59.056 -295.279,-88.584" style="fill:none;fill-rule:nonzero;stroke:#8f2727;stroke-opacity:0;stroke-width:118.32px;"/><path d="M601.79,1030.51c0,-4.009 -3.255,-7.264 -7.264,-7.264c-4.01,-0 -7.265,3.255 -7.265,7.264c0,4.01 3.255,7.265 7.265,7.265c4.009,0 7.264,-3.255 7.264,-7.265Z" style="fill:#8f2727;"/><path d="M599.715,1030.51c-0,-2.863 -2.325,-5.188 -5.189,-5.188c-2.864,-0 -5.189,2.325 -5.189,5.188c-0,2.864 2.325,5.189 5.189,5.189c2.864,0 5.189,-2.325 5.189,-5.189Z" style="fill:#dcbcbc;"/><path d="M631.318,1037.9c0,-4.009 -3.255,-7.264 -7.264,-7.264c-4.01,-0 -7.265,3.255 -7.265,7.264c0,4.01 3.255,7.265 7.265,7.265c4.009,-0 7.264,-3.255 7.264,-7.265Z" style="fill:#8f2727;"/><path d="M629.243,1037.9c-0,-2.863 -2.326,-5.189 -5.189,-5.189c-2.864,0 -5.189,2.326 -5.189,5.189c-0,2.864 2.325,5.189 5.189,5.189c2.863,0 5.189,-2.325 5.189,-5.189Z" style="fill:#dcbcbc;"/><path d="M653.464,986.223c0,-4.01 -3.255,-7.265 -7.264,-7.265c-4.01,0 -7.265,3.255 -7.265,7.265c0,4.009 3.255,7.264 7.265,7.264c4.009,0 7.264,-3.255 7.264,-7.264Z" style="fill:#8f2727;"/><path d="M651.388,986.223c0,-2.864 -2.325,-5.189 -5.188,-5.189c-2.864,-0 -5.189,2.325 -5.189,5.189c-0,2.863 2.325,5.188 5.189,5.188c2.863,0 5.188,-2.325 5.188,-5.188Z" style="fill:#dcbcbc;"/><path d="M675.61,956.695c0,-4.01 -3.255,-7.265 -7.265,-7.265c-4.009,0 -7.264,3.255 -7.264,7.265c-0,4.009 3.255,7.264 7.264,7.264c4.01,0 7.265,-3.255 7.265,-7.264Z" style="fill:#8f2727;"/><path d="M673.534,956.695c0,-2.864 -2.325,-5.189 -5.188,-5.189c-2.864,-0 -5.189,2.325 -5.189,5.189c-0,2.864 2.325,5.189 5.189,5.189c2.863,-0 5.188,-2.325 5.188,-5.189Z" style="fill:#dcbcbc;"/><path d="M690.374,941.931c-0,-4.01 -3.255,-7.265 -7.265,-7.265c-4.009,0 -7.264,3.255 -7.264,7.265c-0,4.009 3.255,7.264 7.264,7.264c4.01,0 7.265,-3.255 7.265,-7.264Z" style="fill:#8f2727;"/><path d="M688.298,941.931c0,-2.864 -2.325,-5.189 -5.189,-5.189c-2.863,-0 -5.188,2.325 -5.188,5.189c-0,2.864 2.325,5.189 5.188,5.189c2.864,-0 5.189,-2.325 5.189,-5.189Z" style="fill:#dcbcbc;"/><path d="M705.138,944.884c-0,-4.01 -3.255,-7.265 -7.265,-7.265c-4.009,0 -7.264,3.255 -7.264,7.265c-0,4.009 3.255,7.264 7.264,7.264c4.01,0 7.265,-3.255 7.265,-7.264Z" style="fill:#8f2727;"/><path d="M703.062,944.884c0,-2.864 -2.325,-5.189 -5.189,-5.189c-2.863,-0 -5.189,2.325 -5.189,5.189c0,2.863 2.326,5.189 5.189,5.189c2.864,-0 5.189,-2.326 5.189,-5.189Z" style="fill:#dcbcbc;"/><path d="M535.47,1532.75l708.67,-0" style="fill:none;fill-rule:nonzero;stroke:#fff;stroke-width:3.32px;"/><path d="M594.526,1532.75c-0,-442.919 147.639,-147.64 295.279,-147.64c147.639,0 295.279,-88.584 295.279,147.64c0,236.223 -147.64,88.583 -295.279,88.583c-147.64,0 -295.279,59.056 -295.279,-88.583" style="fill:none;fill-rule:nonzero;stroke:#8f2727;stroke-width:0.42px;"/><path d="M594.526,1532.75c-0,-442.919 147.639,-147.64 295.279,-147.64c147.639,0 295.279,-88.584 295.279,147.64c0,236.223 -147.64,88.583 -295.279,88.583c-147.64,0 -295.279,59.056 -295.279,-88.583" style="fill:none;fill-rule:nonzero;stroke:#8f2727;stroke-opacity:0.67;stroke-width:6.23px;"/><path d="M594.526,1532.75c-0,-442.919 147.639,-147.64 295.279,-147.64c147.639,0 295.279,-88.584 295.279,147.64c0,236.223 -147.64,88.583 -295.279,88.583c-147.64,0 -295.279,59.056 -295.279,-88.583" style="fill:none;fill-rule:nonzero;stroke:#8f2727;stroke-opacity:0.45;stroke-width:12.45px;"/><path d="M594.526,1532.75c-0,-442.919 147.639,-147.64 295.279,-147.64c147.639,0 295.279,-88.584 295.279,147.64c0,236.223 -147.64,88.583 -295.279,88.583c-147.64,0 -295.279,59.056 -295.279,-88.583" style="fill:none;fill-rule:nonzero;stroke:#8f2727;stroke-opacity:0.3;stroke-width:18.68px;"/><path d="M594.526,1532.75c-0,-442.919 147.639,-147.64 295.279,-147.64c147.639,0 295.279,-88.584 295.279,147.64c0,236.223 -147.64,88.583 -295.279,88.583c-147.64,0 -295.279,59.056 -295.279,-88.583" style="fill:none;fill-rule:nonzero;stroke:#8f2727;stroke-opacity:0.2;stroke-width:24.91px;"/><path d="M594.526,1532.75c-0,-442.919 147.639,-147.64 295.279,-147.64c147.639,0 295.279,-88.584 295.279,147.64c0,236.223 -147.64,88.583 -295.279,88.583c-147.64,0 -295.279,59.056 -295.279,-88.583" style="fill:none;fill-rule:nonzero;stroke:#8f2727;stroke-opacity:0.14;stroke-width:31.14px;"/><path d="M594.526,1532.75c-0,-442.919 147.639,-147.64 295.279,-147.64c147.639,0 295.279,-88.584 295.279,147.64c0,236.223 -147.64,88.583 -295.279,88.583c-147.64,0 -295.279,59.056 -295.279,-88.583" style="fill:none;fill-rule:nonzero;stroke:#8f2727;stroke-opacity:0.09;stroke-width:37.36px;"/><path d="M594.526,1532.75c-0,-442.919 147.639,-147.64 295.279,-147.64c147.639,0 295.279,-88.584 295.279,147.64c0,236.223 -147.64,88.583 -295.279,88.583c-147.64,0 -295.279,59.056 -295.279,-88.583" style="fill:none;fill-rule:nonzero;stroke:#8f2727;stroke-opacity:0.06;stroke-width:43.59px;"/><path d="M594.526,1532.75c-0,-442.919 147.639,-147.64 295.279,-147.64c147.639,0 295.279,-88.584 295.279,147.64c0,236.223 -147.64,88.583 -295.279,88.583c-147.64,0 -295.279,59.056 -295.279,-88.583" style="fill:none;fill-rule:nonzero;stroke:#8f2727;stroke-opacity:0.04;stroke-width:49.82px;"/><path d="M594.526,1532.75c-0,-442.919 147.639,-147.64 295.279,-147.64c147.639,0 295.279,-88.584 295.279,147.64c0,236.223 -147.64,88.583 -295.279,88.583c-147.64,0 -295.279,59.056 -295.279,-88.583" style="fill:none;fill-rule:nonzero;stroke:#8f2727;stroke-opacity:0.03;stroke-width:56.04px;"/><path d="M594.526,1532.75c-0,-442.919 147.639,-147.64 295.279,-147.64c147.639,0 295.279,-88.584 295.279,147.64c0,236.223 -147.64,88.583 -295.279,88.583c-147.64,0 -295.279,59.056 -295.279,-88.583" style="fill:none;fill-rule:nonzero;stroke:#8f2727;stroke-opacity:0.02;stroke-width:62.27px;"/><path d="M594.526,1532.75c-0,-442.919 147.639,-147.64 295.279,-147.64c147.639,0 295.279,-88.584 295.279,147.64c0,236.223 -147.64,88.583 -295.279,88.583c-147.64,0 -295.279,59.056 -295.279,-88.583" style="fill:none;fill-rule:nonzero;stroke:#8f2727;stroke-opacity:0.01;stroke-width:68.5px;"/><path d="M594.526,1532.75c-0,-442.919 147.639,-147.64 295.279,-147.64c147.639,0 295.279,-88.584 295.279,147.64c0,236.223 -147.64,88.583 -295.279,88.583c-147.64,0 -295.279,59.056 -295.279,-88.583" style="fill:none;fill-rule:nonzero;stroke:#8f2727;stroke-opacity:0.01;stroke-width:74.73px;"/><path d="M594.526,1532.75c-0,-442.919 147.639,-147.64 295.279,-147.64c147.639,0 295.279,-88.584 295.279,147.64c0,236.223 -147.64,88.583 -295.279,88.583c-147.64,0 -295.279,59.056 -295.279,-88.583" style="fill:none;fill-rule:nonzero;stroke:#8f2727;stroke-opacity:0;stroke-width:80.95px;"/><path d="M594.526,1532.75c-0,-442.919 147.639,-147.64 295.279,-147.64c147.639,0 295.279,-88.584 295.279,147.64c0,236.223 -147.64,88.583 -295.279,88.583c-147.64,0 -295.279,59.056 -295.279,-88.583" style="fill:none;fill-rule:nonzero;stroke:#8f2727;stroke-opacity:0;stroke-width:87.18px;"/><path d="M594.526,1532.75c-0,-442.919 147.639,-147.64 295.279,-147.64c147.639,0 295.279,-88.584 295.279,147.64c0,236.223 -147.64,88.583 -295.279,88.583c-147.64,0 -295.279,59.056 -295.279,-88.583" style="fill:none;fill-rule:nonzero;stroke:#8f2727;stroke-opacity:0;stroke-width:93.41px;"/><path d="M594.526,1532.75c-0,-442.919 147.639,-147.64 295.279,-147.64c147.639,0 295.279,-88.584 295.279,147.64c0,236.223 -147.64,88.583 -295.279,88.583c-147.64,0 -295.279,59.056 -295.279,-88.583" style="fill:none;fill-rule:nonzero;stroke:#8f2727;stroke-opacity:0;stroke-width:99.63px;"/><path d="M594.526,1532.75c-0,-442.919 147.639,-147.64 295.279,-147.64c147.639,0 295.279,-88.584 295.279,147.64c0,236.223 -147.64,88.583 -295.279,88.583c-147.64,0 -295.279,59.056 -295.279,-88.583" style="fill:none;fill-rule:nonzero;stroke:#8f2727;stroke-opacity:0;stroke-width:105.86px;"/><path d="M594.526,1532.75c-0,-442.919 147.639,-147.64 295.279,-147.64c147.639,0 295.279,-88.584 295.279,147.64c0,236.223 -147.64,88.583 -295.279,88.583c-147.64,0 -295.279,59.056 -295.279,-88.583" style="fill:none;fill-rule:nonzero;stroke:#8f2727;stroke-opacity:0;stroke-width:112.09px;"/><path d="M594.526,1532.75c-0,-442.919 147.639,-147.64 295.279,-147.64c147.639,0 295.279,-88.584 295.279,147.64c0,236.223 -147.64,88.583 -295.279,88.583c-147.64,0 -295.279,59.056 -295.279,-88.583" style="fill:none;fill-rule:nonzero;stroke:#8f2727;stroke-opacity:0;stroke-width:118.32px;"/><path d="M601.79,1724.68c0,-4.009 -3.255,-7.264 -7.264,-7.264c-4.01,-0 -7.265,3.255 -7.265,7.264c0,4.01 3.255,7.265 7.265,7.265c4.009,-0 7.264,-3.255 7.264,-7.265Z" style="fill:#8f2727;"/><path d="M599.715,1724.68c-0,-2.864 -2.325,-5.189 -5.189,-5.189c-2.864,0 -5.189,2.325 -5.189,5.189c-0,2.864 2.325,5.189 5.189,5.189c2.864,0 5.189,-2.325 5.189,-5.189Z" style="fill:#dcbcbc;"/><path d="M631.318,1732.06c0,-4.009 -3.255,-7.264 -7.264,-7.264c-4.01,-0 -7.265,3.255 -7.265,7.264c0,4.009 3.255,7.265 7.265,7.265c4.009,-0 7.264,-3.256 7.264,-7.265Z" style="fill:#8f2727;"/><path d="M629.243,1732.06c-0,-2.864 -2.326,-5.189 -5.189,-5.189c-2.864,0 -5.189,2.325 -5.189,5.189c-0,2.864 2.325,5.189 5.189,5.189c2.863,0 5.189,-2.325 5.189,-5.189Z" style="fill:#dcbcbc;"/><path d="M653.464,1680.39c0,-4.009 -3.255,-7.264 -7.264,-7.264c-4.01,-0 -7.265,3.255 -7.265,7.264c0,4.01 3.255,7.265 7.265,7.265c4.009,-0 7.264,-3.255 7.264,-7.265Z" style="fill:#8f2727;"/><path d="M651.388,1680.39c0,-2.864 -2.325,-5.189 -5.188,-5.189c-2.864,0 -5.189,2.325 -5.189,5.189c-0,2.864 2.325,5.189 5.189,5.189c2.863,0 5.188,-2.325 5.188,-5.189Z" style="fill:#dcbcbc;"/><path d="M675.61,1650.86c0,-4.009 -3.255,-7.264 -7.265,-7.264c-4.009,-0 -7.264,3.255 -7.264,7.264c-0,4.01 3.255,7.265 7.264,7.265c4.01,-0 7.265,-3.255 7.265,-7.265Z" style="fill:#8f2727;"/><path d="M673.534,1650.86c0,-2.863 -2.325,-5.189 -5.188,-5.189c-2.864,0 -5.189,2.326 -5.189,5.189c-0,2.864 2.325,5.189 5.189,5.189c2.863,0 5.188,-2.325 5.188,-5.189Z" style="fill:#dcbcbc;"/><path d="M690.374,1636.1c-0,-4.009 -3.255,-7.264 -7.265,-7.264c-4.009,-0 -7.264,3.255 -7.264,7.264c-0,4.01 3.255,7.265 7.264,7.265c4.01,-0 7.265,-3.255 7.265,-7.265Z" style="fill:#8f2727;"/><path d="M688.298,1636.1c0,-2.863 -2.325,-5.189 -5.189,-5.189c-2.863,0 -5.188,2.326 -5.188,5.189c-0,2.864 2.325,5.189 5.188,5.189c2.864,0 5.189,-2.325 5.189,-5.189Z" style="fill:#dcbcbc;"/><path d="M705.138,1639.05c-0,-4.009 -3.255,-7.264 -7.265,-7.264c-4.009,-0 -7.264,3.255 -7.264,7.264c-0,4.01 3.255,7.265 7.264,7.265c4.01,-0 7.265,-3.255 7.265,-7.265Z" style="fill:#8f2727;"/><path d="M703.062,1639.05c0,-2.864 -2.325,-5.189 -5.189,-5.189c-2.863,0 -5.189,2.325 -5.189,5.189c0,2.864 2.326,5.189 5.189,5.189c2.864,0 5.189,-2.325 5.189,-5.189Z" style="fill:#dcbcbc;"/><path d="M719.902,1621.33c-0,-4.009 -3.255,-7.264 -7.265,-7.264c-4.009,-0 -7.264,3.255 -7.264,7.264c-0,4.01 3.255,7.265 7.264,7.265c4.01,-0 7.265,-3.255 7.265,-7.265Z" style="fill:#8f2727;"/><path d="M717.826,1621.33c0,-2.863 -2.325,-5.188 -5.189,-5.188c-2.863,-0 -5.189,2.325 -5.189,5.188c0,2.864 2.326,5.189 5.189,5.189c2.864,0 5.189,-2.325 5.189,-5.189Z" style="fill:#dcbcbc;"/><path d="M756.812,1628.72c-0,-4.009 -3.255,-7.264 -7.265,-7.264c-4.009,-0 -7.264,3.255 -7.264,7.264c-0,4.01 3.255,7.265 7.264,7.265c4.01,-0 7.265,-3.255 7.265,-7.265Z" style="fill:#8f2727;"/><path d="M754.736,1628.72c0,-2.863 -2.325,-5.189 -5.189,-5.189c-2.864,0 -5.189,2.326 -5.189,5.189c0,2.864 2.325,5.189 5.189,5.189c2.864,0 5.189,-2.325 5.189,-5.189Z" style="fill:#dcbcbc;"/><path d="M808.486,1636.1c-0,-4.009 -3.255,-7.264 -7.265,-7.264c-4.009,-0 -7.264,3.255 -7.264,7.264c-0,4.01 3.255,7.265 7.264,7.265c4.01,-0 7.265,-3.255 7.265,-7.265Z" style="fill:#8f2727;"/><path d="M806.41,1636.1c0,-2.863 -2.325,-5.189 -5.189,-5.189c-2.864,0 -5.189,2.326 -5.189,5.189c0,2.864 2.325,5.189 5.189,5.189c2.864,0 5.189,-2.325 5.189,-5.189Z" style="fill:#dcbcbc;"/><path d="M838.014,1636.1c-0,-4.009 -3.255,-7.264 -7.265,-7.264c-4.009,-0 -7.264,3.255 -7.264,7.264c-0,4.01 3.255,7.265 7.264,7.265c4.01,-0 7.265,-3.255 7.265,-7.265Z" style="fill:#8f2727;"/><path d="M835.938,1636.1c0,-2.863 -2.325,-5.189 -5.189,-5.189c-2.864,0 -5.189,2.326 -5.189,5.189c0,2.864 2.325,5.189 5.189,5.189c2.864,0 5.189,-2.325 5.189,-5.189Z" style="fill:#dcbcbc;"/><path d="M888.211,1621.33c-0,-4.009 -3.255,-7.264 -7.265,-7.264c-4.009,-0 -7.264,3.255 -7.264,7.264c-0,4.01 3.255,7.265 7.264,7.265c4.01,-0 7.265,-3.255 7.265,-7.265Z" style="fill:#8f2727;"/><path d="M886.135,1621.33c0,-2.863 -2.325,-5.188 -5.189,-5.188c-2.863,-0 -5.188,2.325 -5.188,5.188c-0,2.864 2.325,5.189 5.188,5.189c2.864,0 5.189,-2.325 5.189,-5.189Z" style="fill:#dcbcbc;"/><path d="M908.88,1633.14c0,-4.009 -3.255,-7.264 -7.264,-7.264c-4.01,-0 -7.265,3.255 -7.265,7.264c0,4.01 3.255,7.265 7.265,7.265c4.009,-0 7.264,-3.255 7.264,-7.265Z" style="fill:#8f2727;"/><path d="M906.805,1633.14c-0,-2.863 -2.325,-5.189 -5.189,-5.189c-2.864,0 -5.189,2.326 -5.189,5.189c-0,2.864 2.325,5.189 5.189,5.189c2.864,0 5.189,-2.325 5.189,-5.189Z" style="fill:#dcbcbc;"/><path d="M982.7,1627.24c0,-4.009 -3.255,-7.265 -7.264,-7.265c-4.01,0 -7.265,3.256 -7.265,7.265c0,4.009 3.255,7.264 7.265,7.264c4.009,0 7.264,-3.255 7.264,-7.264Z" style="fill:#8f2727;"/><path d="M980.625,1627.24c-0,-2.864 -2.326,-5.189 -5.189,-5.189c-2.864,-0 -5.189,2.325 -5.189,5.189c-0,2.864 2.325,5.189 5.189,5.189c2.863,-0 5.189,-2.325 5.189,-5.189Z" style="fill:#dcbcbc;"/><path d="M1015.18,1653.81c0,-4.009 -3.255,-7.264 -7.264,-7.264c-4.01,-0 -7.265,3.255 -7.265,7.264c0,4.01 3.255,7.265 7.265,7.265c4.009,-0 7.264,-3.255 7.264,-7.265Z" style="fill:#8f2727;"/><path d="M1013.11,1653.81c-0,-2.864 -2.326,-5.189 -5.189,-5.189c-2.864,0 -5.189,2.325 -5.189,5.189c-0,2.864 2.325,5.189 5.189,5.189c2.863,0 5.189,-2.325 5.189,-5.189Z" style="fill:#dcbcbc;"/><path d="M1089,1674.48c-0,-4.01 -3.255,-7.265 -7.265,-7.265c-4.009,0 -7.264,3.255 -7.264,7.265c-0,4.009 3.255,7.264 7.264,7.264c4.01,0 7.265,-3.255 7.265,-7.264Z" style="fill:#8f2727;"/><path d="M1086.92,1674.48c0,-2.864 -2.325,-5.189 -5.189,-5.189c-2.864,-0 -5.189,2.325 -5.189,5.189c0,2.864 2.325,5.189 5.189,5.189c2.864,-0 5.189,-2.325 5.189,-5.189Z" style="fill:#dcbcbc;"/><path d="M1097.86,1671.53c0,-4.01 -3.255,-7.265 -7.264,-7.265c-4.01,0 -7.265,3.255 -7.265,7.265c0,4.009 3.255,7.264 7.265,7.264c4.009,0 7.264,-3.255 7.264,-7.264Z" style="fill:#8f2727;"/><path d="M1095.78,1671.53c-0,-2.864 -2.325,-5.189 -5.189,-5.189c-2.864,-0 -5.189,2.325 -5.189,5.189c-0,2.864 2.325,5.189 5.189,5.189c2.864,-0 5.189,-2.325 5.189,-5.189Z" style="fill:#dcbcbc;"/><path d="M1151.01,1673.01c-0,-4.009 -3.255,-7.264 -7.265,-7.264c-4.009,-0 -7.264,3.255 -7.264,7.264c-0,4.01 3.255,7.265 7.264,7.265c4.01,-0 7.265,-3.255 7.265,-7.265Z" style="fill:#8f2727;"/><path d="M1148.93,1673.01c0,-2.864 -2.325,-5.189 -5.189,-5.189c-2.864,0 -5.189,2.325 -5.189,5.189c0,2.864 2.325,5.189 5.189,5.189c2.864,0 5.189,-2.325 5.189,-5.189Z" style="fill:#dcbcbc;"/><path d="M1182.01,1613.95c-0,-4.009 -3.255,-7.264 -7.265,-7.264c-4.009,-0 -7.264,3.255 -7.264,7.264c-0,4.01 3.255,7.265 7.264,7.265c4.01,-0 7.265,-3.255 7.265,-7.265Z" style="fill:#8f2727;"/><path d="M1179.94,1613.95c0,-2.863 -2.325,-5.189 -5.189,-5.189c-2.864,0 -5.189,2.326 -5.189,5.189c0,2.864 2.325,5.189 5.189,5.189c2.864,0 5.189,-2.325 5.189,-5.189Z" style="fill:#dcbcbc;"/><path d="M1187.92,1556.37c-0,-4.009 -3.256,-7.264 -7.265,-7.264c-4.009,-0 -7.264,3.255 -7.264,7.264c-0,4.009 3.255,7.265 7.264,7.265c4.009,-0 7.265,-3.256 7.265,-7.265Z" style="fill:#8f2727;"/><path d="M1185.84,1556.37c0,-2.864 -2.325,-5.189 -5.189,-5.189c-2.864,0 -5.189,2.325 -5.189,5.189c0,2.864 2.325,5.189 5.189,5.189c2.864,0 5.189,-2.325 5.189,-5.189Z" style="fill:#dcbcbc;"/><path d="M1192.35,1512.08c-0,-4.009 -3.256,-7.264 -7.265,-7.264c-4.009,-0 -7.264,3.255 -7.264,7.264c-0,4.01 3.255,7.265 7.264,7.265c4.009,-0 7.265,-3.255 7.265,-7.265Z" style="fill:#8f2727;"/><path d="M1190.27,1512.08c0,-2.864 -2.325,-5.189 -5.189,-5.189c-2.864,0 -5.189,2.325 -5.189,5.189c0,2.864 2.325,5.189 5.189,5.189c2.864,0 5.189,-2.325 5.189,-5.189Z" style="fill:#dcbcbc;"/><path d="M1186.44,1466.31c0,-4.009 -3.255,-7.265 -7.264,-7.265c-4.01,0 -7.265,3.256 -7.265,7.265c0,4.009 3.255,7.264 7.265,7.264c4.009,0 7.264,-3.255 7.264,-7.264Z" style="fill:#8f2727;"/><path d="M1184.37,1466.31c0,-2.864 -2.325,-5.189 -5.188,-5.189c-2.864,0 -5.189,2.325 -5.189,5.189c-0,2.864 2.325,5.189 5.189,5.189c2.863,-0 5.188,-2.325 5.188,-5.189Z" style="fill:#dcbcbc;"/><path d="M1180.54,1422.02c-0,-4.009 -3.255,-7.264 -7.265,-7.264c-4.009,-0 -7.264,3.255 -7.264,7.264c-0,4.009 3.255,7.265 7.264,7.265c4.01,-0 7.265,-3.256 7.265,-7.265Z" style="fill:#8f2727;"/><path d="M1178.46,1422.02c0,-2.864 -2.325,-5.189 -5.189,-5.189c-2.864,0 -5.189,2.325 -5.189,5.189c0,2.864 2.325,5.189 5.189,5.189c2.864,-0 5.189,-2.325 5.189,-5.189Z" style="fill:#dcbcbc;"/><path d="M1148.06,1392.49c-0,-4.009 -3.255,-7.264 -7.265,-7.264c-4.009,-0 -7.264,3.255 -7.264,7.264c-0,4.01 3.255,7.265 7.264,7.265c4.01,-0 7.265,-3.255 7.265,-7.265Z" style="fill:#8f2727;"/><path d="M1145.98,1392.49c0,-2.864 -2.325,-5.189 -5.189,-5.189c-2.864,0 -5.189,2.325 -5.189,5.189c0,2.864 2.325,5.189 5.189,5.189c2.864,0 5.189,-2.325 5.189,-5.189Z" style="fill:#dcbcbc;"/><path d="M1112.62,1376.25c0,-4.01 -3.255,-7.265 -7.264,-7.265c-4.01,0 -7.265,3.255 -7.265,7.265c0,4.009 3.255,7.264 7.265,7.264c4.009,0 7.264,-3.255 7.264,-7.264Z" style="fill:#8f2727;"/><path d="M1110.55,1376.25c-0,-2.864 -2.325,-5.189 -5.189,-5.189c-2.864,-0 -5.189,2.325 -5.189,5.189c-0,2.863 2.325,5.189 5.189,5.189c2.864,-0 5.189,-2.326 5.189,-5.189Z" style="fill:#dcbcbc;"/><path d="M1052.09,1371.82c0,-4.01 -3.255,-7.265 -7.265,-7.265c-4.009,0 -7.264,3.255 -7.264,7.265c-0,4.009 3.255,7.264 7.264,7.264c4.01,0 7.265,-3.255 7.265,-7.264Z" style="fill:#8f2727;"/><path d="M1050.02,1371.82c0,-2.864 -2.325,-5.189 -5.189,-5.189c-2.863,-0 -5.188,2.325 -5.188,5.189c-0,2.864 2.325,5.189 5.188,5.189c2.864,-0 5.189,-2.325 5.189,-5.189Z" style="fill:#dcbcbc;"/><path d="M1044.71,1365.92c-0,-4.009 -3.255,-7.264 -7.265,-7.264c-4.009,-0 -7.264,3.255 -7.264,7.264c-0,4.01 3.255,7.265 7.264,7.265c4.01,-0 7.265,-3.255 7.265,-7.265Z" style="fill:#8f2727;"/><path d="M1042.63,1365.92c0,-2.864 -2.325,-5.189 -5.189,-5.189c-2.863,0 -5.189,2.325 -5.189,5.189c0,2.864 2.326,5.189 5.189,5.189c2.864,0 5.189,-2.325 5.189,-5.189Z" style="fill:#dcbcbc;"/><path d="M963.507,1391.02c0,-4.01 -3.255,-7.265 -7.264,-7.265c-4.01,0 -7.265,3.255 -7.265,7.265c0,4.009 3.255,7.264 7.265,7.264c4.009,0 7.264,-3.255 7.264,-7.264Z" style="fill:#8f2727;"/><path d="M961.432,1391.02c-0,-2.864 -2.326,-5.189 -5.189,-5.189c-2.864,-0 -5.189,2.325 -5.189,5.189c-0,2.863 2.325,5.189 5.189,5.189c2.863,-0 5.189,-2.326 5.189,-5.189Z" style="fill:#dcbcbc;"/><path d="M941.361,1382.16c0,-4.009 -3.255,-7.264 -7.264,-7.264c-4.01,-0 -7.265,3.255 -7.265,7.264c0,4.01 3.255,7.265 7.265,7.265c4.009,-0 7.264,-3.255 7.264,-7.265Z" style="fill:#8f2727;"/><path d="M939.286,1382.16c-0,-2.864 -2.325,-5.189 -5.189,-5.189c-2.864,0 -5.189,2.325 -5.189,5.189c-0,2.864 2.325,5.189 5.189,5.189c2.864,0 5.189,-2.325 5.189,-5.189Z" style="fill:#dcbcbc;"/><path d="M879.353,1385.11c-0,-4.009 -3.256,-7.264 -7.265,-7.264c-4.009,-0 -7.264,3.255 -7.264,7.264c-0,4.01 3.255,7.265 7.264,7.265c4.009,-0 7.265,-3.255 7.265,-7.265Z" style="fill:#8f2727;"/><path d="M877.277,1385.11c-0,-2.864 -2.325,-5.189 -5.189,-5.189c-2.864,0 -5.189,2.325 -5.189,5.189c0,2.864 2.325,5.189 5.189,5.189c2.864,0 5.189,-2.325 5.189,-5.189Z" style="fill:#dcbcbc;"/><path d="M842.443,1385.11c-0,-4.009 -3.255,-7.264 -7.265,-7.264c-4.009,-0 -7.264,3.255 -7.264,7.264c-0,4.01 3.255,7.265 7.264,7.265c4.01,-0 7.265,-3.255 7.265,-7.265Z" style="fill:#8f2727;"/><path d="M840.367,1385.11c0,-2.864 -2.325,-5.189 -5.189,-5.189c-2.864,0 -5.189,2.325 -5.189,5.189c0,2.864 2.325,5.189 5.189,5.189c2.864,0 5.189,-2.325 5.189,-5.189Z" style="fill:#dcbcbc;"/><path d="M771.576,1340.82c-0,-4.009 -3.255,-7.264 -7.265,-7.264c-4.009,-0 -7.264,3.255 -7.264,7.264c-0,4.01 3.255,7.265 7.264,7.265c4.01,-0 7.265,-3.255 7.265,-7.265Z" style="fill:#8f2727;"/><path d="M769.5,1340.82c0,-2.864 -2.325,-5.189 -5.189,-5.189c-2.864,0 -5.189,2.325 -5.189,5.189c0,2.864 2.325,5.189 5.189,5.189c2.864,0 5.189,-2.325 5.189,-5.189Z" style="fill:#dcbcbc;"/><path d="M727.284,1314.24c-0,-4.009 -3.255,-7.264 -7.265,-7.264c-4.009,-0 -7.264,3.255 -7.264,7.264c-0,4.01 3.255,7.265 7.264,7.265c4.01,-0 7.265,-3.255 7.265,-7.265Z" style="fill:#8f2727;"/><path d="M725.208,1314.24c0,-2.864 -2.325,-5.189 -5.189,-5.189c-2.864,0 -5.189,2.325 -5.189,5.189c0,2.864 2.325,5.189 5.189,5.189c2.864,0 5.189,-2.325 5.189,-5.189Z" style="fill:#dcbcbc;"/><path d="M705.138,1311.29c-0,-4.009 -3.255,-7.264 -7.265,-7.264c-4.009,-0 -7.264,3.255 -7.264,7.264c-0,4.01 3.255,7.265 7.264,7.265c4.01,-0 7.265,-3.255 7.265,-7.265Z" style="fill:#8f2727;"/><path d="M703.062,1311.29c0,-2.864 -2.325,-5.189 -5.189,-5.189c-2.863,0 -5.189,2.325 -5.189,5.189c0,2.864 2.326,5.189 5.189,5.189c2.864,0 5.189,-2.325 5.189,-5.189Z" style="fill:#dcbcbc;"/><path d="M653.464,1296.53c0,-4.009 -3.255,-7.264 -7.264,-7.264c-4.01,-0 -7.265,3.255 -7.265,7.264c0,4.01 3.255,7.265 7.265,7.265c4.009,-0 7.264,-3.255 7.264,-7.265Z" style="fill:#8f2727;"/><path d="M651.388,1296.53c0,-2.864 -2.325,-5.189 -5.188,-5.189c-2.864,0 -5.189,2.325 -5.189,5.189c-0,2.864 2.325,5.189 5.189,5.189c2.863,0 5.188,-2.325 5.188,-5.189Z" style="fill:#dcbcbc;"/><path d="M625.413,1326.05c-0,-4.009 -3.256,-7.264 -7.265,-7.264c-4.009,-0 -7.264,3.255 -7.264,7.264c-0,4.01 3.255,7.265 7.264,7.265c4.009,-0 7.265,-3.255 7.265,-7.265Z" style="fill:#8f2727;"/><path d="M623.337,1326.05c0,-2.864 -2.325,-5.189 -5.189,-5.189c-2.864,0 -5.189,2.325 -5.189,5.189c0,2.864 2.325,5.189 5.189,5.189c2.864,0 5.189,-2.325 5.189,-5.189Z" style="fill:#dcbcbc;"/><path d="M610.649,1376.25c-0,-4.01 -3.255,-7.265 -7.265,-7.265c-4.009,0 -7.264,3.255 -7.264,7.265c-0,4.009 3.255,7.264 7.264,7.264c4.01,0 7.265,-3.255 7.265,-7.264Z" style="fill:#8f2727;"/><path d="M608.573,1376.25c0,-2.864 -2.325,-5.189 -5.189,-5.189c-2.864,-0 -5.189,2.325 -5.189,5.189c0,2.863 2.325,5.189 5.189,5.189c2.864,-0 5.189,-2.326 5.189,-5.189Z" style="fill:#dcbcbc;"/><path d="M598.837,1414.64c0,-4.009 -3.255,-7.265 -7.264,-7.265c-4.01,0 -7.265,3.256 -7.265,7.265c0,4.009 3.255,7.265 7.265,7.265c4.009,-0 7.264,-3.256 7.264,-7.265Z" style="fill:#8f2727;"/><path d="M596.762,1414.64c-0,-2.864 -2.325,-5.189 -5.189,-5.189c-2.864,0 -5.189,2.325 -5.189,5.189c-0,2.864 2.325,5.189 5.189,5.189c2.864,-0 5.189,-2.325 5.189,-5.189Z" style="fill:#dcbcbc;"/><path d="M601.79,1467.79c0,-4.009 -3.255,-7.264 -7.264,-7.264c-4.01,-0 -7.265,3.255 -7.265,7.264c0,4.01 3.255,7.265 7.265,7.265c4.009,-0 7.264,-3.255 7.264,-7.265Z" style="fill:#8f2727;"/><path d="M599.715,1467.79c-0,-2.863 -2.325,-5.189 -5.189,-5.189c-2.864,0 -5.189,2.326 -5.189,5.189c-0,2.864 2.325,5.189 5.189,5.189c2.864,0 5.189,-2.325 5.189,-5.189Z" style="fill:#dcbcbc;"/><path d="M595.885,1491.41c-0,-4.01 -3.255,-7.265 -7.265,-7.265c-4.009,0 -7.264,3.255 -7.264,7.265c-0,4.009 3.255,7.264 7.264,7.264c4.01,0 7.265,-3.255 7.265,-7.264Z" style="fill:#8f2727;"/><path d="M593.809,1491.41c0,-2.864 -2.325,-5.189 -5.189,-5.189c-2.864,-0 -5.189,2.325 -5.189,5.189c0,2.864 2.325,5.189 5.189,5.189c2.864,-0 5.189,-2.325 5.189,-5.189Z" style="fill:#dcbcbc;"/><path d="M604.743,1535.7c0,-4.01 -3.255,-7.265 -7.264,-7.265c-4.01,0 -7.265,3.255 -7.265,7.265c0,4.009 3.255,7.264 7.265,7.264c4.009,0 7.264,-3.255 7.264,-7.264Z" style="fill:#8f2727;"/><path d="M602.668,1535.7c-0,-2.864 -2.325,-5.189 -5.189,-5.189c-2.864,-0 -5.189,2.325 -5.189,5.189c-0,2.863 2.325,5.189 5.189,5.189c2.864,-0 5.189,-2.326 5.189,-5.189Z" style="fill:#dcbcbc;"/><path d="M616.554,1585.9c0,-4.009 -3.255,-7.265 -7.264,-7.265c-4.01,0 -7.265,3.256 -7.265,7.265c0,4.009 3.255,7.264 7.265,7.264c4.009,0 7.264,-3.255 7.264,-7.264Z" style="fill:#8f2727;"/><path d="M614.479,1585.9c-0,-2.864 -2.325,-5.189 -5.189,-5.189c-2.864,-0 -5.189,2.325 -5.189,5.189c-0,2.864 2.325,5.189 5.189,5.189c2.864,-0 5.189,-2.325 5.189,-5.189Z" style="fill:#dcbcbc;"/><path d="M651.988,1621.33c-0,-4.009 -3.256,-7.264 -7.265,-7.264c-4.009,-0 -7.264,3.255 -7.264,7.264c-0,4.01 3.255,7.265 7.264,7.265c4.009,-0 7.265,-3.255 7.265,-7.265Z" style="fill:#8f2727;"/><path d="M649.912,1621.33c-0,-2.863 -2.325,-5.188 -5.189,-5.188c-2.864,-0 -5.189,2.325 -5.189,5.188c0,2.864 2.325,5.189 5.189,5.189c2.864,0 5.189,-2.325 5.189,-5.189Z" style="fill:#dcbcbc;"/><path d="M535.47,2226.92l708.67,0" style="fill:none;fill-rule:nonzero;stroke:#fff;stroke-width:3.32px;"/><path d="M594.526,2226.92c-0,-442.918 147.639,-147.639 295.279,-147.639c147.639,-0 295.279,-88.584 295.279,147.639c0,236.224 -147.64,88.584 -295.279,88.584c-147.64,0 -295.279,59.056 -295.279,-88.584" style="fill:none;fill-rule:nonzero;stroke:#8f2727;stroke-width:0.42px;"/><path d="M594.526,2226.92c-0,-442.918 147.639,-147.639 295.279,-147.639c147.639,-0 295.279,-88.584 295.279,147.639c0,236.224 -147.64,88.584 -295.279,88.584c-147.64,0 -295.279,59.056 -295.279,-88.584" style="fill:none;fill-rule:nonzero;stroke:#8f2727;stroke-opacity:0.67;stroke-width:6.23px;"/><path d="M594.526,2226.92c-0,-442.918 147.639,-147.639 295.279,-147.639c147.639,-0 295.279,-88.584 295.279,147.639c0,236.224 -147.64,88.584 -295.279,88.584c-147.64,0 -295.279,59.056 -295.279,-88.584" style="fill:none;fill-rule:nonzero;stroke:#8f2727;stroke-opacity:0.45;stroke-width:12.45px;"/><path d="M594.526,2226.92c-0,-442.918 147.639,-147.639 295.279,-147.639c147.639,-0 295.279,-88.584 295.279,147.639c0,236.224 -147.64,88.584 -295.279,88.584c-147.64,0 -295.279,59.056 -295.279,-88.584" style="fill:none;fill-rule:nonzero;stroke:#8f2727;stroke-opacity:0.3;stroke-width:18.68px;"/><path d="M594.526,2226.92c-0,-442.918 147.639,-147.639 295.279,-147.639c147.639,-0 295.279,-88.584 295.279,147.639c0,236.224 -147.64,88.584 -295.279,88.584c-147.64,0 -295.279,59.056 -295.279,-88.584" style="fill:none;fill-rule:nonzero;stroke:#8f2727;stroke-opacity:0.2;stroke-width:24.91px;"/><path d="M594.526,2226.92c-0,-442.918 147.639,-147.639 295.279,-147.639c147.639,-0 295.279,-88.584 295.279,147.639c0,236.224 -147.64,88.584 -295.279,88.584c-147.64,0 -295.279,59.056 -295.279,-88.584" style="fill:none;fill-rule:nonzero;stroke:#8f2727;stroke-opacity:0.14;stroke-width:31.14px;"/><path d="M594.526,2226.92c-0,-442.918 147.639,-147.639 295.279,-147.639c147.639,-0 295.279,-88.584 295.279,147.639c0,236.224 -147.64,88.584 -295.279,88.584c-147.64,0 -295.279,59.056 -295.279,-88.584" style="fill:none;fill-rule:nonzero;stroke:#8f2727;stroke-opacity:0.09;stroke-width:37.36px;"/><path d="M594.526,2226.92c-0,-442.918 147.639,-147.639 295.279,-147.639c147.639,-0 295.279,-88.584 295.279,147.639c0,236.224 -147.64,88.584 -295.279,88.584c-147.64,0 -295.279,59.056 -295.279,-88.584" style="fill:none;fill-rule:nonzero;stroke:#8f2727;stroke-opacity:0.06;stroke-width:43.59px;"/><path d="M594.526,2226.92c-0,-442.918 147.639,-147.639 295.279,-147.639c147.639,-0 295.279,-88.584 295.279,147.639c0,236.224 -147.64,88.584 -295.279,88.584c-147.64,0 -295.279,59.056 -295.279,-88.584" style="fill:none;fill-rule:nonzero;stroke:#8f2727;stroke-opacity:0.04;stroke-width:49.82px;"/><path d="M594.526,2226.92c-0,-442.918 147.639,-147.639 295.279,-147.639c147.639,-0 295.279,-88.584 295.279,147.639c0,236.224 -147.64,88.584 -295.279,88.584c-147.64,0 -295.279,59.056 -295.279,-88.584" style="fill:none;fill-rule:nonzero;stroke:#8f2727;stroke-opacity:0.03;stroke-width:56.04px;"/><path d="M594.526,2226.92c-0,-442.918 147.639,-147.639 295.279,-147.639c147.639,-0 295.279,-88.584 295.279,147.639c0,236.224 -147.64,88.584 -295.279,88.584c-147.64,0 -295.279,59.056 -295.279,-88.584" style="fill:none;fill-rule:nonzero;stroke:#8f2727;stroke-opacity:0.02;stroke-width:62.27px;"/><path d="M594.526,2226.92c-0,-442.918 147.639,-147.639 295.279,-147.639c147.639,-0 295.279,-88.584 295.279,147.639c0,236.224 -147.64,88.584 -295.279,88.584c-147.64,0 -295.279,59.056 -295.279,-88.584" style="fill:none;fill-rule:nonzero;stroke:#8f2727;stroke-opacity:0.01;stroke-width:68.5px;"/><path d="M594.526,2226.92c-0,-442.918 147.639,-147.639 295.279,-147.639c147.639,-0 295.279,-88.584 295.279,147.639c0,236.224 -147.64,88.584 -295.279,88.584c-147.64,0 -295.279,59.056 -295.279,-88.584" style="fill:none;fill-rule:nonzero;stroke:#8f2727;stroke-opacity:0.01;stroke-width:74.73px;"/><path d="M594.526,2226.92c-0,-442.918 147.639,-147.639 295.279,-147.639c147.639,-0 295.279,-88.584 295.279,147.639c0,236.224 -147.64,88.584 -295.279,88.584c-147.64,0 -295.279,59.056 -295.279,-88.584" style="fill:none;fill-rule:nonzero;stroke:#8f2727;stroke-opacity:0;stroke-width:80.95px;"/><path d="M594.526,2226.92c-0,-442.918 147.639,-147.639 295.279,-147.639c147.639,-0 295.279,-88.584 295.279,147.639c0,236.224 -147.64,88.584 -295.279,88.584c-147.64,0 -295.279,59.056 -295.279,-88.584" style="fill:none;fill-rule:nonzero;stroke:#8f2727;stroke-opacity:0;stroke-width:87.18px;"/><path d="M594.526,2226.92c-0,-442.918 147.639,-147.639 295.279,-147.639c147.639,-0 295.279,-88.584 295.279,147.639c0,236.224 -147.64,88.584 -295.279,88.584c-147.64,0 -295.279,59.056 -295.279,-88.584" style="fill:none;fill-rule:nonzero;stroke:#8f2727;stroke-opacity:0;stroke-width:93.41px;"/><path d="M594.526,2226.92c-0,-442.918 147.639,-147.639 295.279,-147.639c147.639,-0 295.279,-88.584 295.279,147.639c0,236.224 -147.64,88.584 -295.279,88.584c-147.64,0 -295.279,59.056 -295.279,-88.584" style="fill:none;fill-rule:nonzero;stroke:#8f2727;stroke-opacity:0;stroke-width:99.63px;"/><path d="M594.526,2226.92c-0,-442.918 147.639,-147.639 295.279,-147.639c147.639,-0 295.279,-88.584 295.279,147.639c0,236.224 -147.64,88.584 -295.279,88.584c-147.64,0 -295.279,59.056 -295.279,-88.584" style="fill:none;fill-rule:nonzero;stroke:#8f2727;stroke-opacity:0;stroke-width:105.86px;"/><path d="M594.526,2226.92c-0,-442.918 147.639,-147.639 295.279,-147.639c147.639,-0 295.279,-88.584 295.279,147.639c0,236.224 -147.64,88.584 -295.279,88.584c-147.64,0 -295.279,59.056 -295.279,-88.584" style="fill:none;fill-rule:nonzero;stroke:#8f2727;stroke-opacity:0;stroke-width:112.09px;"/><path d="M594.526,2226.92c-0,-442.918 147.639,-147.639 295.279,-147.639c147.639,-0 295.279,-88.584 295.279,147.639c0,236.224 -147.64,88.584 -295.279,88.584c-147.64,0 -295.279,59.056 -295.279,-88.584" style="fill:none;fill-rule:nonzero;stroke:#8f2727;stroke-opacity:0;stroke-width:118.32px;"/><path d="M601.79,2418.85c0,-4.01 -3.255,-7.265 -7.264,-7.265c-4.01,0 -7.265,3.255 -7.265,7.265c0,4.009 3.255,7.264 7.265,7.264c4.009,0 7.264,-3.255 7.264,-7.264Z" style="fill:#8f2727;"/><path d="M599.715,2418.85c-0,-2.864 -2.325,-5.189 -5.189,-5.189c-2.864,-0 -5.189,2.325 -5.189,5.189c-0,2.864 2.325,5.189 5.189,5.189c2.864,-0 5.189,-2.325 5.189,-5.189Z" style="fill:#dcbcbc;"/><path d="M631.318,2426.23c0,-4.01 -3.255,-7.265 -7.264,-7.265c-4.01,0 -7.265,3.255 -7.265,7.265c0,4.009 3.255,7.264 7.265,7.264c4.009,0 7.264,-3.255 7.264,-7.264Z" style="fill:#8f2727;"/><path d="M629.243,2426.23c-0,-2.864 -2.326,-5.189 -5.189,-5.189c-2.864,-0 -5.189,2.325 -5.189,5.189c-0,2.864 2.325,5.189 5.189,5.189c2.863,-0 5.189,-2.325 5.189,-5.189Z" style="fill:#dcbcbc;"/><path d="M653.464,2374.56c0,-4.01 -3.255,-7.265 -7.264,-7.265c-4.01,0 -7.265,3.255 -7.265,7.265c0,4.009 3.255,7.264 7.265,7.264c4.009,0 7.264,-3.255 7.264,-7.264Z" style="fill:#8f2727;"/><path d="M651.388,2374.56c0,-2.864 -2.325,-5.189 -5.188,-5.189c-2.864,-0 -5.189,2.325 -5.189,5.189c-0,2.864 2.325,5.189 5.189,5.189c2.863,-0 5.188,-2.325 5.188,-5.189Z" style="fill:#dcbcbc;"/><path d="M675.61,2345.03c0,-4.009 -3.255,-7.264 -7.265,-7.264c-4.009,-0 -7.264,3.255 -7.264,7.264c-0,4.009 3.255,7.265 7.264,7.265c4.01,-0 7.265,-3.256 7.265,-7.265Z" style="fill:#8f2727;"/><path d="M673.534,2345.03c0,-2.864 -2.325,-5.189 -5.188,-5.189c-2.864,0 -5.189,2.325 -5.189,5.189c-0,2.864 2.325,5.189 5.189,5.189c2.863,-0 5.188,-2.325 5.188,-5.189Z" style="fill:#dcbcbc;"/><path d="M690.374,2330.26c-0,-4.009 -3.255,-7.264 -7.265,-7.264c-4.009,-0 -7.264,3.255 -7.264,7.264c-0,4.009 3.255,7.265 7.264,7.265c4.01,-0 7.265,-3.256 7.265,-7.265Z" style="fill:#8f2727;"/><path d="M688.298,2330.26c0,-2.864 -2.325,-5.189 -5.189,-5.189c-2.863,0 -5.188,2.325 -5.188,5.189c-0,2.864 2.325,5.189 5.188,5.189c2.864,0 5.189,-2.325 5.189,-5.189Z" style="fill:#dcbcbc;"/><path d="M705.138,2333.22c-0,-4.009 -3.255,-7.265 -7.265,-7.265c-4.009,0 -7.264,3.256 -7.264,7.265c-0,4.009 3.255,7.264 7.264,7.264c4.01,0 7.265,-3.255 7.265,-7.264Z" style="fill:#8f2727;"/><path d="M703.062,2333.22c0,-2.864 -2.325,-5.189 -5.189,-5.189c-2.863,0 -5.189,2.325 -5.189,5.189c0,2.864 2.326,5.189 5.189,5.189c2.864,-0 5.189,-2.325 5.189,-5.189Z" style="fill:#dcbcbc;"/><path d="M719.902,2315.5c-0,-4.009 -3.255,-7.264 -7.265,-7.264c-4.009,-0 -7.264,3.255 -7.264,7.264c-0,4.01 3.255,7.265 7.264,7.265c4.01,-0 7.265,-3.255 7.265,-7.265Z" style="fill:#8f2727;"/><path d="M717.826,2315.5c0,-2.864 -2.325,-5.189 -5.189,-5.189c-2.863,0 -5.189,2.325 -5.189,5.189c0,2.864 2.326,5.189 5.189,5.189c2.864,0 5.189,-2.325 5.189,-5.189Z" style="fill:#dcbcbc;"/><path d="M734.666,2330.26c-0,-4.009 -3.255,-7.264 -7.265,-7.264c-4.009,-0 -7.264,3.255 -7.264,7.264c-0,4.009 3.255,7.265 7.264,7.265c4.01,-0 7.265,-3.256 7.265,-7.265Z" style="fill:#8f2727;"/><path d="M732.59,2330.26c0,-2.864 -2.325,-5.189 -5.189,-5.189c-2.864,0 -5.189,2.325 -5.189,5.189c0,2.864 2.325,5.189 5.189,5.189c2.864,0 5.189,-2.325 5.189,-5.189Z" style="fill:#dcbcbc;"/><path d="M749.43,2337.65c-0,-4.009 -3.255,-7.265 -7.265,-7.265c-4.009,0 -7.264,3.256 -7.264,7.265c-0,4.009 3.255,7.265 7.264,7.265c4.01,-0 7.265,-3.256 7.265,-7.265Z" style="fill:#8f2727;"/><path d="M747.354,2337.65c0,-2.864 -2.325,-5.189 -5.189,-5.189c-2.863,0 -5.189,2.325 -5.189,5.189c0,2.864 2.326,5.189 5.189,5.189c2.864,-0 5.189,-2.325 5.189,-5.189Z" style="fill:#dcbcbc;"/><path d="M756.812,2322.88c-0,-4.009 -3.255,-7.264 -7.265,-7.264c-4.009,-0 -7.264,3.255 -7.264,7.264c-0,4.009 3.255,7.265 7.264,7.265c4.01,-0 7.265,-3.256 7.265,-7.265Z" style="fill:#8f2727;"/><path d="M754.736,2322.88c0,-2.864 -2.325,-5.189 -5.189,-5.189c-2.864,0 -5.189,2.325 -5.189,5.189c0,2.864 2.325,5.189 5.189,5.189c2.864,-0 5.189,-2.325 5.189,-5.189Z" style="fill:#dcbcbc;"/><path d="M749.43,2330.26c-0,-4.009 -3.255,-7.264 -7.265,-7.264c-4.009,-0 -7.264,3.255 -7.264,7.264c-0,4.009 3.255,7.265 7.264,7.265c4.01,-0 7.265,-3.256 7.265,-7.265Z" style="fill:#8f2727;"/><path d="M747.354,2330.26c0,-2.864 -2.325,-5.189 -5.189,-5.189c-2.863,0 -5.189,2.325 -5.189,5.189c0,2.864 2.326,5.189 5.189,5.189c2.864,0 5.189,-2.325 5.189,-5.189Z" style="fill:#dcbcbc;"/><path d="M778.958,2339.12c-0,-4.009 -3.255,-7.264 -7.265,-7.264c-4.009,-0 -7.264,3.255 -7.264,7.264c-0,4.01 3.255,7.265 7.264,7.265c4.01,0 7.265,-3.255 7.265,-7.265Z" style="fill:#8f2727;"/><path d="M776.882,2339.12c0,-2.863 -2.325,-5.188 -5.189,-5.188c-2.864,-0 -5.189,2.325 -5.189,5.188c0,2.864 2.325,5.189 5.189,5.189c2.864,0 5.189,-2.325 5.189,-5.189Z" style="fill:#dcbcbc;"/><path d="M808.486,2330.26c-0,-4.009 -3.255,-7.264 -7.265,-7.264c-4.009,-0 -7.264,3.255 -7.264,7.264c-0,4.009 3.255,7.265 7.264,7.265c4.01,-0 7.265,-3.256 7.265,-7.265Z" style="fill:#8f2727;"/><path d="M806.41,2330.26c0,-2.864 -2.325,-5.189 -5.189,-5.189c-2.864,0 -5.189,2.325 -5.189,5.189c0,2.864 2.325,5.189 5.189,5.189c2.864,0 5.189,-2.325 5.189,-5.189Z" style="fill:#dcbcbc;"/><path d="M814.391,2315.5c0,-4.009 -3.255,-7.264 -7.264,-7.264c-4.01,-0 -7.265,3.255 -7.265,7.264c0,4.01 3.255,7.265 7.265,7.265c4.009,-0 7.264,-3.255 7.264,-7.265Z" style="fill:#8f2727;"/><path d="M812.316,2315.5c-0,-2.864 -2.325,-5.189 -5.189,-5.189c-2.864,0 -5.189,2.325 -5.189,5.189c-0,2.864 2.325,5.189 5.189,5.189c2.864,0 5.189,-2.325 5.189,-5.189Z" style="fill:#dcbcbc;"/><path d="M811.439,2324.36c-0,-4.01 -3.255,-7.265 -7.265,-7.265c-4.009,0 -7.264,3.255 -7.264,7.265c-0,4.009 3.255,7.264 7.264,7.264c4.01,0 7.265,-3.255 7.265,-7.264Z" style="fill:#8f2727;"/><path d="M809.363,2324.36c0,-2.864 -2.325,-5.189 -5.189,-5.189c-2.864,-0 -5.189,2.325 -5.189,5.189c0,2.863 2.325,5.188 5.189,5.188c2.864,0 5.189,-2.325 5.189,-5.188Z" style="fill:#dcbcbc;"/><path d="M838.014,2330.26c-0,-4.009 -3.255,-7.264 -7.265,-7.264c-4.009,-0 -7.264,3.255 -7.264,7.264c-0,4.009 3.255,7.265 7.264,7.265c4.01,-0 7.265,-3.256 7.265,-7.265Z" style="fill:#8f2727;"/><path d="M835.938,2330.26c0,-2.864 -2.325,-5.189 -5.189,-5.189c-2.864,0 -5.189,2.325 -5.189,5.189c0,2.864 2.325,5.189 5.189,5.189c2.864,0 5.189,-2.325 5.189,-5.189Z" style="fill:#dcbcbc;"/><path d="M860.16,2315.5c-0,-4.009 -3.256,-7.264 -7.265,-7.264c-4.009,-0 -7.264,3.255 -7.264,7.264c-0,4.01 3.255,7.265 7.264,7.265c4.009,-0 7.265,-3.255 7.265,-7.265Z" style="fill:#8f2727;"/><path d="M858.084,2315.5c-0,-2.864 -2.325,-5.189 -5.189,-5.189c-2.864,0 -5.189,2.325 -5.189,5.189c0,2.864 2.325,5.189 5.189,5.189c2.864,0 5.189,-2.325 5.189,-5.189Z" style="fill:#dcbcbc;"/><path d="M882.306,2308.12c-0,-4.009 -3.256,-7.264 -7.265,-7.264c-4.009,-0 -7.265,3.255 -7.265,7.264c0,4.009 3.256,7.265 7.265,7.265c4.009,-0 7.265,-3.256 7.265,-7.265Z" style="fill:#8f2727;"/><path d="M880.23,2308.12c-0,-2.864 -2.325,-5.189 -5.189,-5.189c-2.864,0 -5.189,2.325 -5.189,5.189c0,2.864 2.325,5.189 5.189,5.189c2.864,0 5.189,-2.325 5.189,-5.189Z" style="fill:#dcbcbc;"/><path d="M888.211,2315.5c-0,-4.009 -3.255,-7.264 -7.265,-7.264c-4.009,-0 -7.264,3.255 -7.264,7.264c-0,4.01 3.255,7.265 7.264,7.265c4.01,-0 7.265,-3.255 7.265,-7.265Z" style="fill:#8f2727;"/><path d="M886.135,2315.5c0,-2.864 -2.325,-5.189 -5.189,-5.189c-2.863,0 -5.188,2.325 -5.188,5.189c-0,2.864 2.325,5.189 5.188,5.189c2.864,0 5.189,-2.325 5.189,-5.189Z" style="fill:#dcbcbc;"/><path d="M900.022,2308.12c0,-4.009 -3.255,-7.264 -7.264,-7.264c-4.01,-0 -7.265,3.255 -7.265,7.264c0,4.009 3.255,7.265 7.265,7.265c4.009,-0 7.264,-3.256 7.264,-7.265Z" style="fill:#8f2727;"/><path d="M897.947,2308.12c-0,-2.864 -2.325,-5.189 -5.189,-5.189c-2.864,0 -5.189,2.325 -5.189,5.189c-0,2.864 2.325,5.189 5.189,5.189c2.864,0 5.189,-2.325 5.189,-5.189Z" style="fill:#dcbcbc;"/><path d="M901.498,2318.45c0,-4.009 -3.255,-7.264 -7.264,-7.264c-4.01,-0 -7.265,3.255 -7.265,7.264c0,4.009 3.255,7.265 7.265,7.265c4.009,-0 7.264,-3.256 7.264,-7.265Z" style="fill:#8f2727;"/><path d="M899.423,2318.45c-0,-2.864 -2.325,-5.189 -5.189,-5.189c-2.864,0 -5.189,2.325 -5.189,5.189c-0,2.864 2.325,5.189 5.189,5.189c2.864,0 5.189,-2.325 5.189,-5.189Z" style="fill:#dcbcbc;"/><path d="M908.88,2327.31c0,-4.009 -3.255,-7.264 -7.264,-7.264c-4.01,-0 -7.265,3.255 -7.265,7.264c0,4.009 3.255,7.265 7.265,7.265c4.009,-0 7.264,-3.256 7.264,-7.265Z" style="fill:#8f2727;"/><path d="M906.805,2327.31c-0,-2.864 -2.325,-5.189 -5.189,-5.189c-2.864,0 -5.189,2.325 -5.189,5.189c-0,2.864 2.325,5.189 5.189,5.189c2.864,-0 5.189,-2.325 5.189,-5.189Z" style="fill:#dcbcbc;"/><path d="M929.55,2322.88c0,-4.009 -3.255,-7.264 -7.264,-7.264c-4.01,-0 -7.265,3.255 -7.265,7.264c0,4.009 3.255,7.265 7.265,7.265c4.009,-0 7.264,-3.256 7.264,-7.265Z" style="fill:#8f2727;"/><path d="M927.475,2322.88c-0,-2.864 -2.325,-5.189 -5.189,-5.189c-2.864,0 -5.189,2.325 -5.189,5.189c-0,2.864 2.325,5.189 5.189,5.189c2.864,-0 5.189,-2.325 5.189,-5.189Z" style="fill:#dcbcbc;"/><path d="M976.795,2328.79c-0,-4.01 -3.256,-7.265 -7.265,-7.265c-4.009,0 -7.264,3.255 -7.264,7.265c-0,4.009 3.255,7.264 7.264,7.264c4.009,0 7.265,-3.255 7.265,-7.264Z" style="fill:#8f2727;"/><path d="M974.719,2328.79c0,-2.864 -2.325,-5.189 -5.189,-5.189c-2.864,-0 -5.189,2.325 -5.189,5.189c0,2.863 2.325,5.189 5.189,5.189c2.864,-0 5.189,-2.326 5.189,-5.189Z" style="fill:#dcbcbc;"/><path d="M982.7,2321.41c0,-4.01 -3.255,-7.265 -7.264,-7.265c-4.01,0 -7.265,3.255 -7.265,7.265c0,4.009 3.255,7.264 7.265,7.264c4.009,0 7.264,-3.255 7.264,-7.264Z" style="fill:#8f2727;"/><path d="M980.625,2321.41c-0,-2.864 -2.326,-5.189 -5.189,-5.189c-2.864,-0 -5.189,2.325 -5.189,5.189c-0,2.863 2.325,5.189 5.189,5.189c2.863,-0 5.189,-2.326 5.189,-5.189Z" style="fill:#dcbcbc;"/><path d="M988.606,2336.17c0,-4.01 -3.255,-7.265 -7.264,-7.265c-4.01,0 -7.265,3.255 -7.265,7.265c0,4.009 3.255,7.264 7.265,7.264c4.009,0 7.264,-3.255 7.264,-7.264Z" style="fill:#8f2727;"/><path d="M986.531,2336.17c-0,-2.864 -2.326,-5.189 -5.189,-5.189c-2.864,-0 -5.189,2.325 -5.189,5.189c-0,2.863 2.325,5.188 5.189,5.188c2.863,0 5.189,-2.325 5.189,-5.188Z" style="fill:#dcbcbc;"/><path d="M1021.09,2342.08c-0,-4.009 -3.256,-7.264 -7.265,-7.264c-4.009,-0 -7.264,3.255 -7.264,7.264c-0,4.009 3.255,7.265 7.264,7.265c4.009,-0 7.265,-3.256 7.265,-7.265Z" style="fill:#8f2727;"/><path d="M1019.01,2342.08c-0,-2.864 -2.325,-5.189 -5.189,-5.189c-2.864,0 -5.189,2.325 -5.189,5.189c0,2.864 2.325,5.189 5.189,5.189c2.864,0 5.189,-2.325 5.189,-5.189Z" style="fill:#dcbcbc;"/><path d="M1015.18,2347.98c0,-4.009 -3.255,-7.265 -7.264,-7.265c-4.01,0 -7.265,3.256 -7.265,7.265c0,4.009 3.255,7.264 7.265,7.264c4.009,0 7.264,-3.255 7.264,-7.264Z" style="fill:#8f2727;"/><path d="M1013.11,2347.98c-0,-2.864 -2.326,-5.189 -5.189,-5.189c-2.864,-0 -5.189,2.325 -5.189,5.189c-0,2.864 2.325,5.189 5.189,5.189c2.863,-0 5.189,-2.325 5.189,-5.189Z" style="fill:#dcbcbc;"/><path d="M1044.71,2345.03c-0,-4.009 -3.255,-7.264 -7.265,-7.264c-4.009,-0 -7.264,3.255 -7.264,7.264c-0,4.009 3.255,7.265 7.264,7.265c4.01,-0 7.265,-3.256 7.265,-7.265Z" style="fill:#8f2727;"/><path d="M1042.63,2345.03c0,-2.864 -2.325,-5.189 -5.189,-5.189c-2.863,0 -5.189,2.325 -5.189,5.189c0,2.864 2.326,5.189 5.189,5.189c2.864,-0 5.189,-2.325 5.189,-5.189Z" style="fill:#dcbcbc;"/><path d="M1068.33,2353.89c0,-4.009 -3.255,-7.264 -7.264,-7.264c-4.01,-0 -7.265,3.255 -7.265,7.264c0,4.01 3.255,7.265 7.265,7.265c4.009,-0 7.264,-3.255 7.264,-7.265Z" style="fill:#8f2727;"/><path d="M1066.26,2353.89c-0,-2.863 -2.325,-5.188 -5.189,-5.188c-2.864,-0 -5.189,2.325 -5.189,5.188c-0,2.864 2.325,5.189 5.189,5.189c2.864,0 5.189,-2.325 5.189,-5.189Z" style="fill:#dcbcbc;"/><path d="M1089,2368.65c-0,-4.009 -3.255,-7.264 -7.265,-7.264c-4.009,-0 -7.264,3.255 -7.264,7.264c-0,4.01 3.255,7.265 7.264,7.265c4.01,-0 7.265,-3.255 7.265,-7.265Z" style="fill:#8f2727;"/><path d="M1086.92,2368.65c0,-2.863 -2.325,-5.188 -5.189,-5.188c-2.864,-0 -5.189,2.325 -5.189,5.188c0,2.864 2.325,5.189 5.189,5.189c2.864,0 5.189,-2.325 5.189,-5.189Z" style="fill:#dcbcbc;"/><path d="M1097.86,2359.79c0,-4.009 -3.255,-7.265 -7.264,-7.265c-4.01,0 -7.265,3.256 -7.265,7.265c0,4.009 3.255,7.264 7.265,7.264c4.009,0 7.264,-3.255 7.264,-7.264Z" style="fill:#8f2727;"/><path d="M1095.78,2359.79c-0,-2.864 -2.325,-5.189 -5.189,-5.189c-2.864,-0 -5.189,2.325 -5.189,5.189c-0,2.864 2.325,5.189 5.189,5.189c2.864,-0 5.189,-2.325 5.189,-5.189Z" style="fill:#dcbcbc;"/><path d="M1103.77,2362.74c-0,-4.009 -3.255,-7.265 -7.265,-7.265c-4.009,0 -7.264,3.256 -7.264,7.265c-0,4.009 3.255,7.264 7.264,7.264c4.01,0 7.265,-3.255 7.265,-7.264Z" style="fill:#8f2727;"/><path d="M1101.69,2362.74c0,-2.864 -2.325,-5.189 -5.189,-5.189c-2.864,0 -5.189,2.325 -5.189,5.189c0,2.864 2.325,5.189 5.189,5.189c2.864,-0 5.189,-2.325 5.189,-5.189Z" style="fill:#dcbcbc;"/><path d="M1097.86,2365.7c0,-4.009 -3.255,-7.264 -7.264,-7.264c-4.01,-0 -7.265,3.255 -7.265,7.264c0,4.01 3.255,7.265 7.265,7.265c4.009,-0 7.264,-3.255 7.264,-7.265Z" style="fill:#8f2727;"/><path d="M1095.78,2365.7c-0,-2.863 -2.325,-5.188 -5.189,-5.188c-2.864,-0 -5.189,2.325 -5.189,5.188c-0,2.864 2.325,5.189 5.189,5.189c2.864,0 5.189,-2.325 5.189,-5.189Z" style="fill:#dcbcbc;"/><path d="M1125.91,2350.93c-0,-4.009 -3.255,-7.264 -7.265,-7.264c-4.009,-0 -7.264,3.255 -7.264,7.264c-0,4.01 3.255,7.265 7.264,7.265c4.01,0 7.265,-3.255 7.265,-7.265Z" style="fill:#8f2727;"/><path d="M1123.84,2350.93c0,-2.863 -2.325,-5.188 -5.189,-5.188c-2.864,-0 -5.189,2.325 -5.189,5.188c0,2.864 2.325,5.189 5.189,5.189c2.864,0 5.189,-2.325 5.189,-5.189Z" style="fill:#dcbcbc;"/><path d="M1148.06,2352.41c-0,-4.009 -3.255,-7.265 -7.265,-7.265c-4.009,0 -7.264,3.256 -7.264,7.265c-0,4.009 3.255,7.264 7.264,7.264c4.01,0 7.265,-3.255 7.265,-7.264Z" style="fill:#8f2727;"/><path d="M1145.98,2352.41c0,-2.864 -2.325,-5.189 -5.189,-5.189c-2.864,0 -5.189,2.325 -5.189,5.189c0,2.864 2.325,5.189 5.189,5.189c2.864,-0 5.189,-2.325 5.189,-5.189Z" style="fill:#dcbcbc;"/><path d="M1151.01,2367.17c-0,-4.009 -3.255,-7.265 -7.265,-7.265c-4.009,0 -7.264,3.256 -7.264,7.265c-0,4.009 3.255,7.264 7.264,7.264c4.01,0 7.265,-3.255 7.265,-7.264Z" style="fill:#8f2727;"/><path d="M1148.93,2367.17c0,-2.864 -2.325,-5.189 -5.189,-5.189c-2.864,-0 -5.189,2.325 -5.189,5.189c0,2.864 2.325,5.189 5.189,5.189c2.864,-0 5.189,-2.325 5.189,-5.189Z" style="fill:#dcbcbc;"/><path d="M1156.91,2359.79c0,-4.009 -3.255,-7.265 -7.264,-7.265c-4.01,0 -7.265,3.256 -7.265,7.265c0,4.009 3.255,7.264 7.265,7.264c4.009,0 7.264,-3.255 7.264,-7.264Z" style="fill:#8f2727;"/><path d="M1154.84,2359.79c-0,-2.864 -2.325,-5.189 -5.189,-5.189c-2.864,-0 -5.189,2.325 -5.189,5.189c-0,2.864 2.325,5.189 5.189,5.189c2.864,-0 5.189,-2.325 5.189,-5.189Z" style="fill:#dcbcbc;"/><path d="M1170.2,2330.26c-0,-4.009 -3.255,-7.264 -7.265,-7.264c-4.009,-0 -7.264,3.255 -7.264,7.264c-0,4.009 3.255,7.265 7.264,7.265c4.01,-0 7.265,-3.256 7.265,-7.265Z" style="fill:#8f2727;"/><path d="M1168.13,2330.26c0,-2.864 -2.325,-5.189 -5.189,-5.189c-2.864,0 -5.189,2.325 -5.189,5.189c0,2.864 2.325,5.189 5.189,5.189c2.864,0 5.189,-2.325 5.189,-5.189Z" style="fill:#dcbcbc;"/><path d="M1182.01,2308.12c-0,-4.009 -3.255,-7.264 -7.265,-7.264c-4.009,-0 -7.264,3.255 -7.264,7.264c-0,4.009 3.255,7.265 7.264,7.265c4.01,-0 7.265,-3.256 7.265,-7.265Z" style="fill:#8f2727;"/><path d="M1179.94,2308.12c0,-2.864 -2.325,-5.189 -5.189,-5.189c-2.864,0 -5.189,2.325 -5.189,5.189c0,2.864 2.325,5.189 5.189,5.189c2.864,0 5.189,-2.325 5.189,-5.189Z" style="fill:#dcbcbc;"/><path d="M1177.59,2285.97c-0,-4.009 -3.255,-7.264 -7.265,-7.264c-4.009,-0 -7.264,3.255 -7.264,7.264c-0,4.01 3.255,7.265 7.264,7.265c4.01,-0 7.265,-3.255 7.265,-7.265Z" style="fill:#8f2727;"/><path d="M1175.51,2285.97c0,-2.864 -2.325,-5.189 -5.189,-5.189c-2.864,0 -5.189,2.325 -5.189,5.189c0,2.864 2.325,5.189 5.189,5.189c2.864,0 5.189,-2.325 5.189,-5.189Z" style="fill:#dcbcbc;"/><path d="M1186.44,2315.5c0,-4.009 -3.255,-7.264 -7.264,-7.264c-4.01,-0 -7.265,3.255 -7.265,7.264c0,4.01 3.255,7.265 7.265,7.265c4.009,-0 7.264,-3.255 7.264,-7.265Z" style="fill:#8f2727;"/><path d="M1184.37,2315.5c0,-2.864 -2.325,-5.189 -5.188,-5.189c-2.864,0 -5.189,2.325 -5.189,5.189c-0,2.864 2.325,5.189 5.189,5.189c2.863,0 5.188,-2.325 5.188,-5.189Z" style="fill:#dcbcbc;"/><path d="M1187.92,2250.54c-0,-4.01 -3.256,-7.265 -7.265,-7.265c-4.009,0 -7.264,3.255 -7.264,7.265c-0,4.009 3.255,7.264 7.264,7.264c4.009,0 7.265,-3.255 7.265,-7.264Z" style="fill:#8f2727;"/><path d="M1185.84,2250.54c0,-2.864 -2.325,-5.189 -5.189,-5.189c-2.864,-0 -5.189,2.325 -5.189,5.189c0,2.864 2.325,5.189 5.189,5.189c2.864,-0 5.189,-2.325 5.189,-5.189Z" style="fill:#dcbcbc;"/><path d="M1195.3,2238.73c-0,-4.009 -3.256,-7.264 -7.265,-7.264c-4.009,-0 -7.264,3.255 -7.264,7.264c-0,4.01 3.255,7.265 7.264,7.265c4.009,-0 7.265,-3.255 7.265,-7.265Z" style="fill:#8f2727;"/><path d="M1193.23,2238.73c0,-2.864 -2.325,-5.189 -5.189,-5.189c-2.864,0 -5.189,2.325 -5.189,5.189c0,2.864 2.325,5.189 5.189,5.189c2.864,0 5.189,-2.325 5.189,-5.189Z" style="fill:#dcbcbc;"/><path d="M1199.73,2218.06c-0,-4.009 -3.256,-7.265 -7.265,-7.265c-4.009,0 -7.264,3.256 -7.264,7.265c-0,4.009 3.255,7.264 7.264,7.264c4.009,0 7.265,-3.255 7.265,-7.264Z" style="fill:#8f2727;"/><path d="M1197.65,2218.06c-0,-2.864 -2.325,-5.189 -5.189,-5.189c-2.864,-0 -5.189,2.325 -5.189,5.189c0,2.864 2.325,5.189 5.189,5.189c2.864,-0 5.189,-2.325 5.189,-5.189Z" style="fill:#dcbcbc;"/><path d="M1192.35,2206.25c-0,-4.009 -3.256,-7.265 -7.265,-7.265c-4.009,0 -7.264,3.256 -7.264,7.265c-0,4.009 3.255,7.264 7.264,7.264c4.009,0 7.265,-3.255 7.265,-7.264Z" style="fill:#8f2727;"/><path d="M1190.27,2206.25c0,-2.864 -2.325,-5.189 -5.189,-5.189c-2.864,-0 -5.189,2.325 -5.189,5.189c0,2.864 2.325,5.189 5.189,5.189c2.864,-0 5.189,-2.325 5.189,-5.189Z" style="fill:#dcbcbc;"/><path d="M1183.49,2200.34c0,-4.01 -3.255,-7.265 -7.264,-7.265c-4.01,0 -7.265,3.255 -7.265,7.265c0,4.009 3.255,7.264 7.265,7.264c4.009,0 7.264,-3.255 7.264,-7.264Z" style="fill:#8f2727;"/><path d="M1181.41,2200.34c-0,-2.864 -2.325,-5.189 -5.189,-5.189c-2.864,-0 -5.189,2.325 -5.189,5.189c-0,2.863 2.325,5.188 5.189,5.188c2.864,0 5.189,-2.325 5.189,-5.188Z" style="fill:#dcbcbc;"/><path d="M1201.21,2185.58c0,-4.009 -3.255,-7.264 -7.264,-7.264c-4.01,-0 -7.265,3.255 -7.265,7.264c0,4.01 3.255,7.265 7.265,7.265c4.009,0 7.264,-3.255 7.264,-7.265Z" style="fill:#8f2727;"/><path d="M1199.13,2185.58c-0,-2.863 -2.326,-5.188 -5.189,-5.188c-2.864,-0 -5.189,2.325 -5.189,5.188c-0,2.864 2.325,5.189 5.189,5.189c2.863,0 5.189,-2.325 5.189,-5.189Z" style="fill:#dcbcbc;"/><path d="M1186.44,2160.48c0,-4.01 -3.255,-7.265 -7.264,-7.265c-4.01,0 -7.265,3.255 -7.265,7.265c0,4.009 3.255,7.264 7.265,7.264c4.009,0 7.264,-3.255 7.264,-7.264Z" style="fill:#8f2727;"/><path d="M1184.37,2160.48c0,-2.864 -2.325,-5.189 -5.188,-5.189c-2.864,-0 -5.189,2.325 -5.189,5.189c-0,2.864 2.325,5.189 5.189,5.189c2.863,-0 5.188,-2.325 5.188,-5.189Z" style="fill:#dcbcbc;"/><path d="M1192.35,2153.1c-0,-4.01 -3.256,-7.265 -7.265,-7.265c-4.009,0 -7.264,3.255 -7.264,7.265c-0,4.009 3.255,7.264 7.264,7.264c4.009,0 7.265,-3.255 7.265,-7.264Z" style="fill:#8f2727;"/><path d="M1190.27,2153.1c0,-2.864 -2.325,-5.189 -5.189,-5.189c-2.864,-0 -5.189,2.325 -5.189,5.189c0,2.863 2.325,5.189 5.189,5.189c2.864,-0 5.189,-2.326 5.189,-5.189Z" style="fill:#dcbcbc;"/><path d="M1192.35,2138.33c-0,-4.01 -3.256,-7.265 -7.265,-7.265c-4.009,0 -7.264,3.255 -7.264,7.265c-0,4.009 3.255,7.264 7.264,7.264c4.009,0 7.265,-3.255 7.265,-7.264Z" style="fill:#8f2727;"/><path d="M1190.27,2138.33c0,-2.864 -2.325,-5.189 -5.189,-5.189c-2.864,-0 -5.189,2.325 -5.189,5.189c0,2.863 2.325,5.189 5.189,5.189c2.864,-0 5.189,-2.326 5.189,-5.189Z" style="fill:#dcbcbc;"/><path d="M1180.54,2116.19c-0,-4.01 -3.255,-7.265 -7.265,-7.265c-4.009,0 -7.264,3.255 -7.264,7.265c-0,4.009 3.255,7.264 7.264,7.264c4.01,0 7.265,-3.255 7.265,-7.264Z" style="fill:#8f2727;"/><path d="M1178.46,2116.19c0,-2.864 -2.325,-5.189 -5.189,-5.189c-2.864,-0 -5.189,2.325 -5.189,5.189c0,2.864 2.325,5.189 5.189,5.189c2.864,-0 5.189,-2.325 5.189,-5.189Z" style="fill:#dcbcbc;"/><path d="M1165.77,2096.99c-0,-4.01 -3.255,-7.265 -7.265,-7.265c-4.009,0 -7.264,3.255 -7.264,7.265c-0,4.009 3.255,7.264 7.264,7.264c4.01,0 7.265,-3.255 7.265,-7.264Z" style="fill:#8f2727;"/><path d="M1163.7,2096.99c0,-2.864 -2.325,-5.189 -5.189,-5.189c-2.864,-0 -5.189,2.325 -5.189,5.189c0,2.864 2.325,5.189 5.189,5.189c2.864,-0 5.189,-2.325 5.189,-5.189Z" style="fill:#dcbcbc;"/><path d="M1165.77,2105.85c-0,-4.01 -3.255,-7.265 -7.265,-7.265c-4.009,0 -7.264,3.255 -7.264,7.265c-0,4.009 3.255,7.264 7.264,7.264c4.01,0 7.265,-3.255 7.265,-7.264Z" style="fill:#8f2727;"/><path d="M1163.7,2105.85c0,-2.864 -2.325,-5.189 -5.189,-5.189c-2.864,-0 -5.189,2.325 -5.189,5.189c0,2.864 2.325,5.189 5.189,5.189c2.864,-0 5.189,-2.325 5.189,-5.189Z" style="fill:#dcbcbc;"/><path d="M1148.06,2086.66c-0,-4.01 -3.255,-7.265 -7.265,-7.265c-4.009,0 -7.264,3.255 -7.264,7.265c-0,4.009 3.255,7.264 7.264,7.264c4.01,0 7.265,-3.255 7.265,-7.264Z" style="fill:#8f2727;"/><path d="M1145.98,2086.66c0,-2.864 -2.325,-5.189 -5.189,-5.189c-2.864,-0 -5.189,2.325 -5.189,5.189c0,2.864 2.325,5.189 5.189,5.189c2.864,-0 5.189,-2.325 5.189,-5.189Z" style="fill:#dcbcbc;"/><path d="M1136.25,2057.13c-0,-4.01 -3.255,-7.265 -7.265,-7.265c-4.009,0 -7.264,3.255 -7.264,7.265c-0,4.009 3.255,7.264 7.264,7.264c4.01,0 7.265,-3.255 7.265,-7.264Z" style="fill:#8f2727;"/><path d="M1134.17,2057.13c0,-2.864 -2.325,-5.189 -5.189,-5.189c-2.864,-0 -5.189,2.325 -5.189,5.189c0,2.864 2.325,5.189 5.189,5.189c2.864,-0 5.189,-2.325 5.189,-5.189Z" style="fill:#dcbcbc;"/><path d="M1124.43,2073.37c0,-4.009 -3.255,-7.264 -7.264,-7.264c-4.01,-0 -7.265,3.255 -7.265,7.264c0,4.01 3.255,7.265 7.265,7.265c4.009,-0 7.264,-3.255 7.264,-7.265Z" style="fill:#8f2727;"/><path d="M1122.36,2073.37c-0,-2.864 -2.325,-5.189 -5.189,-5.189c-2.864,0 -5.189,2.325 -5.189,5.189c-0,2.864 2.325,5.189 5.189,5.189c2.864,0 5.189,-2.325 5.189,-5.189Z" style="fill:#dcbcbc;"/><path d="M1112.62,2070.42c0,-4.009 -3.255,-7.264 -7.264,-7.264c-4.01,-0 -7.265,3.255 -7.265,7.264c0,4.01 3.255,7.265 7.265,7.265c4.009,-0 7.264,-3.255 7.264,-7.265Z" style="fill:#8f2727;"/><path d="M1110.55,2070.42c-0,-2.864 -2.325,-5.189 -5.189,-5.189c-2.864,0 -5.189,2.325 -5.189,5.189c-0,2.864 2.325,5.189 5.189,5.189c2.864,0 5.189,-2.325 5.189,-5.189Z" style="fill:#dcbcbc;"/><path d="M1091.95,2055.65c-0,-4.009 -3.255,-7.264 -7.265,-7.264c-4.009,-0 -7.264,3.255 -7.264,7.264c-0,4.01 3.255,7.265 7.264,7.265c4.01,-0 7.265,-3.255 7.265,-7.265Z" style="fill:#8f2727;"/><path d="M1089.88,2055.65c0,-2.863 -2.325,-5.189 -5.189,-5.189c-2.864,0 -5.189,2.326 -5.189,5.189c0,2.864 2.325,5.189 5.189,5.189c2.864,0 5.189,-2.325 5.189,-5.189Z" style="fill:#dcbcbc;"/><path d="M1074.24,2049.75c-0,-4.01 -3.255,-7.265 -7.265,-7.265c-4.009,0 -7.264,3.255 -7.264,7.265c-0,4.009 3.255,7.264 7.264,7.264c4.01,0 7.265,-3.255 7.265,-7.264Z" style="fill:#8f2727;"/><path d="M1072.16,2049.75c0,-2.864 -2.325,-5.189 -5.189,-5.189c-2.863,-0 -5.189,2.325 -5.189,5.189c0,2.864 2.326,5.189 5.189,5.189c2.864,-0 5.189,-2.325 5.189,-5.189Z" style="fill:#dcbcbc;"/><path d="M1052.09,2065.99c0,-4.009 -3.255,-7.264 -7.265,-7.264c-4.009,-0 -7.264,3.255 -7.264,7.264c-0,4.01 3.255,7.265 7.264,7.265c4.01,-0 7.265,-3.255 7.265,-7.265Z" style="fill:#8f2727;"/><path d="M1050.02,2065.99c0,-2.864 -2.325,-5.189 -5.189,-5.189c-2.863,0 -5.188,2.325 -5.188,5.189c-0,2.864 2.325,5.189 5.188,5.189c2.864,0 5.189,-2.325 5.189,-5.189Z" style="fill:#dcbcbc;"/><path d="M1037.33,2057.13c-0,-4.01 -3.255,-7.265 -7.265,-7.265c-4.009,0 -7.264,3.255 -7.264,7.265c-0,4.009 3.255,7.264 7.264,7.264c4.01,0 7.265,-3.255 7.265,-7.264Z" style="fill:#8f2727;"/><path d="M1035.25,2057.13c0,-2.864 -2.325,-5.189 -5.189,-5.189c-2.863,-0 -5.188,2.325 -5.188,5.189c-0,2.864 2.325,5.189 5.188,5.189c2.864,-0 5.189,-2.325 5.189,-5.189Z" style="fill:#dcbcbc;"/><path d="M1000.42,2071.01c0,-4.009 -3.255,-7.264 -7.264,-7.264c-4.01,-0 -7.265,3.255 -7.265,7.264c0,4.009 3.255,7.265 7.265,7.265c4.009,-0 7.264,-3.256 7.264,-7.265Z" style="fill:#8f2727;"/><path d="M998.342,2071.01c-0,-2.864 -2.326,-5.189 -5.189,-5.189c-2.864,0 -5.189,2.325 -5.189,5.189c-0,2.864 2.325,5.189 5.189,5.189c2.863,-0 5.189,-2.325 5.189,-5.189Z" style="fill:#dcbcbc;"/><path d="M1044.71,2060.08c-0,-4.01 -3.255,-7.265 -7.265,-7.265c-4.009,0 -7.264,3.255 -7.264,7.265c-0,4.009 3.255,7.264 7.264,7.264c4.01,0 7.265,-3.255 7.265,-7.264Z" style="fill:#8f2727;"/><path d="M1042.63,2060.08c0,-2.864 -2.325,-5.189 -5.189,-5.189c-2.863,-0 -5.189,2.325 -5.189,5.189c0,2.864 2.326,5.189 5.189,5.189c2.864,-0 5.189,-2.325 5.189,-5.189Z" style="fill:#dcbcbc;"/><path d="M985.653,2064.51c0,-4.01 -3.255,-7.265 -7.264,-7.265c-4.01,0 -7.265,3.255 -7.265,7.265c0,4.009 3.255,7.264 7.265,7.264c4.009,0 7.264,-3.255 7.264,-7.264Z" style="fill:#8f2727;"/><path d="M983.578,2064.51c-0,-2.864 -2.325,-5.189 -5.189,-5.189c-2.864,-0 -5.189,2.325 -5.189,5.189c-0,2.864 2.325,5.189 5.189,5.189c2.864,-0 5.189,-2.325 5.189,-5.189Z" style="fill:#dcbcbc;"/><path d="M978.271,2070.42c0,-4.009 -3.255,-7.264 -7.264,-7.264c-4.01,-0 -7.265,3.255 -7.265,7.264c0,4.01 3.255,7.265 7.265,7.265c4.009,-0 7.264,-3.255 7.264,-7.265Z" style="fill:#8f2727;"/><path d="M976.196,2070.42c-0,-2.864 -2.326,-5.189 -5.189,-5.189c-2.864,0 -5.189,2.325 -5.189,5.189c-0,2.864 2.325,5.189 5.189,5.189c2.863,0 5.189,-2.325 5.189,-5.189Z" style="fill:#dcbcbc;"/><path d="M963.507,2085.18c0,-4.009 -3.255,-7.264 -7.264,-7.264c-4.01,-0 -7.265,3.255 -7.265,7.264c0,4.01 3.255,7.265 7.265,7.265c4.009,-0 7.264,-3.255 7.264,-7.265Z" style="fill:#8f2727;"/><path d="M961.432,2085.18c-0,-2.864 -2.326,-5.189 -5.189,-5.189c-2.864,0 -5.189,2.325 -5.189,5.189c-0,2.864 2.325,5.189 5.189,5.189c2.863,0 5.189,-2.325 5.189,-5.189Z" style="fill:#dcbcbc;"/><path d="M956.125,2073.37c0,-4.009 -3.255,-7.264 -7.264,-7.264c-4.01,-0 -7.265,3.255 -7.265,7.264c0,4.01 3.255,7.265 7.265,7.265c4.009,-0 7.264,-3.255 7.264,-7.265Z" style="fill:#8f2727;"/><path d="M954.05,2073.37c-0,-2.864 -2.325,-5.189 -5.189,-5.189c-2.864,0 -5.189,2.325 -5.189,5.189c-0,2.864 2.325,5.189 5.189,5.189c2.864,0 5.189,-2.325 5.189,-5.189Z" style="fill:#dcbcbc;"/><path d="M948.743,2082.23c0,-4.01 -3.255,-7.265 -7.264,-7.265c-4.01,0 -7.265,3.255 -7.265,7.265c0,4.009 3.255,7.264 7.265,7.264c4.009,0 7.264,-3.255 7.264,-7.264Z" style="fill:#8f2727;"/><path d="M946.668,2082.23c-0,-2.864 -2.325,-5.189 -5.189,-5.189c-2.864,-0 -5.189,2.325 -5.189,5.189c-0,2.864 2.325,5.189 5.189,5.189c2.864,-0 5.189,-2.325 5.189,-5.189Z" style="fill:#dcbcbc;"/><path d="M941.361,2076.32c0,-4.01 -3.255,-7.265 -7.264,-7.265c-4.01,0 -7.265,3.255 -7.265,7.265c0,4.009 3.255,7.264 7.265,7.264c4.009,0 7.264,-3.255 7.264,-7.264Z" style="fill:#8f2727;"/><path d="M939.286,2076.32c-0,-2.864 -2.325,-5.189 -5.189,-5.189c-2.864,-0 -5.189,2.325 -5.189,5.189c-0,2.864 2.325,5.189 5.189,5.189c2.864,-0 5.189,-2.325 5.189,-5.189Z" style="fill:#dcbcbc;"/><path d="M920.692,2073.37c-0,-4.009 -3.255,-7.264 -7.265,-7.264c-4.009,-0 -7.264,3.255 -7.264,7.264c-0,4.01 3.255,7.265 7.264,7.265c4.01,-0 7.265,-3.255 7.265,-7.265Z" style="fill:#8f2727;"/><path d="M918.616,2073.37c0,-2.864 -2.325,-5.189 -5.189,-5.189c-2.864,0 -5.189,2.325 -5.189,5.189c0,2.864 2.325,5.189 5.189,5.189c2.864,0 5.189,-2.325 5.189,-5.189Z" style="fill:#dcbcbc;"/><path d="M897.069,2088.14c0,-4.009 -3.255,-7.264 -7.264,-7.264c-4.009,-0 -7.265,3.255 -7.265,7.264c0,4.01 3.256,7.265 7.265,7.265c4.009,-0 7.264,-3.255 7.264,-7.265Z" style="fill:#8f2727;"/><path d="M894.994,2088.14c-0,-2.864 -2.325,-5.189 -5.189,-5.189c-2.864,0 -5.189,2.325 -5.189,5.189c-0,2.864 2.325,5.189 5.189,5.189c2.864,0 5.189,-2.325 5.189,-5.189Z" style="fill:#dcbcbc;"/><path d="M879.353,2079.28c-0,-4.01 -3.256,-7.265 -7.265,-7.265c-4.009,0 -7.264,3.255 -7.264,7.265c-0,4.009 3.255,7.264 7.264,7.264c4.009,0 7.265,-3.255 7.265,-7.264Z" style="fill:#8f2727;"/><path d="M877.277,2079.28c-0,-2.864 -2.325,-5.189 -5.189,-5.189c-2.864,-0 -5.189,2.325 -5.189,5.189c0,2.864 2.325,5.189 5.189,5.189c2.864,-0 5.189,-2.325 5.189,-5.189Z" style="fill:#dcbcbc;"/><path d="M860.16,2073.37c-0,-4.009 -3.256,-7.264 -7.265,-7.264c-4.009,-0 -7.264,3.255 -7.264,7.264c-0,4.01 3.255,7.265 7.264,7.265c4.009,-0 7.265,-3.255 7.265,-7.265Z" style="fill:#8f2727;"/><path d="M858.084,2073.37c-0,-2.864 -2.325,-5.189 -5.189,-5.189c-2.864,0 -5.189,2.325 -5.189,5.189c0,2.864 2.325,5.189 5.189,5.189c2.864,0 5.189,-2.325 5.189,-5.189Z" style="fill:#dcbcbc;"/><path d="M851.301,2067.47c0,-4.01 -3.255,-7.265 -7.264,-7.265c-4.01,0 -7.265,3.255 -7.265,7.265c0,4.009 3.255,7.264 7.265,7.264c4.009,0 7.264,-3.255 7.264,-7.264Z" style="fill:#8f2727;"/><path d="M849.226,2067.47c-0,-2.864 -2.326,-5.189 -5.189,-5.189c-2.864,-0 -5.189,2.325 -5.189,5.189c-0,2.864 2.325,5.189 5.189,5.189c2.863,-0 5.189,-2.325 5.189,-5.189Z" style="fill:#dcbcbc;"/><path d="M842.443,2079.28c-0,-4.01 -3.255,-7.265 -7.265,-7.265c-4.009,0 -7.264,3.255 -7.264,7.265c-0,4.009 3.255,7.264 7.264,7.264c4.01,0 7.265,-3.255 7.265,-7.264Z" style="fill:#8f2727;"/><path d="M840.367,2079.28c0,-2.864 -2.325,-5.189 -5.189,-5.189c-2.864,-0 -5.189,2.325 -5.189,5.189c0,2.864 2.325,5.189 5.189,5.189c2.864,-0 5.189,-2.325 5.189,-5.189Z" style="fill:#dcbcbc;"/><path d="M815.868,2064.51c-0,-4.01 -3.255,-7.265 -7.265,-7.265c-4.009,0 -7.264,3.255 -7.264,7.265c-0,4.009 3.255,7.264 7.264,7.264c4.01,0 7.265,-3.255 7.265,-7.264Z" style="fill:#8f2727;"/><path d="M813.792,2064.51c0,-2.864 -2.325,-5.189 -5.189,-5.189c-2.864,-0 -5.189,2.325 -5.189,5.189c0,2.864 2.325,5.189 5.189,5.189c2.864,-0 5.189,-2.325 5.189,-5.189Z" style="fill:#dcbcbc;"/><path d="M793.722,2032.03c-0,-4.009 -3.255,-7.265 -7.265,-7.265c-4.009,0 -7.264,3.256 -7.264,7.265c-0,4.009 3.255,7.264 7.264,7.264c4.01,0 7.265,-3.255 7.265,-7.264Z" style="fill:#8f2727;"/><path d="M791.646,2032.03c0,-2.864 -2.325,-5.189 -5.189,-5.189c-2.864,-0 -5.189,2.325 -5.189,5.189c0,2.864 2.325,5.189 5.189,5.189c2.864,-0 5.189,-2.325 5.189,-5.189Z" style="fill:#dcbcbc;"/><path d="M771.576,2034.99c-0,-4.01 -3.255,-7.265 -7.265,-7.265c-4.009,0 -7.264,3.255 -7.264,7.265c-0,4.009 3.255,7.264 7.264,7.264c4.01,0 7.265,-3.255 7.265,-7.264Z" style="fill:#8f2727;"/><path d="M769.5,2034.99c0,-2.864 -2.325,-5.189 -5.189,-5.189c-2.864,-0 -5.189,2.325 -5.189,5.189c0,2.864 2.325,5.189 5.189,5.189c2.864,-0 5.189,-2.325 5.189,-5.189Z" style="fill:#dcbcbc;"/><path d="M752.383,2014.32c-0,-4.009 -3.255,-7.264 -7.265,-7.264c-4.009,-0 -7.264,3.255 -7.264,7.264c-0,4.01 3.255,7.265 7.264,7.265c4.01,-0 7.265,-3.255 7.265,-7.265Z" style="fill:#8f2727;"/><path d="M750.307,2014.32c0,-2.863 -2.325,-5.188 -5.189,-5.188c-2.864,-0 -5.189,2.325 -5.189,5.188c0,2.864 2.325,5.189 5.189,5.189c2.864,0 5.189,-2.325 5.189,-5.189Z" style="fill:#dcbcbc;"/><path d="M743.524,2020.22c0,-4.009 -3.255,-7.265 -7.264,-7.265c-4.01,0 -7.265,3.256 -7.265,7.265c0,4.009 3.255,7.264 7.265,7.264c4.009,0 7.264,-3.255 7.264,-7.264Z" style="fill:#8f2727;"/><path d="M741.449,2020.22c-0,-2.864 -2.325,-5.189 -5.189,-5.189c-2.864,-0 -5.189,2.325 -5.189,5.189c-0,2.864 2.325,5.189 5.189,5.189c2.864,-0 5.189,-2.325 5.189,-5.189Z" style="fill:#dcbcbc;"/><path d="M727.284,2008.41c-0,-4.009 -3.255,-7.265 -7.265,-7.265c-4.009,0 -7.264,3.256 -7.264,7.265c-0,4.009 3.255,7.264 7.264,7.264c4.01,0 7.265,-3.255 7.265,-7.264Z" style="fill:#8f2727;"/><path d="M725.208,2008.41c0,-2.864 -2.325,-5.189 -5.189,-5.189c-2.864,-0 -5.189,2.325 -5.189,5.189c0,2.864 2.325,5.189 5.189,5.189c2.864,-0 5.189,-2.325 5.189,-5.189Z" style="fill:#dcbcbc;"/><path d="M719.902,1993.65c-0,-4.009 -3.255,-7.265 -7.265,-7.265c-4.009,0 -7.264,3.256 -7.264,7.265c-0,4.009 3.255,7.264 7.264,7.264c4.01,0 7.265,-3.255 7.265,-7.264Z" style="fill:#8f2727;"/><path d="M717.826,1993.65c0,-2.864 -2.325,-5.189 -5.189,-5.189c-2.863,0 -5.189,2.325 -5.189,5.189c0,2.864 2.326,5.189 5.189,5.189c2.864,-0 5.189,-2.325 5.189,-5.189Z" style="fill:#dcbcbc;"/><path d="M712.52,1996.6c-0,-4.009 -3.255,-7.264 -7.265,-7.264c-4.009,-0 -7.264,3.255 -7.264,7.264c-0,4.01 3.255,7.265 7.264,7.265c4.01,0 7.265,-3.255 7.265,-7.265Z" style="fill:#8f2727;"/><path d="M710.444,1996.6c0,-2.863 -2.325,-5.188 -5.189,-5.188c-2.863,-0 -5.189,2.325 -5.189,5.188c0,2.864 2.326,5.189 5.189,5.189c2.864,0 5.189,-2.325 5.189,-5.189Z" style="fill:#dcbcbc;"/><path d="M705.138,2005.46c-0,-4.009 -3.255,-7.265 -7.265,-7.265c-4.009,0 -7.264,3.256 -7.264,7.265c-0,4.009 3.255,7.264 7.264,7.264c4.01,0 7.265,-3.255 7.265,-7.264Z" style="fill:#8f2727;"/><path d="M703.062,2005.46c0,-2.864 -2.325,-5.189 -5.189,-5.189c-2.863,0 -5.189,2.325 -5.189,5.189c0,2.864 2.326,5.189 5.189,5.189c2.864,-0 5.189,-2.325 5.189,-5.189Z" style="fill:#dcbcbc;"/><path d="M697.756,1990.69c-0,-4.009 -3.255,-7.265 -7.265,-7.265c-4.009,0 -7.264,3.256 -7.264,7.265c-0,4.009 3.255,7.264 7.264,7.264c4.01,0 7.265,-3.255 7.265,-7.264Z" style="fill:#8f2727;"/><path d="M695.68,1990.69c0,-2.864 -2.325,-5.189 -5.189,-5.189c-2.863,0 -5.188,2.325 -5.188,5.189c-0,2.864 2.325,5.189 5.188,5.189c2.864,-0 5.189,-2.325 5.189,-5.189Z" style="fill:#dcbcbc;"/><path d="M675.61,1975.93c0,-4.009 -3.255,-7.264 -7.265,-7.264c-4.009,-0 -7.264,3.255 -7.264,7.264c-0,4.009 3.255,7.265 7.264,7.265c4.01,-0 7.265,-3.256 7.265,-7.265Z" style="fill:#8f2727;"/><path d="M673.534,1975.93c0,-2.864 -2.325,-5.189 -5.188,-5.189c-2.864,0 -5.189,2.325 -5.189,5.189c-0,2.864 2.325,5.189 5.189,5.189c2.863,-0 5.188,-2.325 5.188,-5.189Z" style="fill:#dcbcbc;"/><path d="M653.464,1990.69c0,-4.009 -3.255,-7.265 -7.264,-7.265c-4.01,0 -7.265,3.256 -7.265,7.265c0,4.009 3.255,7.264 7.265,7.264c4.009,0 7.264,-3.255 7.264,-7.264Z" style="fill:#8f2727;"/><path d="M651.388,1990.69c0,-2.864 -2.325,-5.189 -5.188,-5.189c-2.864,0 -5.189,2.325 -5.189,5.189c-0,2.864 2.325,5.189 5.189,5.189c2.863,-0 5.188,-2.325 5.188,-5.189Z" style="fill:#dcbcbc;"/><path d="M641.653,1996.6c0,-4.009 -3.255,-7.264 -7.264,-7.264c-4.01,-0 -7.265,3.255 -7.265,7.264c0,4.01 3.255,7.265 7.265,7.265c4.009,0 7.264,-3.255 7.264,-7.265Z" style="fill:#8f2727;"/><path d="M639.578,1996.6c-0,-2.863 -2.326,-5.188 -5.189,-5.188c-2.864,-0 -5.189,2.325 -5.189,5.188c-0,2.864 2.325,5.189 5.189,5.189c2.863,0 5.189,-2.325 5.189,-5.189Z" style="fill:#dcbcbc;"/><path d="M649.035,1999.55c0,-4.009 -3.255,-7.264 -7.264,-7.264c-4.01,-0 -7.265,3.255 -7.265,7.264c0,4.01 3.255,7.265 7.265,7.265c4.009,0 7.264,-3.255 7.264,-7.265Z" style="fill:#8f2727;"/><path d="M646.959,1999.55c0,-2.863 -2.325,-5.188 -5.188,-5.188c-2.864,-0 -5.189,2.325 -5.189,5.188c-0,2.864 2.325,5.189 5.189,5.189c2.863,0 5.188,-2.325 5.188,-5.189Z" style="fill:#dcbcbc;"/><path d="M625.413,2020.22c-0,-4.009 -3.256,-7.265 -7.265,-7.265c-4.009,0 -7.264,3.256 -7.264,7.265c-0,4.009 3.255,7.264 7.264,7.264c4.009,0 7.265,-3.255 7.265,-7.264Z" style="fill:#8f2727;"/><path d="M623.337,2020.22c0,-2.864 -2.325,-5.189 -5.189,-5.189c-2.864,-0 -5.189,2.325 -5.189,5.189c0,2.864 2.325,5.189 5.189,5.189c2.864,-0 5.189,-2.325 5.189,-5.189Z" style="fill:#dcbcbc;"/><path d="M616.554,2027.6c0,-4.009 -3.255,-7.265 -7.264,-7.265c-4.01,0 -7.265,3.256 -7.265,7.265c0,4.009 3.255,7.264 7.265,7.264c4.009,0 7.264,-3.255 7.264,-7.264Z" style="fill:#8f2727;"/><path d="M614.479,2027.6c-0,-2.864 -2.325,-5.189 -5.189,-5.189c-2.864,-0 -5.189,2.325 -5.189,5.189c-0,2.864 2.325,5.189 5.189,5.189c2.864,-0 5.189,-2.325 5.189,-5.189Z" style="fill:#dcbcbc;"/><path d="M601.79,2049.75c0,-4.01 -3.255,-7.265 -7.264,-7.265c-4.01,0 -7.265,3.255 -7.265,7.265c0,4.009 3.255,7.264 7.265,7.264c4.009,0 7.264,-3.255 7.264,-7.264Z" style="fill:#8f2727;"/><path d="M599.715,2049.75c-0,-2.864 -2.325,-5.189 -5.189,-5.189c-2.864,-0 -5.189,2.325 -5.189,5.189c-0,2.864 2.325,5.189 5.189,5.189c2.864,-0 5.189,-2.325 5.189,-5.189Z" style="fill:#dcbcbc;"/><path d="M610.649,2070.42c-0,-4.009 -3.255,-7.264 -7.265,-7.264c-4.009,-0 -7.264,3.255 -7.264,7.264c-0,4.01 3.255,7.265 7.264,7.265c4.01,-0 7.265,-3.255 7.265,-7.265Z" style="fill:#8f2727;"/><path d="M608.573,2070.42c0,-2.864 -2.325,-5.189 -5.189,-5.189c-2.864,0 -5.189,2.325 -5.189,5.189c0,2.864 2.325,5.189 5.189,5.189c2.864,0 5.189,-2.325 5.189,-5.189Z" style="fill:#dcbcbc;"/><path d="M613.601,2079.28c0,-4.01 -3.255,-7.265 -7.264,-7.265c-4.01,0 -7.265,3.255 -7.265,7.265c0,4.009 3.255,7.264 7.265,7.264c4.009,0 7.264,-3.255 7.264,-7.264Z" style="fill:#8f2727;"/><path d="M611.526,2079.28c-0,-2.864 -2.325,-5.189 -5.189,-5.189c-2.864,-0 -5.189,2.325 -5.189,5.189c-0,2.864 2.325,5.189 5.189,5.189c2.864,-0 5.189,-2.325 5.189,-5.189Z" style="fill:#dcbcbc;"/><path d="M604.743,2086.66c0,-4.01 -3.255,-7.265 -7.264,-7.265c-4.01,0 -7.265,3.255 -7.265,7.265c0,4.009 3.255,7.264 7.265,7.264c4.009,0 7.264,-3.255 7.264,-7.264Z" style="fill:#8f2727;"/><path d="M602.668,2086.66c-0,-2.864 -2.325,-5.189 -5.189,-5.189c-2.864,-0 -5.189,2.325 -5.189,5.189c-0,2.864 2.325,5.189 5.189,5.189c2.864,-0 5.189,-2.325 5.189,-5.189Z" style="fill:#dcbcbc;"/><path d="M598.837,2108.8c0,-4.01 -3.255,-7.265 -7.264,-7.265c-4.01,0 -7.265,3.255 -7.265,7.265c0,4.009 3.255,7.264 7.265,7.264c4.009,0 7.264,-3.255 7.264,-7.264Z" style="fill:#8f2727;"/><path d="M596.762,2108.8c-0,-2.864 -2.325,-5.189 -5.189,-5.189c-2.864,-0 -5.189,2.325 -5.189,5.189c-0,2.864 2.325,5.189 5.189,5.189c2.864,-0 5.189,-2.325 5.189,-5.189Z" style="fill:#dcbcbc;"/><path d="M610.649,2123.57c-0,-4.01 -3.255,-7.265 -7.265,-7.265c-4.009,0 -7.264,3.255 -7.264,7.265c-0,4.009 3.255,7.264 7.264,7.264c4.01,0 7.265,-3.255 7.265,-7.264Z" style="fill:#8f2727;"/><path d="M608.573,2123.57c0,-2.864 -2.325,-5.189 -5.189,-5.189c-2.864,-0 -5.189,2.325 -5.189,5.189c0,2.864 2.325,5.189 5.189,5.189c2.864,-0 5.189,-2.325 5.189,-5.189Z" style="fill:#dcbcbc;"/><path d="M607.696,2138.33c-0,-4.01 -3.255,-7.265 -7.265,-7.265c-4.009,0 -7.264,3.255 -7.264,7.265c-0,4.009 3.255,7.264 7.264,7.264c4.01,0 7.265,-3.255 7.265,-7.264Z" style="fill:#8f2727;"/><path d="M605.62,2138.33c0,-2.864 -2.325,-5.189 -5.189,-5.189c-2.864,-0 -5.189,2.325 -5.189,5.189c0,2.863 2.325,5.189 5.189,5.189c2.864,-0 5.189,-2.326 5.189,-5.189Z" style="fill:#dcbcbc;"/><path d="M601.79,2161.95c0,-4.009 -3.255,-7.264 -7.264,-7.264c-4.01,-0 -7.265,3.255 -7.265,7.264c0,4.009 3.255,7.265 7.265,7.265c4.009,-0 7.264,-3.256 7.264,-7.265Z" style="fill:#8f2727;"/><path d="M599.715,2161.95c-0,-2.864 -2.325,-5.189 -5.189,-5.189c-2.864,0 -5.189,2.325 -5.189,5.189c-0,2.864 2.325,5.189 5.189,5.189c2.864,-0 5.189,-2.325 5.189,-5.189Z" style="fill:#dcbcbc;"/><path d="M594.408,2170.81c0,-4.01 -3.255,-7.265 -7.264,-7.265c-4.01,0 -7.265,3.255 -7.265,7.265c0,4.009 3.255,7.264 7.265,7.264c4.009,0 7.264,-3.255 7.264,-7.264Z" style="fill:#8f2727;"/><path d="M592.333,2170.81c-0,-2.864 -2.325,-5.189 -5.189,-5.189c-2.864,-0 -5.189,2.325 -5.189,5.189c-0,2.863 2.325,5.188 5.189,5.188c2.864,0 5.189,-2.325 5.189,-5.188Z" style="fill:#dcbcbc;"/><path d="M610.649,2173.77c-0,-4.009 -3.255,-7.264 -7.265,-7.264c-4.009,-0 -7.264,3.255 -7.264,7.264c-0,4.01 3.255,7.265 7.264,7.265c4.01,-0 7.265,-3.255 7.265,-7.265Z" style="fill:#8f2727;"/><path d="M608.573,2173.77c0,-2.864 -2.325,-5.189 -5.189,-5.189c-2.864,0 -5.189,2.325 -5.189,5.189c0,2.864 2.325,5.189 5.189,5.189c2.864,0 5.189,-2.325 5.189,-5.189Z" style="fill:#dcbcbc;"/><path d="M595.885,2185.58c-0,-4.009 -3.255,-7.264 -7.265,-7.264c-4.009,-0 -7.264,3.255 -7.264,7.264c-0,4.01 3.255,7.265 7.264,7.265c4.01,0 7.265,-3.255 7.265,-7.265Z" style="fill:#8f2727;"/><path d="M593.809,2185.58c0,-2.863 -2.325,-5.188 -5.189,-5.188c-2.864,-0 -5.189,2.325 -5.189,5.188c0,2.864 2.325,5.189 5.189,5.189c2.864,0 5.189,-2.325 5.189,-5.189Z" style="fill:#dcbcbc;"/><path d="M607.696,2206.25c-0,-4.009 -3.255,-7.265 -7.265,-7.265c-4.009,0 -7.264,3.256 -7.264,7.265c-0,4.009 3.255,7.264 7.264,7.264c4.01,0 7.265,-3.255 7.265,-7.264Z" style="fill:#8f2727;"/><path d="M605.62,2206.25c0,-2.864 -2.325,-5.189 -5.189,-5.189c-2.864,-0 -5.189,2.325 -5.189,5.189c0,2.864 2.325,5.189 5.189,5.189c2.864,-0 5.189,-2.325 5.189,-5.189Z" style="fill:#dcbcbc;"/><path d="M595.885,2223.96c-0,-4.009 -3.255,-7.264 -7.265,-7.264c-4.009,-0 -7.264,3.255 -7.264,7.264c-0,4.01 3.255,7.265 7.264,7.265c4.01,-0 7.265,-3.255 7.265,-7.265Z" style="fill:#8f2727;"/><path d="M593.809,2223.96c0,-2.863 -2.325,-5.188 -5.189,-5.188c-2.864,-0 -5.189,2.325 -5.189,5.188c0,2.864 2.325,5.189 5.189,5.189c2.864,0 5.189,-2.325 5.189,-5.189Z" style="fill:#dcbcbc;"/><path d="M604.743,2229.87c0,-4.009 -3.255,-7.264 -7.264,-7.264c-4.01,-0 -7.265,3.255 -7.265,7.264c0,4.01 3.255,7.265 7.265,7.265c4.009,-0 7.264,-3.255 7.264,-7.265Z" style="fill:#8f2727;"/><path d="M602.668,2229.87c-0,-2.864 -2.325,-5.189 -5.189,-5.189c-2.864,0 -5.189,2.325 -5.189,5.189c-0,2.864 2.325,5.189 5.189,5.189c2.864,0 5.189,-2.325 5.189,-5.189Z" style="fill:#dcbcbc;"/><path d="M601.79,2253.49c0,-4.009 -3.255,-7.264 -7.264,-7.264c-4.01,-0 -7.265,3.255 -7.265,7.264c0,4.01 3.255,7.265 7.265,7.265c4.009,-0 7.264,-3.255 7.264,-7.265Z" style="fill:#8f2727;"/><path d="M599.715,2253.49c-0,-2.864 -2.325,-5.189 -5.189,-5.189c-2.864,0 -5.189,2.325 -5.189,5.189c-0,2.864 2.325,5.189 5.189,5.189c2.864,0 5.189,-2.325 5.189,-5.189Z" style="fill:#dcbcbc;"/><path d="M613.601,2271.21c0,-4.009 -3.255,-7.264 -7.264,-7.264c-4.01,-0 -7.265,3.255 -7.265,7.264c0,4.01 3.255,7.265 7.265,7.265c4.009,-0 7.264,-3.255 7.264,-7.265Z" style="fill:#8f2727;"/><path d="M611.526,2271.21c-0,-2.864 -2.325,-5.189 -5.189,-5.189c-2.864,0 -5.189,2.325 -5.189,5.189c-0,2.864 2.325,5.189 5.189,5.189c2.864,0 5.189,-2.325 5.189,-5.189Z" style="fill:#dcbcbc;"/><path d="M616.554,2280.07c0,-4.01 -3.255,-7.265 -7.264,-7.265c-4.01,0 -7.265,3.255 -7.265,7.265c0,4.009 3.255,7.264 7.265,7.264c4.009,0 7.264,-3.255 7.264,-7.264Z" style="fill:#8f2727;"/><path d="M614.479,2280.07c-0,-2.864 -2.325,-5.189 -5.189,-5.189c-2.864,-0 -5.189,2.325 -5.189,5.189c-0,2.863 2.325,5.189 5.189,5.189c2.864,-0 5.189,-2.326 5.189,-5.189Z" style="fill:#dcbcbc;"/><path d="M610.649,2288.93c-0,-4.009 -3.255,-7.264 -7.265,-7.264c-4.009,-0 -7.264,3.255 -7.264,7.264c-0,4.01 3.255,7.265 7.264,7.265c4.01,-0 7.265,-3.255 7.265,-7.265Z" style="fill:#8f2727;"/><path d="M608.573,2288.93c0,-2.864 -2.325,-5.189 -5.189,-5.189c-2.864,0 -5.189,2.325 -5.189,5.189c0,2.864 2.325,5.189 5.189,5.189c2.864,0 5.189,-2.325 5.189,-5.189Z" style="fill:#dcbcbc;"/><path d="M622.46,2309.6c-0,-4.01 -3.255,-7.265 -7.265,-7.265c-4.009,0 -7.264,3.255 -7.264,7.265c-0,4.009 3.255,7.264 7.264,7.264c4.01,0 7.265,-3.255 7.265,-7.264Z" style="fill:#8f2727;"/><path d="M620.384,2309.6c0,-2.864 -2.325,-5.189 -5.189,-5.189c-2.864,-0 -5.189,2.325 -5.189,5.189c0,2.863 2.325,5.189 5.189,5.189c2.864,-0 5.189,-2.326 5.189,-5.189Z" style="fill:#dcbcbc;"/><path d="M651.988,2315.5c-0,-4.009 -3.256,-7.264 -7.265,-7.264c-4.009,-0 -7.264,3.255 -7.264,7.264c-0,4.01 3.255,7.265 7.264,7.265c4.009,-0 7.265,-3.255 7.265,-7.265Z" style="fill:#8f2727;"/><path d="M649.912,2315.5c-0,-2.864 -2.325,-5.189 -5.189,-5.189c-2.864,0 -5.189,2.325 -5.189,5.189c0,2.864 2.325,5.189 5.189,5.189c2.864,0 5.189,-2.325 5.189,-5.189Z" style="fill:#dcbcbc;"/><path d="M666.752,2327.31c-0,-4.009 -3.256,-7.264 -7.265,-7.264c-4.009,-0 -7.265,3.255 -7.265,7.264c0,4.009 3.256,7.265 7.265,7.265c4.009,-0 7.265,-3.256 7.265,-7.265Z" style="fill:#8f2727;"/><path d="M664.676,2327.31c-0,-2.864 -2.325,-5.189 -5.189,-5.189c-2.864,0 -5.189,2.325 -5.189,5.189c0,2.864 2.325,5.189 5.189,5.189c2.864,-0 5.189,-2.325 5.189,-5.189Z" style="fill:#dcbcbc;"/><path d="M672.657,2315.5c0,-4.009 -3.255,-7.264 -7.264,-7.264c-4.01,-0 -7.265,3.255 -7.265,7.264c0,4.01 3.255,7.265 7.265,7.265c4.009,-0 7.264,-3.255 7.264,-7.265Z" style="fill:#8f2727;"/><path d="M670.581,2315.5c0,-2.864 -2.325,-5.189 -5.188,-5.189c-2.864,0 -5.189,2.325 -5.189,5.189c-0,2.864 2.325,5.189 5.189,5.189c2.863,0 5.188,-2.325 5.188,-5.189Z" style="fill:#dcbcbc;"/></svg>