<?xml version="1.0" encoding="UTF-8" standalone="no"?><!DOCTYPE svg PUBLIC "-//W3C//DTD SVG 1.1//EN" "http://www.w3.org/Graphics/SVG/1.1/DTD/svg11.dtd"><svg width="100%" height="100%" viewBox="0 0 781 810" version="1.1" xmlns="http://www.w3.org/2000/svg" xmlns:xlink="http://www.w3.org/1999/xlink" xml:space="preserve" xmlns:serif="http://www.serif.com/" style="fill-rule:evenodd;clip-rule:evenodd;stroke-miterlimit:3.8;"><rect x="12.279" y="12.279" width="755.5" height="707.375" style="fill:none;stroke:#000;stroke-width:1.25px;"/><rect x="220.029" y="12.404" width="302.25" height="707.25" style="fill:#ededed;"/><g transform="matrix(4.16667,0,0,4.16667,-801.846,-436.358)"><text x="250.32px" y="128.664px" style="font-family:'TimesNewRomanPSMT', 'Times New Roman', serif;font-size:10.5px;">T<tspan x="256.124px 261.497px 266.871px 269.911px 274.695px 279.479px " y="128.664px 128.664px 128.664px 128.664px 128.664px 128.664px ">ypical</tspan></text><text x="250.32px" y="139.974px" style="font-family:'TimesNewRomanPSMT', 'Times New Roman', serif;font-size:10.5px;">Set</text></g><g transform="matrix(4.16667,0,0,4.16667,-801.846,-436.358)"><text x="199.92px" y="246.984px" style="font-family:'Symbol';font-size:10.5px;fill:#dbbdbd;">π</text><text x="205.683px" y="246.984px" style="font-family:'TimesNewRomanPSMT', 'Times New Roman', serif;font-size:10.5px;fill:#dbbdbd;">(q)</text></g><text x="465.529px" y="85.867px" style="font-family:'TimesNewRomanPSMT', 'Times New Roman', serif;font-size:43.75px;fill:#ba7d7d;">dq</text><g transform="matrix(4.16667,0,0,4.16667,-801.846,-436.358)"><text x="313.26px" y="224.364px" style="font-family:'Symbol';font-size:10.5px;fill:#8f2626;">π</text><text x="319.023px" y="224.364px" style="font-family:'TimesNewRomanPSMT', 'Times New Roman', serif;font-size:10.5px;fill:#8f2626;">(q) dq</text></g><g transform="matrix(4.16667,0,0,4.16667,-801.846,-436.358)"><text x="264.529px" y="295.644px" style="font-family:'TimesNewRomanPSMT', 'Times New Roman', serif;font-size:10.5px;">|q - q</text><text x="285.876px" y="298.794px" style="font-family:'TimesNewRomanPSMT', 'Times New Roman', serif;font-size:8.4px;">Mode</text><text x="305.472px" y="295.644px" style="font-family:'TimesNewRomanPSMT', 'Times New Roman', serif;font-size:10.5px;">|</text></g><path d="M19.904,719.654l68.75,0l7.625,-0.125l7.625,0l7.625,-0.125l7.625,-0.25l7.625,-0.375l7.625,-0.5l7.625,-0.875l7.625,-1.25l7.625,-1.875l7.625,-2.375l7.625,-3.375l7.625,-4.375l7.625,-5.5l7.625,-7.125l7.625,-8.5l7.625,-10.375l7.625,-12.25l7.625,-14.25l7.625,-16.25l7.75,-18.25l7.625,-20l7.625,-21.875l7.625,-23.25l7.625,-24.375l7.625,-25.25l15.25,-51l7.625,-24.875l7.625,-23.75l7.625,-22.25l7.625,-20.125l7.625,-17.75l7.625,-15l7.625,-11.875l7.625,-8.5l7.625,-5.125l7.625,-1.625l7.625,1.875l7.625,5.25l7.75,8.375l7.625,11.25l7.625,13.75l7.625,16.125l7.625,18l7.625,19.5l7.625,20.625l7.625,21.25l15.25,43.5l7.625,21.375l7.625,21l7.625,20.125l7.625,19.125l7.625,18.125l7.625,17l7.625,15.625l7.625,14.375l7.625,13l7.625,11.75l7.75,10.5l7.625,9.375l7.625,8.25l7.625,7.125l7.625,6.25l7.625,5.375l7.625,4.625l7.625,3.875l7.625,3.375l7.625,2.75l7.625,2.25l7.625,2l7.625,1.5l7.625,1.375l7.625,1l7.625,0.875l15.25,1.25l15.25,0.75l7.75,0.25l7.625,0.25l22.875,0.375l7.625,0l7.625,0.125l22.875,0" style="fill:none;fill-rule:nonzero;stroke:#8f2626;stroke-width:6.25px;"/><path d="M12.279,719.654l145,0l7.625,-0.125l15.25,0l22.875,-0.375l15.25,-0.5l7.625,-0.375l7.625,-0.5l7.75,-0.75l7.625,-0.875l7.625,-1.125l7.625,-1.5l7.625,-1.875l7.625,-2.375l7.625,-3l7.625,-3.75l7.625,-4.75l7.625,-5.75l7.625,-7l7.625,-8.625l7.625,-10.5l7.625,-12.625l7.625,-15.375l7.625,-18.25l7.625,-21.875l7.625,-26l7.625,-30.875l7.625,-36.5l7.75,-42.875l7.625,-50.375l7.625,-58.875l7.625,-68.75l7.625,-79.875l7.625,-92.625l7,-98.75" style="fill:none;fill-rule:nonzero;stroke:#ba7d7d;stroke-width:6.25px;"/><path d="M12.279,625.529l7.625,0.125l7.625,0l22.875,0.375l22.875,0.75l7.625,0.375l7.75,0.375l15.25,0.75l22.875,1.5l38.125,3.125l22.875,2.25l15.25,1.75l7.625,0.75l7.625,0.875l7.625,1l7.625,0.875l7.75,1l7.625,0.875l15.25,2l7.625,1.125l15.25,2l15.25,2.25l7.625,1l53.375,7.875l7.625,1.25l15.25,2.25l7.75,1.125l7.625,1.125l7.625,1.25l76.25,11.25l7.625,1l7.625,1.125l7.625,1l7.625,1.125l22.875,3l7.75,1l15.25,2l7.625,0.875l7.625,1l15.25,1.75l7.625,1l7.625,0.875l7.625,0.75l15.25,1.75l15.25,1.5l7.625,0.875l15.25,1.5l7.625,0.625l15.25,1.5l7.75,0.625l38.125,3.125l7.625,0.5l7.625,0.625l15.25,1" style="fill:none;fill-rule:nonzero;stroke:#dbbdbd;stroke-width:6.25px;"/><rect x="12.279" y="12.279" width="755.5" height="707.375" style="fill:none;stroke:#000;stroke-width:1.25px;"/></svg>