<?xml version="1.0" encoding="UTF-8" standalone="no"?><!DOCTYPE svg PUBLIC "-//W3C//DTD SVG 1.1//EN" "http://www.w3.org/Graphics/SVG/1.1/DTD/svg11.dtd"><svg width="100%" height="100%" viewBox="0 0 13675 4731" version="1.1" xmlns="http://www.w3.org/2000/svg" xmlns:xlink="http://www.w3.org/1999/xlink" xml:space="preserve" xmlns:serif="http://www.serif.com/" style="fill-rule:evenodd;clip-rule:evenodd;stroke-miterlimit:10;"><text x="1570.86px" y="4685.13px" style="font-family:'LucidaGrande', 'Lucida Grande', sans-serif;font-weight:500;font-size:311.333px;">(<tspan x="1677.73px 1855.29px " y="4685.13px 4685.13px ">a)</tspan></text><text x="6476.45px" y="4685.13px" style="font-family:'LucidaGrande', 'Lucida Grande', sans-serif;font-weight:500;font-size:311.333px;">(<tspan x="6580.2px 6778.66px " y="4685.13px 4685.13px ">b)</tspan></text><text x="11408.7px" y="4685.13px" style="font-family:'LucidaGrande', 'Lucida Grande', sans-serif;font-weight:500;font-size:311.333px;">(<tspan x="11513px 11675.4px " y="4685.13px 4685.13px ">c)</tspan></text><path d="M145.978,2007.39l3383.65,0" style="fill:none;fill-rule:nonzero;stroke:#9a9a9a;stroke-width:27.67px;stroke-dasharray:103.78,103.78;"/><path d="M139.06,1896.69l-0,221.394" style="fill:none;fill-rule:nonzero;stroke:#9a9a9a;stroke-width:27.67px;stroke-linecap:square;"/><path d="M3536.55,2118.09l-0,-221.394" style="fill:none;fill-rule:nonzero;stroke:#9a9a9a;stroke-width:27.67px;stroke-linecap:square;"/><path d="M1287.7,2007.39l1100.21,0" style="fill:none;fill-rule:nonzero;stroke:#000;stroke-width:27.67px;"/><path d="M1280.78,1896.69l0,221.394" style="fill:none;fill-rule:nonzero;stroke:#000;stroke-width:27.67px;stroke-linecap:square;"/><path d="M2394.83,2118.09l-0,-221.394" style="fill:none;fill-rule:nonzero;stroke:#000;stroke-width:27.67px;stroke-linecap:square;"/><path d="M5039.7,3719.97l-0,-3425.16" style="fill:none;fill-rule:nonzero;stroke:#9a9a9a;stroke-width:27.67px;stroke-dasharray:103.78,103.78;"/><path d="M5039.7,3719.97l3425.16,-0" style="fill:none;fill-rule:nonzero;stroke:#9a9a9a;stroke-width:27.67px;stroke-dasharray:103.78,103.78;"/><path d="M6181.42,3719.97l0,-3425.16" style="fill:none;fill-rule:nonzero;stroke:#9a9a9a;stroke-width:27.67px;stroke-dasharray:103.78,103.78;"/><path d="M5039.7,2578.25l3425.16,0" style="fill:none;fill-rule:nonzero;stroke:#9a9a9a;stroke-width:27.67px;stroke-dasharray:103.78,103.78;"/><path d="M7323.14,3719.97l-0,-3425.16" style="fill:none;fill-rule:nonzero;stroke:#9a9a9a;stroke-width:27.67px;stroke-dasharray:103.78,103.78;"/><path d="M5039.7,1436.53l3425.16,-0" style="fill:none;fill-rule:nonzero;stroke:#9a9a9a;stroke-width:27.67px;stroke-dasharray:103.78,103.78;"/><path d="M8464.86,3719.97l0,-3425.16" style="fill:none;fill-rule:nonzero;stroke:#9a9a9a;stroke-width:27.67px;stroke-dasharray:103.78,103.78;"/><path d="M5039.7,294.808l3425.16,0" style="fill:none;fill-rule:nonzero;stroke:#9a9a9a;stroke-width:27.67px;stroke-dasharray:103.78,103.78;"/><path d="M6181.42,2578.25l0,-1141.72l1141.72,-0l-0,1141.72l-1141.72,0" style="fill:none;fill-rule:nonzero;stroke:#000;stroke-width:27.67px;"/><path d="M10628.9,3045.29l0,-2491.06" style="fill:none;fill-rule:nonzero;stroke:#9a9a9a;stroke-width:27.67px;stroke-dasharray:103.78,103.78;"/><path d="M10628.9,3045.29l2491.06,-0" style="fill:none;fill-rule:nonzero;stroke:#9a9a9a;stroke-width:27.67px;stroke-dasharray:103.78,103.78;"/><path d="M11044,2630.12l0,-2491.06" style="fill:none;fill-rule:nonzero;stroke:#9a9a9a;stroke-width:27.67px;stroke-dasharray:103.78,103.78;"/><path d="M11044,2630.12l2491.06,-0" style="fill:none;fill-rule:nonzero;stroke:#9a9a9a;stroke-width:27.67px;stroke-dasharray:103.78,103.78;"/><path d="M11459.2,3045.29l-0,-2491.06" style="fill:none;fill-rule:nonzero;stroke:#9a9a9a;stroke-width:27.67px;stroke-dasharray:103.78,103.78;"/><path d="M10628.9,2214.94l2491.06,-0" style="fill:none;fill-rule:nonzero;stroke:#9a9a9a;stroke-width:27.67px;stroke-dasharray:103.78,103.78;"/><path d="M11874.4,2630.12l-0,-2491.06" style="fill:none;fill-rule:nonzero;stroke:#9a9a9a;stroke-width:27.67px;stroke-dasharray:103.78,103.78;"/><path d="M11044,1799.77l2491.06,-0" style="fill:none;fill-rule:nonzero;stroke:#9a9a9a;stroke-width:27.67px;stroke-dasharray:103.78,103.78;"/><path d="M12289.6,3045.29l-0,-2491.06" style="fill:none;fill-rule:nonzero;stroke:#9a9a9a;stroke-width:27.67px;stroke-dasharray:103.78,103.78;"/><path d="M10628.9,1384.59l2491.06,0" style="fill:none;fill-rule:nonzero;stroke:#9a9a9a;stroke-width:27.67px;stroke-dasharray:103.78,103.78;"/><path d="M12704.7,2630.12l-0,-2491.06" style="fill:none;fill-rule:nonzero;stroke:#9a9a9a;stroke-width:27.67px;stroke-dasharray:103.78,103.78;"/><path d="M11044,969.413l2491.06,0" style="fill:none;fill-rule:nonzero;stroke:#9a9a9a;stroke-width:27.67px;stroke-dasharray:103.78,103.78;"/><path d="M13119.9,3045.29l0,-2491.06" style="fill:none;fill-rule:nonzero;stroke:#9a9a9a;stroke-width:27.67px;stroke-dasharray:103.78,103.78;"/><path d="M10628.9,554.237l2491.06,-0" style="fill:none;fill-rule:nonzero;stroke:#9a9a9a;stroke-width:27.67px;stroke-dasharray:103.78,103.78;"/><path d="M13535.1,2630.12l-0,-2491.06" style="fill:none;fill-rule:nonzero;stroke:#9a9a9a;stroke-width:27.67px;stroke-dasharray:103.78,103.78;"/><path d="M11044,139.06l2491.06,-0" style="fill:none;fill-rule:nonzero;stroke:#9a9a9a;stroke-width:27.67px;stroke-dasharray:103.78,103.78;"/><path d="M9798.5,3875.65l1245.53,-1245.53" style="fill:none;fill-rule:nonzero;stroke:#9a9a9a;stroke-width:27.67px;stroke-dasharray:103.78,103.78;"/><path d="M9798.5,3045.29l1245.53,-1245.53" style="fill:none;fill-rule:nonzero;stroke:#9a9a9a;stroke-width:27.67px;stroke-dasharray:103.78,103.78;"/><path d="M9798.5,2214.94l1245.53,-1245.53" style="fill:none;fill-rule:nonzero;stroke:#9a9a9a;stroke-width:27.67px;stroke-dasharray:103.78,103.78;"/><path d="M9798.5,1384.59l1245.53,-1245.53" style="fill:none;fill-rule:nonzero;stroke:#9a9a9a;stroke-width:27.67px;stroke-dasharray:103.78,103.78;"/><path d="M10628.9,3875.65l1245.53,-1245.53" style="fill:none;fill-rule:nonzero;stroke:#9a9a9a;stroke-width:27.67px;stroke-dasharray:103.78,103.78;"/><path d="M10628.9,3045.29l1245.53,-1245.53" style="fill:none;fill-rule:nonzero;stroke:#9a9a9a;stroke-width:27.67px;stroke-dasharray:103.78,103.78;"/><path d="M10628.9,2214.94l1245.53,-1245.53" style="fill:none;fill-rule:nonzero;stroke:#9a9a9a;stroke-width:27.67px;stroke-dasharray:103.78,103.78;"/><path d="M10628.9,1384.59l1245.53,-1245.53" style="fill:none;fill-rule:nonzero;stroke:#9a9a9a;stroke-width:27.67px;stroke-dasharray:103.78,103.78;"/><path d="M11459.2,3875.65l1245.53,-1245.53" style="fill:none;fill-rule:nonzero;stroke:#9a9a9a;stroke-width:27.67px;stroke-dasharray:103.78,103.78;"/><path d="M11459.2,3045.29l1245.53,-1245.53" style="fill:none;fill-rule:nonzero;stroke:#9a9a9a;stroke-width:27.67px;stroke-dasharray:103.78,103.78;"/><path d="M11459.2,2214.94l1245.53,-1245.53" style="fill:none;fill-rule:nonzero;stroke:#9a9a9a;stroke-width:27.67px;stroke-dasharray:103.78,103.78;"/><path d="M11459.2,1384.59l1245.53,-1245.53" style="fill:none;fill-rule:nonzero;stroke:#9a9a9a;stroke-width:27.67px;stroke-dasharray:103.78,103.78;"/><path d="M12289.6,3875.65l1245.53,-1245.53" style="fill:none;fill-rule:nonzero;stroke:#9a9a9a;stroke-width:27.67px;stroke-dasharray:103.78,103.78;"/><path d="M12289.6,3045.29l1245.53,-1245.53" style="fill:none;fill-rule:nonzero;stroke:#9a9a9a;stroke-width:27.67px;stroke-dasharray:103.78,103.78;"/><path d="M12289.6,2214.94l1245.53,-1245.53" style="fill:none;fill-rule:nonzero;stroke:#9a9a9a;stroke-width:27.67px;stroke-dasharray:103.78,103.78;"/><path d="M12289.6,1384.59l1245.53,-1245.53" style="fill:none;fill-rule:nonzero;stroke:#9a9a9a;stroke-width:27.67px;stroke-dasharray:103.78,103.78;"/><path d="M11459.2,2214.94l-0,-830.352l830.352,0l-0,830.352l-830.352,-0" style="fill:#fff;fill-rule:nonzero;stroke:#000;stroke-width:27.67px;"/><path d="M11874.4,1799.77l415.177,-415.177l-0,830.352l-415.177,415.177l-0,-830.352" style="fill:#fff;fill-rule:nonzero;stroke:#000;stroke-width:27.67px;"/><path d="M11459.2,1384.59l830.352,0l-415.177,415.177l-830.352,-0l415.177,-415.177" style="fill:#fff;fill-rule:nonzero;stroke:#000;stroke-width:27.67px;"/><path d="M10213.7,3460.47l-0,-2491.06" style="fill:none;fill-rule:nonzero;stroke:#9a9a9a;stroke-width:27.67px;stroke-dasharray:103.78,103.78;"/><path d="M10213.7,3460.47l2491.06,-0" style="fill:none;fill-rule:nonzero;stroke:#9a9a9a;stroke-width:27.67px;stroke-dasharray:103.78,103.78;"/><path d="M11044,3460.47l0,-2491.06" style="fill:none;fill-rule:nonzero;stroke:#9a9a9a;stroke-width:27.67px;stroke-dasharray:103.78,103.78;"/><path d="M10213.7,2630.12l2491.06,-0" style="fill:none;fill-rule:nonzero;stroke:#9a9a9a;stroke-width:27.67px;stroke-dasharray:103.78,103.78;"/><path d="M11874.4,3460.47l-0,-2491.06" style="fill:none;fill-rule:nonzero;stroke:#9a9a9a;stroke-width:27.67px;stroke-dasharray:103.78,103.78;"/><path d="M10213.7,1799.77l2491.06,-0" style="fill:none;fill-rule:nonzero;stroke:#9a9a9a;stroke-width:27.67px;stroke-dasharray:103.78,103.78;"/><path d="M12704.7,3460.47l-0,-2491.06" style="fill:none;fill-rule:nonzero;stroke:#9a9a9a;stroke-width:27.67px;stroke-dasharray:103.78,103.78;"/><path d="M10213.7,969.413l2491.06,0" style="fill:none;fill-rule:nonzero;stroke:#9a9a9a;stroke-width:27.67px;stroke-dasharray:103.78,103.78;"/><path d="M11044,2630.12l0,-830.352l830.352,-0l-0,830.352l-830.352,-0" style="fill:#fff;fill-rule:nonzero;stroke:#000;stroke-width:27.67px;"/><path d="M9798.5,3875.65l-0,-2491.06" style="fill:none;fill-rule:nonzero;stroke:#9a9a9a;stroke-width:27.67px;stroke-dasharray:103.78,103.78;"/><path d="M9798.5,3875.65l2491.06,-0" style="fill:none;fill-rule:nonzero;stroke:#9a9a9a;stroke-width:27.67px;stroke-dasharray:103.78,103.78;"/><path d="M10628.9,3875.65l0,-2491.06" style="fill:none;fill-rule:nonzero;stroke:#9a9a9a;stroke-width:27.67px;stroke-dasharray:103.78,103.78;"/><path d="M9798.5,3045.29l2491.06,-0" style="fill:none;fill-rule:nonzero;stroke:#9a9a9a;stroke-width:27.67px;stroke-dasharray:103.78,103.78;"/><path d="M11459.2,3875.65l-0,-2491.06" style="fill:none;fill-rule:nonzero;stroke:#9a9a9a;stroke-width:27.67px;stroke-dasharray:103.78,103.78;"/><path d="M9798.5,2214.94l2491.06,-0" style="fill:none;fill-rule:nonzero;stroke:#9a9a9a;stroke-width:27.67px;stroke-dasharray:103.78,103.78;"/><path d="M12289.6,3875.65l-0,-2491.06" style="fill:none;fill-rule:nonzero;stroke:#9a9a9a;stroke-width:27.67px;stroke-dasharray:103.78,103.78;"/><path d="M9798.5,1384.59l2491.06,0" style="fill:none;fill-rule:nonzero;stroke:#9a9a9a;stroke-width:27.67px;stroke-dasharray:103.78,103.78;"/></svg>