<?xml version="1.0" encoding="UTF-8" standalone="no"?><!DOCTYPE svg PUBLIC "-//W3C//DTD SVG 1.1//EN" "http://www.w3.org/Graphics/SVG/1.1/DTD/svg11.dtd"><svg width="100%" height="100%" viewBox="0 0 1843 889" version="1.1" xmlns="http://www.w3.org/2000/svg" xmlns:xlink="http://www.w3.org/1999/xlink" xml:space="preserve" xmlns:serif="http://www.serif.com/" style="fill-rule:evenodd;clip-rule:evenodd;stroke-linecap:round;stroke-linejoin:round;stroke-miterlimit:1.5;"><g transform="matrix(150,0,0,150,655.811,115.649)"></g><text x="-11.426px" y="115.649px" style="font-family:'LucidaGrande-Bold', 'Lucida Grande', sans-serif;font-weight:600;font-size:150px;">smoking</text><g transform="matrix(150,0,0,150,459.705,857.565)"></g><text x="184.68px" y="857.565px" style="font-family:'LucidaGrande-Bold', 'Lucida Grande', sans-serif;font-weight:600;font-size:150px;">age</text><text x="581.964px" y="509.26px" style="font-family:'LucidaGrande-Bold', 'Lucida Grande', sans-serif;font-weight:600;font-size:148.378px;">HIV</text><g transform="matrix(150,0,0,150,1850.95,489.985)"></g><text x="1358.55px" y="489.985px" style="font-family:'LucidaGrande-Bold', 'Lucida Grande', sans-serif;font-weight:600;font-size:150px;">stroke</text><path d="M901.998,451.616l0,-13.91l360.668,-0l-22.214,-20.866l55.641,27.821l-55.641,27.82l22.214,-20.865l-360.668,-0Z" style="stroke:#000;stroke-width:3.54px;"/><path d="M322.192,147.122l10.228,-9.429l208.35,226.004l0.285,-30.476l17.259,59.767l-58.169,-22.053l30.398,2.19l-208.351,-226.003Z" style="stroke:#000;stroke-width:3.54px;"/><path d="M261.576,742.495l-13.907,-0.299l11.471,-533.38l-21.338,21.76l29.011,-55.03l26.617,56.226l-20.383,-22.657l-11.471,533.38Z" style="stroke:#000;stroke-width:3.54px;"/><path d="M343.648,742.944l-9.455,-10.203l196.472,-182.049l-30.476,-0.207l59.723,-17.41l-21.905,58.224l2.112,-30.403l-196.471,182.048Z" style="stroke:#000;stroke-width:3.54px;"/><path d="M686.826,99.381l5.676,-12.7l609.149,272.27l-11.766,-28.113l39.445,48.103l-62.15,2.694l28.794,-9.984l-609.148,-272.27Z" style="stroke:#000;stroke-width:3.54px;"/><path d="M512.746,785.614l-4.33,-13.22l766.57,-251.05l-27.604,-12.915l61.536,9.121l-44.219,43.756l14.617,-26.742l-766.57,251.05Z" style="stroke:#000;stroke-width:3.54px;"/></svg>