<?xml version="1.0" encoding="UTF-8" standalone="no"?><!DOCTYPE svg PUBLIC "-//W3C//DTD SVG 1.1//EN" "http://www.w3.org/Graphics/SVG/1.1/DTD/svg11.dtd"><svg width="100%" height="100%" viewBox="0 0 1651 589" version="1.1" xmlns="http://www.w3.org/2000/svg" xmlns:xlink="http://www.w3.org/1999/xlink" xml:space="preserve" xmlns:serif="http://www.serif.com/" style="fill-rule:evenodd;clip-rule:evenodd;stroke-linecap:round;stroke-linejoin:round;stroke-miterlimit:1.5;"><g transform="matrix(4.16667,0,0,4.16667,-851.935,-416.224)"><g transform="matrix(22,0,0,22,203.979,116.744)"><path d="M0.03,0.001c0.043,-0 0.09,-0.002 0.145,-0.002c0.047,0 0.107,-0 0.142,0.002c0.005,-0.019 0.007,-0.039 0.006,-0.061c-0.024,-0.009 -0.051,-0.016 -0.081,-0.019c-0.003,-0.026 -0.004,-0.054 -0.004,-0.083l-0,-0.119c0.026,0.003 0.053,0.005 0.077,0.005l0.006,-0l0.13,0.276l0.057,-0c0.043,-0 0.085,-0 0.125,0.002c0.005,-0.018 0.007,-0.04 0.006,-0.062c-0.024,-0.009 -0.052,-0.015 -0.083,-0.019l-0.115,-0.232c0.075,-0.042 0.127,-0.119 0.127,-0.195c-0,-0.086 -0.064,-0.168 -0.201,-0.168c-0.053,0 -0.124,0.005 -0.192,0.005c-0.055,0 -0.102,-0.002 -0.145,-0.002c-0.006,0.02 -0.008,0.041 -0.008,0.061c0.029,0.003 0.058,0.01 0.087,0.019c0.003,0.037 0.005,0.079 0.005,0.138l0,0.296c0,0.026 0,0.054 -0.005,0.078c-0.029,0.009 -0.058,0.016 -0.087,0.019c0,0.02 0.002,0.041 0.008,0.061Zm0.301,-0.59c0.069,-0 0.106,0.052 0.106,0.112c0,0.043 -0.015,0.075 -0.04,0.094c-0.005,0.004 -0.05,0.02 -0.098,0.02c-0.02,0 -0.041,-0.001 -0.061,-0.002l-0,-0.222c0.03,-0.001 0.064,-0.002 0.093,-0.002Z" style="fill-rule:nonzero;"/></g><g transform="matrix(22,0,0,22,217.861,116.744)"><path d="M0.251,0.014c0.07,-0 0.152,-0.039 0.2,-0.076c-0.002,-0.022 -0.008,-0.039 -0.022,-0.051c-0.06,0.024 -0.103,0.035 -0.145,0.035c-0.09,0 -0.123,-0.084 -0.129,-0.157l0.068,-0c0.073,-0 0.151,0.001 0.209,0.002l0.011,-0.01c0.005,-0.014 0.007,-0.035 0.007,-0.058c-0,-0.084 -0.04,-0.191 -0.187,-0.191c-0.134,0 -0.229,0.136 -0.229,0.264c0,0.135 0.065,0.242 0.217,0.242Zm-0.055,-0.408c0.009,-0.01 0.035,-0.017 0.05,-0.017c0.069,-0 0.083,0.051 0.083,0.108c-0.025,0.002 -0.068,0.003 -0.12,0.003l-0.052,0c0.007,-0.041 0.022,-0.072 0.039,-0.094Z" style="fill-rule:nonzero;"/></g><g transform="matrix(22,0,0,22,228.597,116.744)"><path d="M0.205,0.011c0.114,-0 0.201,-0.053 0.201,-0.16c-0,-0.156 -0.241,-0.135 -0.241,-0.224c-0,-0.024 0.003,-0.048 0.076,-0.048c0.021,-0 0.038,0.003 0.051,0.008c0.008,0.024 0.013,0.051 0.016,0.076c0.02,0.007 0.046,0.008 0.071,0.002c0.011,-0.036 0.019,-0.085 0.019,-0.135c-0.043,-0.013 -0.1,-0.019 -0.162,-0.019c-0.086,0 -0.186,0.037 -0.186,0.147c0,0.1 0.093,0.122 0.172,0.155c0.038,0.016 0.064,0.033 0.064,0.066c0,0.041 -0.015,0.057 -0.075,0.057c-0.029,0 -0.063,-0.005 -0.078,-0.012c-0.004,-0.029 -0.008,-0.061 -0.009,-0.091c-0.025,-0.008 -0.046,-0.009 -0.071,0c-0.013,0.05 -0.019,0.1 -0.019,0.15c0.036,0.015 0.098,0.028 0.171,0.028Z" style="fill-rule:nonzero;"/></g><g transform="matrix(22,0,0,22,238.255,116.744)"><path d="M0.251,0.014c0.07,-0 0.152,-0.039 0.2,-0.076c-0.002,-0.022 -0.008,-0.039 -0.022,-0.051c-0.06,0.024 -0.103,0.035 -0.145,0.035c-0.09,0 -0.123,-0.084 -0.129,-0.157l0.068,-0c0.073,-0 0.151,0.001 0.209,0.002l0.011,-0.01c0.005,-0.014 0.007,-0.035 0.007,-0.058c-0,-0.084 -0.04,-0.191 -0.187,-0.191c-0.134,0 -0.229,0.136 -0.229,0.264c0,0.135 0.065,0.242 0.217,0.242Zm-0.055,-0.408c0.009,-0.01 0.035,-0.017 0.05,-0.017c0.069,-0 0.083,0.051 0.083,0.108c-0.025,0.002 -0.068,0.003 -0.12,0.003l-0.052,0c0.007,-0.041 0.022,-0.072 0.039,-0.094Z" style="fill-rule:nonzero;"/></g><g transform="matrix(22,0,0,22,248.991,116.744)"><path d="M0.162,0.014c0.048,-0 0.105,-0.029 0.154,-0.069c0.014,0.041 0.037,0.069 0.06,0.069c0.047,-0 0.1,-0.03 0.134,-0.064c-0,-0.017 -0.008,-0.031 -0.018,-0.04c-0.021,0.005 -0.042,0.01 -0.064,0.013c-0.003,-0.022 -0.004,-0.051 -0.004,-0.073l-0,-0.18c-0,-0.139 -0.106,-0.161 -0.168,-0.161c-0.075,0 -0.148,0.022 -0.203,0.054c0,0.044 0.011,0.085 0.029,0.115c0.026,0.007 0.051,0.002 0.076,-0.01c-0,-0.026 0.001,-0.053 0.008,-0.077c0.022,-0.005 0.046,-0.006 0.068,-0.006c0.053,-0 0.068,0.045 0.07,0.111c-0.117,0.025 -0.273,0.085 -0.273,0.195c0,0.079 0.049,0.123 0.131,0.123Zm-0.007,-0.154c-0,-0.018 0.008,-0.044 0.02,-0.054c0.01,-0.009 0.069,-0.023 0.129,-0.031l0,0.111c-0.027,0.02 -0.059,0.036 -0.082,0.036c-0.045,0 -0.067,-0.029 -0.067,-0.062Z" style="fill-rule:nonzero;"/></g><g transform="matrix(22,0,0,22,260.343,116.744)"><path d="M0.037,0.001c0.038,-0 0.082,-0.002 0.14,-0.002c0.046,0 0.135,0.001 0.171,0.002c0.005,-0.011 0.007,-0.039 0.007,-0.058c-0.026,-0.008 -0.075,-0.015 -0.118,-0.018c-0.002,-0.024 -0.003,-0.048 -0.003,-0.075l-0,-0.171c0.035,-0.057 0.07,-0.075 0.099,-0.075c0.008,-0 0.014,-0 0.021,0.001c0.006,0.026 0.011,0.072 0.014,0.103c0.023,0.009 0.05,0.009 0.075,-0c0.015,-0.055 0.019,-0.111 0.019,-0.183c-0.024,-0.009 -0.053,-0.014 -0.088,-0.014c-0.062,0 -0.108,0.041 -0.14,0.088c-0.005,-0.024 -0.016,-0.065 -0.023,-0.082l-0.012,-0.008c-0.06,0.005 -0.119,0.018 -0.168,0.036c-0.004,0.017 -0.002,0.035 0.004,0.053c0.026,0.003 0.053,0.008 0.079,0.016l0,0.256c0,0.02 -0.001,0.034 -0.004,0.056c-0.02,0.007 -0.052,0.014 -0.08,0.017c0,0.021 0.003,0.048 0.007,0.058Z" style="fill-rule:nonzero;"/></g><g transform="matrix(22,0,0,22,270.705,116.744)"><path d="M0.249,0.014c0.068,-0 0.149,-0.037 0.195,-0.074c-0.002,-0.023 -0.008,-0.039 -0.022,-0.052c-0.059,0.024 -0.098,0.034 -0.139,0.034c-0.098,0 -0.127,-0.105 -0.127,-0.181c-0,-0.052 0.017,-0.102 0.041,-0.129c0.011,-0.011 0.044,-0.016 0.066,-0.016c0.025,-0 0.049,0.002 0.063,0.005c0.004,0.029 0.005,0.057 0.006,0.086c0.022,0.012 0.047,0.012 0.077,0.004c0.017,-0.039 0.024,-0.083 0.026,-0.146c-0.041,-0.019 -0.097,-0.034 -0.168,-0.034c-0.144,0 -0.233,0.136 -0.233,0.258c0,0.137 0.064,0.245 0.215,0.245Z" style="fill-rule:nonzero;"/></g><g transform="matrix(22,0,0,22,280.935,116.744)"><path d="M0.02,0.001c0.038,-0 0.081,-0.002 0.139,-0.002c0.034,0 0.099,0.001 0.125,0.002c0.004,-0.011 0.006,-0.039 0.006,-0.058c-0.017,-0.008 -0.045,-0.015 -0.07,-0.018c-0.002,-0.024 -0.003,-0.048 -0.003,-0.075l-0,-0.236c0.03,-0.011 0.064,-0.018 0.096,-0.018c0.073,-0 0.084,0.05 0.084,0.12l0,0.154c0,0.02 -0.001,0.034 -0.004,0.056c-0.016,0.007 -0.041,0.013 -0.062,0.017c0,0.021 0.002,0.048 0.006,0.058c0.034,-0 0.072,-0.002 0.123,-0.002c0.033,0 0.102,0.001 0.128,0.002c0.005,-0.011 0.007,-0.039 0.007,-0.058c-0.018,-0.008 -0.049,-0.015 -0.075,-0.018c-0.002,-0.024 -0.003,-0.048 -0.003,-0.075l-0,-0.185c-0,-0.109 -0.069,-0.157 -0.149,-0.157c-0.058,0 -0.11,0.017 -0.151,0.04l-0,-0.014c-0,-0.11 0.001,-0.19 0.004,-0.29l-0.011,-0.01c-0.066,0.003 -0.137,0.015 -0.196,0.036c-0.004,0.018 -0.002,0.035 0.004,0.052c0.026,0.003 0.053,0.009 0.079,0.016l0,0.532c0,0.02 -0.001,0.034 -0.004,0.056c-0.02,0.007 -0.052,0.014 -0.08,0.017c0,0.021 0.003,0.048 0.007,0.058Z" style="fill-rule:nonzero;"/></g><g transform="matrix(22,0,0,22,203.979,138.744)"><path d="M0.212,0.011c0.046,-0 0.099,-0.017 0.141,-0.037l0,0.147c0,0.02 -0.001,0.034 -0.004,0.056c-0.026,0.007 -0.071,0.014 -0.108,0.017c-0,0.021 0.003,0.047 0.007,0.057c0.051,-0 0.11,-0.002 0.168,-0.002c0.035,0 0.095,0.001 0.129,0.002c0.004,-0.011 0.006,-0.037 0.006,-0.057c-0.018,-0.008 -0.048,-0.015 -0.075,-0.018c-0.002,-0.024 -0.003,-0.048 -0.003,-0.075l-0,-0.437c-0,-0.046 0.011,-0.092 0.036,-0.13c-0.005,-0.015 -0.017,-0.027 -0.036,-0.032c-0.022,0.008 -0.052,0.03 -0.077,0.054c-0.039,-0.027 -0.095,-0.048 -0.146,-0.048c-0.11,0 -0.216,0.111 -0.216,0.261c0,0.134 0.059,0.242 0.178,0.242Zm-0.056,-0.27c-0,-0.053 0.02,-0.106 0.042,-0.132c0.007,-0.008 0.029,-0.016 0.063,-0.016c0.031,-0 0.064,0.008 0.092,0.017l0,0.294c-0.038,0.01 -0.074,0.015 -0.099,0.015c-0.065,0 -0.098,-0.086 -0.098,-0.178Z" style="fill-rule:nonzero;"/></g><g transform="matrix(22,0,0,22,216.211,138.744)"><path d="M0.237,0.014c0.067,-0 0.116,-0.037 0.157,-0.081c0.012,0.045 0.036,0.081 0.063,0.081c0.046,-0 0.1,-0.03 0.134,-0.064c-0,-0.017 -0.008,-0.031 -0.018,-0.04c-0.021,0.005 -0.042,0.01 -0.064,0.013c-0.003,-0.022 -0.004,-0.051 -0.004,-0.073l-0,-0.052c-0,-0.101 -0,-0.18 0.003,-0.265l-0.011,-0.01l-0.043,0c-0.06,0 -0.098,-0.002 -0.137,-0.002c-0.004,0.013 -0.007,0.036 -0.007,0.058c0.027,0.005 0.051,0.011 0.075,0.021l0,0.259c-0.032,0.03 -0.074,0.062 -0.107,0.062c-0.044,0 -0.067,-0.041 -0.067,-0.122c-0,-0.058 -0,-0.173 0.002,-0.266l-0.01,-0.01l-0.044,0c-0.061,0 -0.1,-0.002 -0.139,-0.002c-0.004,0.013 -0.007,0.036 -0.007,0.058c0.028,0.005 0.054,0.011 0.078,0.021l0,0.25c0,0.11 0.056,0.164 0.146,0.164Z" style="fill-rule:nonzero;"/></g><g transform="matrix(22,0,0,22,229.543,138.744)"><path d="M0.162,0.014c0.048,-0 0.105,-0.029 0.154,-0.069c0.014,0.041 0.037,0.069 0.06,0.069c0.047,-0 0.1,-0.03 0.134,-0.064c-0,-0.017 -0.008,-0.031 -0.018,-0.04c-0.021,0.005 -0.042,0.01 -0.064,0.013c-0.003,-0.022 -0.004,-0.051 -0.004,-0.073l-0,-0.18c-0,-0.139 -0.106,-0.161 -0.168,-0.161c-0.075,0 -0.148,0.022 -0.203,0.054c0,0.044 0.011,0.085 0.029,0.115c0.026,0.007 0.051,0.002 0.076,-0.01c-0,-0.026 0.001,-0.053 0.008,-0.077c0.022,-0.005 0.046,-0.006 0.068,-0.006c0.053,-0 0.068,0.045 0.07,0.111c-0.117,0.025 -0.273,0.085 -0.273,0.195c0,0.079 0.049,0.123 0.131,0.123Zm-0.007,-0.154c-0,-0.018 0.008,-0.044 0.02,-0.054c0.01,-0.009 0.069,-0.023 0.129,-0.031l0,0.111c-0.027,0.02 -0.059,0.036 -0.082,0.036c-0.045,0 -0.067,-0.029 -0.067,-0.062Z" style="fill-rule:nonzero;"/></g><g transform="matrix(22,0,0,22,240.895,138.744)"><path d="M0.02,0.001c0.038,-0 0.081,-0.002 0.137,-0.002c0.037,0 0.105,0.001 0.132,0.002c0.004,-0.011 0.006,-0.039 0.006,-0.058c-0.018,-0.008 -0.048,-0.015 -0.075,-0.018c-0.002,-0.024 -0.003,-0.048 -0.003,-0.075l-0,-0.318c-0,-0.11 0.001,-0.188 0.004,-0.288l-0.011,-0.01c-0.066,0.003 -0.137,0.015 -0.196,0.036c-0.004,0.018 -0.002,0.035 0.004,0.052c0.026,0.003 0.053,0.009 0.079,0.016l0,0.532c0,0.02 -0.001,0.034 -0.004,0.056c-0.02,0.007 -0.052,0.014 -0.08,0.017c0,0.021 0.003,0.048 0.007,0.058Z" style="fill-rule:nonzero;"/></g><g transform="matrix(22,0,0,22,247.781,138.744)"><path d="M0.156,-0.558c0.047,-0 0.084,-0.049 0.084,-0.093c-0,-0.039 -0.037,-0.066 -0.073,-0.066c-0.046,0 -0.083,0.052 -0.083,0.094c0,0.037 0.039,0.065 0.072,0.065Zm-0.119,0.559c0.038,-0 0.081,-0.002 0.139,-0.002c0.035,0 0.103,0.001 0.13,0.002c0.004,-0.011 0.006,-0.039 0.006,-0.058c-0.018,-0.008 -0.048,-0.015 -0.075,-0.018c-0.002,-0.024 -0.003,-0.048 -0.003,-0.075l-0,-0.044c-0,-0.11 0.001,-0.188 0.004,-0.288l-0.011,-0.01c-0.066,0.003 -0.137,0.015 -0.196,0.036c-0.003,0.018 -0.001,0.035 0.004,0.052c0.026,0.003 0.053,0.009 0.079,0.016l0,0.258c0,0.02 -0.001,0.035 -0.004,0.055c-0.02,0.007 -0.052,0.015 -0.08,0.018c0,0.021 0.003,0.048 0.007,0.058Z" style="fill-rule:nonzero;"/></g><g transform="matrix(22,0,0,22,255.129,138.744)"><path d="M0.205,0.014c0.068,-0 0.132,-0.025 0.171,-0.052c0.001,-0.025 -0.006,-0.043 -0.02,-0.057c-0.035,0.013 -0.065,0.02 -0.097,0.02c-0.032,0 -0.047,-0.035 -0.047,-0.105l-0,-0.219l0.154,-0c0.004,-0.026 0.005,-0.051 0.004,-0.079l-0.158,-0.002l-0,-0.132c-0.027,-0.008 -0.049,-0.009 -0.072,-0.007l-0.047,0.137c-0.027,0.002 -0.054,0.007 -0.078,0.014c-0.003,0.018 -0.002,0.038 0.004,0.056c0.025,0.003 0.055,0.008 0.073,0.013l0,0.269c0,0.093 0.034,0.144 0.113,0.144Z" style="fill-rule:nonzero;"/></g><g transform="matrix(22,0,0,22,263.555,138.744)"><path d="M0.147,0.257c0.086,-0 0.148,-0.114 0.202,-0.266l0.144,-0.395c0.021,-0.003 0.043,-0.008 0.061,-0.017c0.002,-0.02 -0,-0.04 -0.005,-0.058c-0.03,0.001 -0.058,0.002 -0.084,0.002c-0.052,-0 -0.093,-0.002 -0.13,-0.002c-0.005,0.014 -0.008,0.038 -0.008,0.058l0.07,0.017l-0.107,0.314l-0.003,-0l-0.001,-0.083l-0.081,-0.23l0.067,-0.018c0.002,-0.02 0.001,-0.04 -0.005,-0.058c-0.065,0 -0.111,0.002 -0.143,0.002c-0.042,-0 -0.078,-0.002 -0.105,-0.002c-0.004,0.014 -0.007,0.038 -0.007,0.058c0.019,0.003 0.046,0.009 0.062,0.017l0.149,0.404l0.039,-0l-0.015,0.038c-0.032,0.085 -0.089,0.132 -0.179,0.132l-0.014,0c-0.015,0.017 -0.022,0.038 -0.02,0.064c0.024,0.013 0.066,0.023 0.113,0.023Z" style="fill-rule:nonzero;"/></g></g><path d="M486.322,563.936c4.033,-0 8.341,-0.172 13.469,-0.172c4.945,-0 11.453,-0.012 15.303,0.172c0.55,-1.739 0.733,-3.568 0.641,-5.581c-2.928,-0.826 -6.322,-1.467 -9.991,-1.741c-0.275,-2.391 -0.367,-4.965 -0.367,-7.631l0,-11.86l17.52,0.459c0.543,-1.884 0.815,-4.636 0.905,-7.113l-0.905,-0.934l-17.52,0.449l0,-19.857l18.069,0c0.734,3.569 1.193,7.412 1.376,11.164c2.105,0.549 4.302,0.549 6.865,0c0.915,-5.49 1.19,-10.981 1.007,-17.937l-0.916,-1.007c-5.675,0.183 -15.027,0.183 -21.54,0.183l-10.538,0c-5.037,0 -9.436,-0.183 -13.378,-0.183c-0.55,1.83 -0.733,3.751 -0.733,5.58c2.658,0.275 5.316,0.915 7.975,1.739c0.275,3.386 0.458,7.23 0.458,12.63l-0,27.146c-0,2.391 -0,4.965 -0.458,7.172c-2.659,0.822 -5.317,1.466 -7.975,1.741c-0,1.828 0.183,3.75 0.733,5.581Z" style="fill-rule:nonzero;"/><path d="M555.612,565.127c6.146,0 10.641,-3.387 14.401,-7.415c1.099,4.12 3.296,7.415 5.769,7.415c4.212,0 9.162,-2.746 12.278,-5.859c0,-1.556 -0.733,-2.838 -1.65,-3.663c-1.925,0.458 -3.85,0.917 -5.866,1.192c-0.275,-2.017 -0.367,-4.676 -0.367,-6.694l0,-4.768c0,-9.261 0,-16.505 0.275,-24.299l-1.007,-0.906l-3.938,0c-5.494,0 -8.979,-0.183 -12.556,-0.183c-0.367,1.18 -0.642,3.289 -0.642,5.307c2.476,0.458 4.678,1.008 6.88,1.925l-0,23.749c-2.936,2.751 -6.789,5.686 -9.816,5.686c-4.036,-0 -6.146,-3.76 -6.146,-11.187c0,-5.319 0,-15.864 0.184,-24.391l-0.916,-0.906l-4.03,0c-5.585,0 -9.16,-0.183 -12.735,-0.183c-0.366,1.18 -0.641,3.289 -0.641,5.307c2.566,0.458 4.95,1.008 7.15,1.925l-0,22.924c-0,10.081 5.128,15.024 13.373,15.024Z" style="fill-rule:nonzero;"/><path d="M592.839,563.936c3.483,-0 7.424,-0.172 12.735,-0.172c3.114,-0 9.072,0.08 11.457,0.172c0.367,-1.007 0.551,-3.568 0.551,-5.306c-1.56,-0.735 -4.128,-1.375 -6.421,-1.65c-0.184,-2.201 -0.276,-4.401 -0.276,-6.877l0,-20.266c2.936,-1.834 5.963,-3.026 8.807,-3.026c6.696,-0 7.705,4.676 7.705,11.004l-0,14.121c-0,1.834 -0.092,3.118 -0.367,5.135c-1.468,0.642 -3.761,1.193 -5.687,1.559c-0,1.921 0.275,4.391 0.55,5.306c3.119,-0 6.603,-0.172 11.273,-0.172c3.022,-0 9.344,0.08 11.728,0.172c0.458,-1.007 0.641,-3.568 0.641,-5.306c-1.65,-0.735 -4.491,-1.375 -6.875,-1.65c-0.183,-2.201 -0.275,-4.401 -0.275,-6.877l0,-16.965c0,-9.989 -6.226,-14.383 -13.648,-14.383c-5.687,0 -10.366,2.289 -14.584,5.584c-0.458,-1.922 -1.007,-3.753 -1.374,-4.76l-1.19,-0.732c-5.403,0.458 -10.809,1.647 -15.3,3.295c-0.367,1.556 -0.184,3.204 0.366,4.852c2.384,0.275 4.859,0.733 7.242,1.467l-0,23.475c-0,1.834 -0.092,3.118 -0.367,5.135c-1.833,0.642 -4.766,1.284 -7.333,1.559c-0,1.921 0.275,4.391 0.642,5.306Z" style="fill-rule:nonzero;"/><path d="M666.164,565.127c5.045,0 9.631,-3.295 13.665,-7.689c1.099,4.211 3.297,7.689 5.861,7.689c4.212,0 9.07,-2.746 12.187,-5.859c0,-1.556 -0.642,-2.838 -1.65,-3.663c-1.833,0.458 -3.758,0.917 -5.867,1.192c-0.183,-2.017 -0.275,-4.677 -0.275,-6.694l0,-29.151c0,-10.084 0.092,-17.237 0.367,-26.408l-0.916,-0.905c-6.41,0.271 -13.191,1.363 -18.786,3.289c-0.367,1.651 -0.183,3.21 0.367,4.769c2.568,0.275 5.32,0.826 7.98,1.467l-0,18.063c-2.935,-1.373 -6.329,-2.197 -9.448,-2.197c-10.179,0 -19.794,10.348 -19.794,23.828c0,12.38 5.403,22.269 16.309,22.269Zm-5.137,-24.836c0,-4.769 1.743,-9.721 3.853,-12.105c0.825,-0.917 3.21,-1.375 5.595,-1.375c3.027,-0 6.054,0.641 8.622,1.559l-0,22.283c-3.577,3.393 -7.246,6.052 -9.723,6.052c-5.32,0 -8.347,-7.978 -8.347,-16.414Z" style="fill-rule:nonzero;"/><path d="M713.283,512.694c4.305,-0 7.694,-4.488 7.694,-8.518c0,-3.573 -3.389,-6.046 -6.686,-6.046c-4.214,0 -7.602,4.763 -7.602,8.61c-0,3.389 3.572,5.954 6.594,5.954Zm-10.903,51.242c3.484,-0 7.425,-0.172 12.736,-0.172c3.205,-0 9.436,0.08 11.911,0.172c0.367,-1.007 0.55,-3.568 0.55,-5.306c-1.65,-0.735 -4.4,-1.375 -6.875,-1.65c-0.183,-2.2 -0.275,-4.401 -0.275,-6.877l0,-4.034c0,-10.087 0.092,-17.239 0.367,-26.408l-1.008,-0.906c-6.044,0.272 -12.547,1.364 -17.956,3.29c-0.275,1.65 -0.091,3.209 0.367,4.768c2.383,0.275 4.858,0.825 7.242,1.467l-0,23.657c-0,1.834 -0.092,3.209 -0.367,5.043c-1.833,0.642 -4.767,1.375 -7.333,1.65c-0,1.919 0.275,4.39 0.641,5.306Z" style="fill-rule:nonzero;"/><path d="M732.997,563.936c3.483,-0 7.425,-0.172 12.736,-0.172c3.113,-0 9.072,0.08 11.457,0.172c0.367,-1.007 0.55,-3.568 0.55,-5.306c-1.559,-0.735 -4.128,-1.375 -6.421,-1.65c-0.183,-2.201 -0.275,-4.401 -0.275,-6.877l-0,-20.266c2.935,-1.834 5.962,-3.026 8.806,-3.026c6.696,-0 7.705,4.676 7.705,11.004l0,14.121c0,1.834 -0.091,3.118 -0.367,5.135c-1.467,0.642 -3.761,1.193 -5.687,1.559c0,1.921 0.275,4.391 0.551,5.306c3.118,-0 6.602,-0.172 11.272,-0.172c3.022,-0 9.345,0.08 11.728,0.172c0.458,-1.007 0.642,-3.568 0.642,-5.306c-1.65,-0.735 -4.492,-1.375 -6.875,-1.65c-0.184,-2.201 -0.275,-4.401 -0.275,-6.877l-0,-16.965c-0,-9.989 -6.227,-14.383 -13.649,-14.383c-5.687,0 -10.365,2.289 -14.584,5.584c-0.458,-1.922 -1.007,-3.753 -1.373,-4.76l-1.191,-0.732c-5.402,0.458 -10.808,1.647 -15.3,3.295c-0.367,1.556 -0.183,3.204 0.367,4.852c2.383,0.275 4.858,0.733 7.241,1.467l0,23.475c0,1.834 -0.091,3.118 -0.366,5.135c-1.834,0.642 -4.767,1.284 -7.334,1.559c0,1.921 0.275,4.391 0.642,5.306Z" style="fill-rule:nonzero;"/><path d="M807.789,551.102c13.845,0 20.163,-8.973 20.163,-17.32c0,-3.577 -1.007,-6.879 -3.205,-9.443c3.572,-1.099 7.422,-2.38 10.172,-3.753c-0.459,-3.114 -1.65,-5.681 -4.217,-7.331c-4.764,2.384 -7.878,4.675 -10.533,7.697c-2.564,-1.189 -5.683,-1.922 -9.627,-1.922c-13.019,0 -19.612,9.157 -19.612,17.412c0,7.705 4.121,12.281 10.622,13.928c-3.107,3.304 -5.03,6.426 -5.03,9.265c-0,1.373 0.183,2.563 1.099,3.662c-4.404,2.564 -9.074,6.692 -9.074,12.471c-0,5.411 4.486,12.643 17.867,12.643c16.141,-0 25.663,-6.591 25.663,-19.064c0,-7.515 -6.409,-12.275 -16.217,-12.275c-3.945,-0 -8.807,-0.092 -9.266,-0.643c-0.275,-0.275 -0.367,-1.01 -0.367,-2.02c0,-1.103 0.367,-2.205 0.917,-3.307l0.645,0Zm1.651,-7.23c-4.861,-0 -8.163,-4.403 -8.163,-9.815c0,-2.843 1.376,-5.687 2.752,-6.879c0.734,-0.459 3.027,-0.917 4.862,-0.917c5.412,-0 8.714,4.677 8.714,8.989c0,3.118 -1.651,6.604 -3.027,7.521c-0.644,0.459 -3.029,1.101 -5.138,1.101Zm-10.73,29.144c0,-2.844 1.193,-5.412 3.21,-7.614c2.11,0.459 5.044,0.734 9.171,0.734c8.071,0 11.098,2.202 11.098,5.779c-0,2.661 -1.101,5.872 -2.11,6.514c-2.751,1.743 -6.695,2.201 -10.822,2.201c-7.979,0 -10.547,-4.036 -10.547,-7.614Z" style="fill-rule:nonzero;"/><g transform="matrix(4.16667,0,0,4.16667,118.351,-409.366)"><g transform="matrix(22,0,0,22,203.979,116.744)"><path d="M0.03,0.001c0.043,-0 0.09,-0.002 0.145,-0.002c0.047,0 0.107,-0 0.142,0.002c0.005,-0.019 0.007,-0.039 0.006,-0.061c-0.024,-0.009 -0.051,-0.016 -0.081,-0.019c-0.003,-0.026 -0.004,-0.054 -0.004,-0.083l-0,-0.119c0.026,0.003 0.053,0.005 0.077,0.005l0.006,-0l0.13,0.276l0.057,-0c0.043,-0 0.085,-0 0.125,0.002c0.005,-0.018 0.007,-0.04 0.006,-0.062c-0.024,-0.009 -0.052,-0.015 -0.083,-0.019l-0.115,-0.232c0.075,-0.042 0.127,-0.119 0.127,-0.195c-0,-0.086 -0.064,-0.168 -0.201,-0.168c-0.053,0 -0.124,0.005 -0.192,0.005c-0.055,0 -0.102,-0.002 -0.145,-0.002c-0.006,0.02 -0.008,0.041 -0.008,0.061c0.029,0.003 0.058,0.01 0.087,0.019c0.003,0.037 0.005,0.079 0.005,0.138l0,0.296c0,0.026 0,0.054 -0.005,0.078c-0.029,0.009 -0.058,0.016 -0.087,0.019c0,0.02 0.002,0.041 0.008,0.061Zm0.301,-0.59c0.069,-0 0.106,0.052 0.106,0.112c0,0.043 -0.015,0.075 -0.04,0.094c-0.005,0.004 -0.05,0.02 -0.098,0.02c-0.02,0 -0.041,-0.001 -0.061,-0.002l-0,-0.222c0.03,-0.001 0.064,-0.002 0.093,-0.002Z" style="fill-rule:nonzero;"/></g><g transform="matrix(22,0,0,22,217.861,116.744)"><path d="M0.251,0.014c0.07,-0 0.152,-0.039 0.2,-0.076c-0.002,-0.022 -0.008,-0.039 -0.022,-0.051c-0.06,0.024 -0.103,0.035 -0.145,0.035c-0.09,0 -0.123,-0.084 -0.129,-0.157l0.068,-0c0.073,-0 0.151,0.001 0.209,0.002l0.011,-0.01c0.005,-0.014 0.007,-0.035 0.007,-0.058c-0,-0.084 -0.04,-0.191 -0.187,-0.191c-0.134,0 -0.229,0.136 -0.229,0.264c0,0.135 0.065,0.242 0.217,0.242Zm-0.055,-0.408c0.009,-0.01 0.035,-0.017 0.05,-0.017c0.069,-0 0.083,0.051 0.083,0.108c-0.025,0.002 -0.068,0.003 -0.12,0.003l-0.052,0c0.007,-0.041 0.022,-0.072 0.039,-0.094Z" style="fill-rule:nonzero;"/></g><g transform="matrix(22,0,0,22,228.597,116.744)"><path d="M0.205,0.011c0.114,-0 0.201,-0.053 0.201,-0.16c-0,-0.156 -0.241,-0.135 -0.241,-0.224c-0,-0.024 0.003,-0.048 0.076,-0.048c0.021,-0 0.038,0.003 0.051,0.008c0.008,0.024 0.013,0.051 0.016,0.076c0.02,0.007 0.046,0.008 0.071,0.002c0.011,-0.036 0.019,-0.085 0.019,-0.135c-0.043,-0.013 -0.1,-0.019 -0.162,-0.019c-0.086,0 -0.186,0.037 -0.186,0.147c0,0.1 0.093,0.122 0.172,0.155c0.038,0.016 0.064,0.033 0.064,0.066c0,0.041 -0.015,0.057 -0.075,0.057c-0.029,0 -0.063,-0.005 -0.078,-0.012c-0.004,-0.029 -0.008,-0.061 -0.009,-0.091c-0.025,-0.008 -0.046,-0.009 -0.071,0c-0.013,0.05 -0.019,0.1 -0.019,0.15c0.036,0.015 0.098,0.028 0.171,0.028Z" style="fill-rule:nonzero;"/></g><g transform="matrix(22,0,0,22,238.255,116.744)"><path d="M0.251,0.014c0.07,-0 0.152,-0.039 0.2,-0.076c-0.002,-0.022 -0.008,-0.039 -0.022,-0.051c-0.06,0.024 -0.103,0.035 -0.145,0.035c-0.09,0 -0.123,-0.084 -0.129,-0.157l0.068,-0c0.073,-0 0.151,0.001 0.209,0.002l0.011,-0.01c0.005,-0.014 0.007,-0.035 0.007,-0.058c-0,-0.084 -0.04,-0.191 -0.187,-0.191c-0.134,0 -0.229,0.136 -0.229,0.264c0,0.135 0.065,0.242 0.217,0.242Zm-0.055,-0.408c0.009,-0.01 0.035,-0.017 0.05,-0.017c0.069,-0 0.083,0.051 0.083,0.108c-0.025,0.002 -0.068,0.003 -0.12,0.003l-0.052,0c0.007,-0.041 0.022,-0.072 0.039,-0.094Z" style="fill-rule:nonzero;"/></g><g transform="matrix(22,0,0,22,248.991,116.744)"><path d="M0.162,0.014c0.048,-0 0.105,-0.029 0.154,-0.069c0.014,0.041 0.037,0.069 0.06,0.069c0.047,-0 0.1,-0.03 0.134,-0.064c-0,-0.017 -0.008,-0.031 -0.018,-0.04c-0.021,0.005 -0.042,0.01 -0.064,0.013c-0.003,-0.022 -0.004,-0.051 -0.004,-0.073l-0,-0.18c-0,-0.139 -0.106,-0.161 -0.168,-0.161c-0.075,0 -0.148,0.022 -0.203,0.054c0,0.044 0.011,0.085 0.029,0.115c0.026,0.007 0.051,0.002 0.076,-0.01c-0,-0.026 0.001,-0.053 0.008,-0.077c0.022,-0.005 0.046,-0.006 0.068,-0.006c0.053,-0 0.068,0.045 0.07,0.111c-0.117,0.025 -0.273,0.085 -0.273,0.195c0,0.079 0.049,0.123 0.131,0.123Zm-0.007,-0.154c-0,-0.018 0.008,-0.044 0.02,-0.054c0.01,-0.009 0.069,-0.023 0.129,-0.031l0,0.111c-0.027,0.02 -0.059,0.036 -0.082,0.036c-0.045,0 -0.067,-0.029 -0.067,-0.062Z" style="fill-rule:nonzero;"/></g><g transform="matrix(22,0,0,22,260.343,116.744)"><path d="M0.037,0.001c0.038,-0 0.082,-0.002 0.14,-0.002c0.046,0 0.135,0.001 0.171,0.002c0.005,-0.011 0.007,-0.039 0.007,-0.058c-0.026,-0.008 -0.075,-0.015 -0.118,-0.018c-0.002,-0.024 -0.003,-0.048 -0.003,-0.075l-0,-0.171c0.035,-0.057 0.07,-0.075 0.099,-0.075c0.008,-0 0.014,-0 0.021,0.001c0.006,0.026 0.011,0.072 0.014,0.103c0.023,0.009 0.05,0.009 0.075,-0c0.015,-0.055 0.019,-0.111 0.019,-0.183c-0.024,-0.009 -0.053,-0.014 -0.088,-0.014c-0.062,0 -0.108,0.041 -0.14,0.088c-0.005,-0.024 -0.016,-0.065 -0.023,-0.082l-0.012,-0.008c-0.06,0.005 -0.119,0.018 -0.168,0.036c-0.004,0.017 -0.002,0.035 0.004,0.053c0.026,0.003 0.053,0.008 0.079,0.016l0,0.256c0,0.02 -0.001,0.034 -0.004,0.056c-0.02,0.007 -0.052,0.014 -0.08,0.017c0,0.021 0.003,0.048 0.007,0.058Z" style="fill-rule:nonzero;"/></g><g transform="matrix(22,0,0,22,270.705,116.744)"><path d="M0.249,0.014c0.068,-0 0.149,-0.037 0.195,-0.074c-0.002,-0.023 -0.008,-0.039 -0.022,-0.052c-0.059,0.024 -0.098,0.034 -0.139,0.034c-0.098,0 -0.127,-0.105 -0.127,-0.181c-0,-0.052 0.017,-0.102 0.041,-0.129c0.011,-0.011 0.044,-0.016 0.066,-0.016c0.025,-0 0.049,0.002 0.063,0.005c0.004,0.029 0.005,0.057 0.006,0.086c0.022,0.012 0.047,0.012 0.077,0.004c0.017,-0.039 0.024,-0.083 0.026,-0.146c-0.041,-0.019 -0.097,-0.034 -0.168,-0.034c-0.144,0 -0.233,0.136 -0.233,0.258c0,0.137 0.064,0.245 0.215,0.245Z" style="fill-rule:nonzero;"/></g><g transform="matrix(22,0,0,22,280.935,116.744)"><path d="M0.02,0.001c0.038,-0 0.081,-0.002 0.139,-0.002c0.034,0 0.099,0.001 0.125,0.002c0.004,-0.011 0.006,-0.039 0.006,-0.058c-0.017,-0.008 -0.045,-0.015 -0.07,-0.018c-0.002,-0.024 -0.003,-0.048 -0.003,-0.075l-0,-0.236c0.03,-0.011 0.064,-0.018 0.096,-0.018c0.073,-0 0.084,0.05 0.084,0.12l0,0.154c0,0.02 -0.001,0.034 -0.004,0.056c-0.016,0.007 -0.041,0.013 -0.062,0.017c0,0.021 0.002,0.048 0.006,0.058c0.034,-0 0.072,-0.002 0.123,-0.002c0.033,0 0.102,0.001 0.128,0.002c0.005,-0.011 0.007,-0.039 0.007,-0.058c-0.018,-0.008 -0.049,-0.015 -0.075,-0.018c-0.002,-0.024 -0.003,-0.048 -0.003,-0.075l-0,-0.185c-0,-0.109 -0.069,-0.157 -0.149,-0.157c-0.058,0 -0.11,0.017 -0.151,0.04l-0,-0.014c-0,-0.11 0.001,-0.19 0.004,-0.29l-0.011,-0.01c-0.066,0.003 -0.137,0.015 -0.196,0.036c-0.004,0.018 -0.002,0.035 0.004,0.052c0.026,0.003 0.053,0.009 0.079,0.016l0,0.532c0,0.02 -0.001,0.034 -0.004,0.056c-0.02,0.007 -0.052,0.014 -0.08,0.017c0,0.021 0.003,0.048 0.007,0.058Z" style="fill-rule:nonzero;"/></g><g transform="matrix(22,0,0,22,203.979,138.744)"><path d="M0.037,0.001c0.038,-0 0.081,-0.002 0.139,-0.002c0.034,0 0.099,0.001 0.125,0.002c0.004,-0.011 0.006,-0.039 0.006,-0.058c-0.017,-0.008 -0.045,-0.015 -0.07,-0.018c-0.002,-0.024 -0.003,-0.048 -0.003,-0.075l-0,-0.221c0.032,-0.02 0.065,-0.033 0.096,-0.033c0.073,-0 0.084,0.051 0.084,0.12l0,0.154c0,0.02 -0.001,0.034 -0.004,0.056c-0.016,0.007 -0.041,0.013 -0.062,0.017c0,0.021 0.003,0.048 0.006,0.058c0.034,-0 0.072,-0.002 0.123,-0.002c0.033,0 0.102,0.001 0.128,0.002c0.005,-0.011 0.007,-0.039 0.007,-0.058c-0.018,-0.008 -0.049,-0.015 -0.075,-0.018c-0.002,-0.024 -0.003,-0.048 -0.003,-0.075l-0,-0.185c-0,-0.109 -0.068,-0.157 -0.149,-0.157c-0.062,0 -0.113,0.025 -0.159,0.061c-0.005,-0.021 -0.011,-0.041 -0.015,-0.052l-0.013,-0.008c-0.059,0.005 -0.118,0.018 -0.167,0.036c-0.004,0.017 -0.002,0.035 0.004,0.053c0.026,0.003 0.053,0.008 0.079,0.016l0,0.256c0,0.02 -0.001,0.034 -0.004,0.056c-0.02,0.007 -0.052,0.014 -0.08,0.017c0,0.021 0.003,0.048 0.007,0.058Z" style="fill-rule:nonzero;"/></g><g transform="matrix(22,0,0,22,217.729,138.744)"><path d="M0.251,0.014c0.07,-0 0.152,-0.039 0.2,-0.076c-0.002,-0.022 -0.008,-0.039 -0.022,-0.051c-0.06,0.024 -0.103,0.035 -0.145,0.035c-0.09,0 -0.123,-0.084 -0.129,-0.157l0.068,-0c0.073,-0 0.151,0.001 0.209,0.002l0.011,-0.01c0.005,-0.014 0.007,-0.035 0.007,-0.058c-0,-0.084 -0.04,-0.191 -0.187,-0.191c-0.134,0 -0.229,0.136 -0.229,0.264c0,0.135 0.065,0.242 0.217,0.242Zm-0.055,-0.408c0.009,-0.01 0.035,-0.017 0.05,-0.017c0.069,-0 0.083,0.051 0.083,0.108c-0.025,0.002 -0.068,0.003 -0.12,0.003l-0.052,0c0.007,-0.041 0.022,-0.072 0.039,-0.094Z" style="fill-rule:nonzero;"/></g><g transform="matrix(22,0,0,22,228.135,138.744)"><path d="M0.205,0.005c0.038,-0 0.096,-0.006 0.132,-0.016l0.091,-0.366l0.003,-0l0.003,0.086l0.069,0.296c0.039,-0 0.098,-0.006 0.134,-0.016l0.125,-0.393c0.021,-0.003 0.043,-0.008 0.061,-0.017c0.002,-0.02 -0,-0.04 -0.006,-0.058c-0.028,0.001 -0.056,0.002 -0.082,0.002c-0.052,-0 -0.091,-0.002 -0.128,-0.002c-0.005,0.014 -0.008,0.038 -0.008,0.058l0.07,0.017l-0.089,0.314l-0.003,-0l-0.002,-0.083l-0.073,-0.31c-0.038,0 -0.105,0.004 -0.141,0.014l-0.093,0.379l-0.003,-0l-0.002,-0.083l-0.066,-0.23l0.069,-0.018c0.002,-0.02 0.001,-0.04 -0.005,-0.058c-0.057,0 -0.101,0.002 -0.14,0.002c-0.039,-0 -0.075,-0.002 -0.102,-0.002c-0.004,0.014 -0.007,0.038 -0.007,0.058c0.018,0.003 0.044,0.01 0.06,0.017l0.133,0.409Z" style="fill-rule:nonzero;"/></g><g transform="matrix(22,0,0,22,246.285,138.744)"><path d="M0.205,0.011c0.114,-0 0.201,-0.053 0.201,-0.16c-0,-0.156 -0.241,-0.135 -0.241,-0.224c-0,-0.024 0.003,-0.048 0.076,-0.048c0.021,-0 0.038,0.003 0.051,0.008c0.008,0.024 0.013,0.051 0.016,0.076c0.02,0.007 0.046,0.008 0.071,0.002c0.011,-0.036 0.019,-0.085 0.019,-0.135c-0.043,-0.013 -0.1,-0.019 -0.162,-0.019c-0.086,0 -0.186,0.037 -0.186,0.147c0,0.1 0.093,0.122 0.172,0.155c0.038,0.016 0.064,0.033 0.064,0.066c0,0.041 -0.015,0.057 -0.075,0.057c-0.029,0 -0.063,-0.005 -0.078,-0.012c-0.004,-0.029 -0.008,-0.061 -0.009,-0.091c-0.025,-0.008 -0.046,-0.009 -0.071,0c-0.013,0.05 -0.019,0.1 -0.019,0.15c0.036,0.015 0.098,0.028 0.171,0.028Z" style="fill-rule:nonzero;"/></g><g transform="matrix(22,0,0,22,255.745,138.744)"><path d="M0.205,0.005c0.038,-0 0.096,-0.006 0.132,-0.016l0.091,-0.366l0.003,-0l0.003,0.086l0.069,0.296c0.039,-0 0.098,-0.006 0.134,-0.016l0.125,-0.393c0.021,-0.003 0.043,-0.008 0.061,-0.017c0.002,-0.02 -0,-0.04 -0.006,-0.058c-0.028,0.001 -0.056,0.002 -0.082,0.002c-0.052,-0 -0.091,-0.002 -0.128,-0.002c-0.005,0.014 -0.008,0.038 -0.008,0.058l0.07,0.017l-0.089,0.314l-0.003,-0l-0.002,-0.083l-0.073,-0.31c-0.038,0 -0.105,0.004 -0.141,0.014l-0.093,0.379l-0.003,-0l-0.002,-0.083l-0.066,-0.23l0.069,-0.018c0.002,-0.02 0.001,-0.04 -0.005,-0.058c-0.057,0 -0.101,0.002 -0.14,0.002c-0.039,-0 -0.075,-0.002 -0.102,-0.002c-0.004,0.014 -0.007,0.038 -0.007,0.058c0.018,0.003 0.044,0.01 0.06,0.017l0.133,0.409Z" style="fill-rule:nonzero;"/></g><g transform="matrix(22,0,0,22,273.477,138.744)"><path d="M0.259,0.014c0.151,-0 0.238,-0.138 0.238,-0.261c-0,-0.14 -0.071,-0.245 -0.225,-0.245c-0.151,0 -0.238,0.138 -0.238,0.261c0,0.142 0.074,0.245 0.225,0.245Zm0.017,-0.085c-0.089,0 -0.12,-0.108 -0.12,-0.186c-0,-0.056 0.018,-0.106 0.042,-0.134c0.009,-0.011 0.039,-0.016 0.057,-0.016c0.089,-0 0.12,0.108 0.12,0.186c0,0.056 -0.018,0.105 -0.042,0.133c-0.009,0.012 -0.039,0.017 -0.057,0.017Z" style="fill-rule:nonzero;"/></g><g transform="matrix(22,0,0,22,285.159,138.744)"><path d="M0.037,0.001c0.038,-0 0.082,-0.002 0.14,-0.002c0.046,0 0.135,0.001 0.171,0.002c0.005,-0.011 0.007,-0.039 0.007,-0.058c-0.026,-0.008 -0.075,-0.015 -0.118,-0.018c-0.002,-0.024 -0.003,-0.048 -0.003,-0.075l-0,-0.171c0.035,-0.057 0.07,-0.075 0.099,-0.075c0.008,-0 0.014,-0 0.021,0.001c0.006,0.026 0.011,0.072 0.014,0.103c0.023,0.009 0.05,0.009 0.075,-0c0.015,-0.055 0.019,-0.111 0.019,-0.183c-0.024,-0.009 -0.053,-0.014 -0.088,-0.014c-0.062,0 -0.108,0.041 -0.14,0.088c-0.005,-0.024 -0.016,-0.065 -0.023,-0.082l-0.012,-0.008c-0.06,0.005 -0.119,0.018 -0.168,0.036c-0.004,0.017 -0.002,0.035 0.004,0.053c0.026,0.003 0.053,0.008 0.079,0.016l0,0.256c0,0.02 -0.001,0.034 -0.004,0.056c-0.02,0.007 -0.052,0.014 -0.08,0.017c0,0.021 0.003,0.048 0.007,0.058Z" style="fill-rule:nonzero;"/></g><g transform="matrix(22,0,0,22,295.521,138.744)"><path d="M0.205,0.014c0.068,-0 0.132,-0.025 0.171,-0.052c0.001,-0.025 -0.006,-0.043 -0.02,-0.057c-0.035,0.013 -0.065,0.02 -0.097,0.02c-0.032,0 -0.047,-0.035 -0.047,-0.105l-0,-0.219l0.154,-0c0.004,-0.026 0.005,-0.051 0.004,-0.079l-0.158,-0.002l-0,-0.132c-0.027,-0.008 -0.049,-0.009 -0.072,-0.007l-0.047,0.137c-0.027,0.002 -0.054,0.007 -0.078,0.014c-0.003,0.018 -0.002,0.038 0.004,0.056c0.025,0.003 0.055,0.008 0.073,0.013l0,0.269c0,0.093 0.034,0.144 0.113,0.144Z" style="fill-rule:nonzero;"/></g><g transform="matrix(22,0,0,22,303.947,138.744)"><path d="M0.02,0.001c0.038,-0 0.081,-0.002 0.139,-0.002c0.034,0 0.099,0.001 0.125,0.002c0.004,-0.011 0.006,-0.039 0.006,-0.058c-0.017,-0.008 -0.045,-0.015 -0.07,-0.018c-0.002,-0.024 -0.003,-0.048 -0.003,-0.075l-0,-0.236c0.03,-0.011 0.064,-0.018 0.096,-0.018c0.073,-0 0.084,0.05 0.084,0.12l0,0.154c0,0.02 -0.001,0.034 -0.004,0.056c-0.016,0.007 -0.041,0.013 -0.062,0.017c0,0.021 0.002,0.048 0.006,0.058c0.034,-0 0.072,-0.002 0.123,-0.002c0.033,0 0.102,0.001 0.128,0.002c0.005,-0.011 0.007,-0.039 0.007,-0.058c-0.018,-0.008 -0.049,-0.015 -0.075,-0.018c-0.002,-0.024 -0.003,-0.048 -0.003,-0.075l-0,-0.185c-0,-0.109 -0.069,-0.157 -0.149,-0.157c-0.058,0 -0.11,0.017 -0.151,0.04l-0,-0.014c-0,-0.11 0.001,-0.19 0.004,-0.29l-0.011,-0.01c-0.066,0.003 -0.137,0.015 -0.196,0.036c-0.004,0.018 -0.002,0.035 0.004,0.052c0.026,0.003 0.053,0.009 0.079,0.016l0,0.532c0,0.02 -0.001,0.034 -0.004,0.056c-0.02,0.007 -0.052,0.014 -0.08,0.017c0,0.021 0.003,0.048 0.007,0.058Z" style="fill-rule:nonzero;"/></g><g transform="matrix(22,0,0,22,317.323,138.744)"><path d="M0.156,-0.558c0.047,-0 0.084,-0.049 0.084,-0.093c-0,-0.039 -0.037,-0.066 -0.073,-0.066c-0.046,0 -0.083,0.052 -0.083,0.094c0,0.037 0.039,0.065 0.072,0.065Zm-0.119,0.559c0.038,-0 0.081,-0.002 0.139,-0.002c0.035,0 0.103,0.001 0.13,0.002c0.004,-0.011 0.006,-0.039 0.006,-0.058c-0.018,-0.008 -0.048,-0.015 -0.075,-0.018c-0.002,-0.024 -0.003,-0.048 -0.003,-0.075l-0,-0.044c-0,-0.11 0.001,-0.188 0.004,-0.288l-0.011,-0.01c-0.066,0.003 -0.137,0.015 -0.196,0.036c-0.003,0.018 -0.001,0.035 0.004,0.052c0.026,0.003 0.053,0.009 0.079,0.016l0,0.258c0,0.02 -0.001,0.035 -0.004,0.055c-0.02,0.007 -0.052,0.015 -0.08,0.018c0,0.021 0.003,0.048 0.007,0.058Z" style="fill-rule:nonzero;"/></g><g transform="matrix(22,0,0,22,324.671,138.744)"><path d="M0.037,0.001c0.038,-0 0.081,-0.002 0.139,-0.002c0.034,0 0.099,0.001 0.125,0.002c0.004,-0.011 0.006,-0.039 0.006,-0.058c-0.017,-0.008 -0.045,-0.015 -0.07,-0.018c-0.002,-0.024 -0.003,-0.048 -0.003,-0.075l-0,-0.221c0.032,-0.02 0.065,-0.033 0.096,-0.033c0.073,-0 0.084,0.051 0.084,0.12l0,0.154c0,0.02 -0.001,0.034 -0.004,0.056c-0.016,0.007 -0.041,0.013 -0.062,0.017c0,0.021 0.003,0.048 0.006,0.058c0.034,-0 0.072,-0.002 0.123,-0.002c0.033,0 0.102,0.001 0.128,0.002c0.005,-0.011 0.007,-0.039 0.007,-0.058c-0.018,-0.008 -0.049,-0.015 -0.075,-0.018c-0.002,-0.024 -0.003,-0.048 -0.003,-0.075l-0,-0.185c-0,-0.109 -0.068,-0.157 -0.149,-0.157c-0.062,0 -0.113,0.025 -0.159,0.061c-0.005,-0.021 -0.011,-0.041 -0.015,-0.052l-0.013,-0.008c-0.059,0.005 -0.118,0.018 -0.167,0.036c-0.004,0.017 -0.002,0.035 0.004,0.053c0.026,0.003 0.053,0.008 0.079,0.016l0,0.256c0,0.02 -0.001,0.034 -0.004,0.056c-0.02,0.007 -0.052,0.014 -0.08,0.017c0,0.021 0.003,0.048 0.007,0.058Z" style="fill-rule:nonzero;"/></g><g transform="matrix(22,0,0,22,338.421,138.744)"><path d="M0.251,0.014c0.07,-0 0.152,-0.039 0.2,-0.076c-0.002,-0.022 -0.008,-0.039 -0.022,-0.051c-0.06,0.024 -0.103,0.035 -0.145,0.035c-0.09,0 -0.123,-0.084 -0.129,-0.157l0.068,-0c0.073,-0 0.151,0.001 0.209,0.002l0.011,-0.01c0.005,-0.014 0.007,-0.035 0.007,-0.058c-0,-0.084 -0.04,-0.191 -0.187,-0.191c-0.134,0 -0.229,0.136 -0.229,0.264c0,0.135 0.065,0.242 0.217,0.242Zm-0.055,-0.408c0.009,-0.01 0.035,-0.017 0.05,-0.017c0.069,-0 0.083,0.051 0.083,0.108c-0.025,0.002 -0.068,0.003 -0.12,0.003l-0.052,0c0.007,-0.041 0.022,-0.072 0.039,-0.094Z" style="fill-rule:nonzero;"/></g><g transform="matrix(22,0,0,22,349.157,138.744)"><path d="M0.205,0.011c0.114,-0 0.201,-0.053 0.201,-0.16c-0,-0.156 -0.241,-0.135 -0.241,-0.224c-0,-0.024 0.003,-0.048 0.076,-0.048c0.021,-0 0.038,0.003 0.051,0.008c0.008,0.024 0.013,0.051 0.016,0.076c0.02,0.007 0.046,0.008 0.071,0.002c0.011,-0.036 0.019,-0.085 0.019,-0.135c-0.043,-0.013 -0.1,-0.019 -0.162,-0.019c-0.086,0 -0.186,0.037 -0.186,0.147c0,0.1 0.093,0.122 0.172,0.155c0.038,0.016 0.064,0.033 0.064,0.066c0,0.041 -0.015,0.057 -0.075,0.057c-0.029,0 -0.063,-0.005 -0.078,-0.012c-0.004,-0.029 -0.008,-0.061 -0.009,-0.091c-0.025,-0.008 -0.046,-0.009 -0.071,0c-0.013,0.05 -0.019,0.1 -0.019,0.15c0.036,0.015 0.098,0.028 0.171,0.028Z" style="fill-rule:nonzero;"/></g><g transform="matrix(22,0,0,22,358.815,138.744)"><path d="M0.205,0.011c0.114,-0 0.201,-0.053 0.201,-0.16c-0,-0.156 -0.241,-0.135 -0.241,-0.224c-0,-0.024 0.003,-0.048 0.076,-0.048c0.021,-0 0.038,0.003 0.051,0.008c0.008,0.024 0.013,0.051 0.016,0.076c0.02,0.007 0.046,0.008 0.071,0.002c0.011,-0.036 0.019,-0.085 0.019,-0.135c-0.043,-0.013 -0.1,-0.019 -0.162,-0.019c-0.086,0 -0.186,0.037 -0.186,0.147c0,0.1 0.093,0.122 0.172,0.155c0.038,0.016 0.064,0.033 0.064,0.066c0,0.041 -0.015,0.057 -0.075,0.057c-0.029,0 -0.063,-0.005 -0.078,-0.012c-0.004,-0.029 -0.008,-0.061 -0.009,-0.091c-0.025,-0.008 -0.046,-0.009 -0.071,0c-0.013,0.05 -0.019,0.1 -0.019,0.15c0.036,0.015 0.098,0.028 0.171,0.028Z" style="fill-rule:nonzero;"/></g></g><path d="M297.435,211.733l12.855,-9.001l154.271,220.322l7.335,-30.563l14.482,75.401l-65.901,-39.397l31.229,3.56l-154.271,-220.322Z" style="stroke:#000;stroke-width:4.17px;"/><path d="M1006.15,202.732l12.855,9.001l-154.271,220.322l31.229,-3.56l-65.901,39.397l14.482,-75.401l7.335,30.563l154.271,-220.322Z" style="stroke:#000;stroke-width:4.17px;"/></svg>