<?xml version="1.0" encoding="UTF-8" standalone="no"?><!DOCTYPE svg PUBLIC "-//W3C//DTD SVG 1.1//EN" "http://www.w3.org/Graphics/SVG/1.1/DTD/svg11.dtd"><svg width="100%" height="100%" viewBox="0 0 1276 576" version="1.1" xmlns="http://www.w3.org/2000/svg" xmlns:xlink="http://www.w3.org/1999/xlink" xml:space="preserve" xmlns:serif="http://www.serif.com/" style="fill-rule:evenodd;clip-rule:evenodd;stroke-linecap:round;stroke-linejoin:round;stroke-miterlimit:1.5;"><path d="M27.128,71.58c8.988,0 17.691,-2.929 22.911,-5.034l-0,-4.305c-0,-5.688 0.091,-10.734 0.366,-13.761c2.384,-0.274 4.675,-0.916 6.6,-1.741c0.092,-2.013 -0.091,-3.843 -0.55,-5.581c-2.566,0.183 -8.523,0.172 -12.643,0.172c-5.587,0 -9.347,-0.172 -13.291,-0.172c-0.641,1.83 -0.825,3.751 -0.825,5.581c3.118,0.277 6.144,0.917 8.987,1.741c0.275,3.394 0.459,7.247 0.459,12.66l-0,1.651c-2.568,0.367 -5.227,0.551 -7.428,0.551c-13.94,-0 -19.809,-11.926 -19.809,-26.494c0,-10.088 4.677,-16.508 6.878,-18.433c1.559,-1.284 6.511,-2.476 11.372,-2.476c3.667,-0 6.785,0.183 9.261,0.55c0.734,3.118 1.009,6.236 1.192,9.721c2.014,0.733 4.303,0.917 6.775,0.55c1.465,-4.852 2.197,-10.168 2.106,-16.677c-4.486,-1.559 -9.706,-2.658 -17.776,-2.658c-21.181,0 -31.713,17.409 -31.713,33.183c0,17.138 9.158,30.972 27.128,30.972Z" style="fill-rule:nonzero;"/><path d="M82.677,71.489c13.845,-0 21.812,-12.641 21.812,-23.92c-0,-12.838 -6.502,-22.452 -20.619,-22.452c-13.845,-0 -21.812,12.64 -21.812,23.919c0,13.022 6.777,22.453 20.619,22.453Zm1.559,-7.781c-8.163,0 -11.006,-9.903 -11.006,-17.056c0,-5.135 1.651,-9.72 3.852,-12.288c0.826,-1.008 3.577,-1.467 5.228,-1.467c8.163,-0 11.007,9.904 11.007,17.056c-0,5.136 -1.651,9.629 -3.853,12.196c-0.825,1.101 -3.577,1.559 -5.228,1.559Z" style="fill-rule:nonzero;"/><path d="M131.352,71.489c13.845,-0 21.812,-12.641 21.812,-23.92c-0,-12.838 -6.502,-22.452 -20.619,-22.452c-13.845,-0 -21.812,12.64 -21.812,23.919c0,13.022 6.777,22.453 20.619,22.453Zm1.559,-7.781c-8.163,0 -11.006,-9.903 -11.006,-17.056c0,-5.135 1.651,-9.72 3.852,-12.288c0.826,-1.008 3.577,-1.467 5.228,-1.467c8.163,-0 11.007,9.904 11.007,17.056c-0,5.136 -1.651,9.629 -3.853,12.196c-0.825,1.101 -3.577,1.559 -5.228,1.559Z" style="fill-rule:nonzero;"/><path d="M175.717,71.489c5.045,-0 9.631,-3.296 13.666,-7.69c1.098,4.211 3.296,7.69 5.86,7.69c4.212,-0 9.071,-2.747 12.187,-5.859c0,-1.556 -0.641,-2.838 -1.65,-3.664c-1.833,0.459 -3.758,0.917 -5.866,1.192c-0.184,-2.017 -0.275,-4.676 -0.275,-6.694l-0,-29.15c-0,-10.085 0.091,-17.238 0.366,-26.409l-0.916,-0.905c-6.41,0.272 -13.191,1.364 -18.786,3.29c-0.367,1.65 -0.183,3.209 0.367,4.768c2.568,0.276 5.32,0.826 7.98,1.468l0,18.062c-2.935,-1.373 -6.329,-2.196 -9.448,-2.196c-10.179,-0 -19.794,10.348 -19.794,23.828c0,12.379 5.403,22.269 16.309,22.269Zm-5.137,-24.837c0,-4.768 1.743,-9.72 3.853,-12.105c0.825,-0.917 3.21,-1.375 5.595,-1.375c3.027,-0 6.054,0.642 8.622,1.559l0,22.283c-3.577,3.393 -7.246,6.053 -9.723,6.053c-5.32,-0 -8.347,-7.978 -8.347,-16.415Z" style="fill-rule:nonzero;"/><path d="M230.542,70.297c3.758,-0 7.424,-0.172 12.735,-0.172c5.862,0 10.812,0.08 15.853,0.172c0.367,-1.006 0.55,-3.567 0.55,-5.305c-2.834,-0.827 -7.33,-1.467 -10.816,-1.65c-0.184,-2.201 -0.275,-4.402 -0.275,-6.878l-0,-22.834l10.734,0c0.275,-2.379 0.367,-4.668 0.367,-7.23l-11.101,-0.183l-0,-1.009c-0,-7.98 1.468,-13.851 2.935,-15.96c0.551,-0.642 2.569,-1.559 5.23,-1.559c1.376,-0 2.936,0.183 4.22,0.458c0.367,2.571 0.551,5.502 0.551,8.067c1.831,0.916 4.12,1.008 6.867,0.366c1.556,-3.847 2.288,-8.25 2.38,-13.559c-3.571,-1.648 -7.874,-3.021 -13.284,-3.021c-11.463,-0 -19.888,10.073 -19.888,25.391l0,0.642c-2.2,0.184 -4.858,0.641 -7.058,1.282c-0.275,1.647 -0.184,3.478 0.366,5.125c2.292,0.275 5.042,0.733 6.692,1.099l0,24.759c0,1.834 -0.092,3.117 -0.367,5.135c-1.833,0.642 -4.766,1.284 -7.333,1.559c-0,1.919 0.275,4.39 0.642,5.305Z" style="fill-rule:nonzero;"/><path d="M285.811,71.489c13.844,-0 21.811,-12.641 21.811,-23.92c-0,-12.838 -6.502,-22.452 -20.619,-22.452c-13.844,-0 -21.811,12.64 -21.811,23.919c-0,13.022 6.776,22.453 20.619,22.453Zm1.559,-7.781c-8.163,0 -11.006,-9.903 -11.006,-17.056c-0,-5.135 1.65,-9.72 3.852,-12.288c0.825,-1.008 3.577,-1.467 5.228,-1.467c8.163,-0 11.006,9.904 11.006,17.056c0,5.136 -1.651,9.629 -3.852,12.196c-0.826,1.101 -3.577,1.559 -5.228,1.559Z" style="fill-rule:nonzero;"/><path d="M334.486,71.489c13.844,-0 21.811,-12.641 21.811,-23.92c-0,-12.838 -6.502,-22.452 -20.619,-22.452c-13.844,-0 -21.811,12.64 -21.811,23.919c-0,13.022 6.776,22.453 20.619,22.453Zm1.559,-7.781c-8.163,0 -11.006,-9.903 -11.006,-17.056c-0,-5.135 1.65,-9.72 3.852,-12.288c0.825,-1.008 3.577,-1.467 5.228,-1.467c8.163,-0 11.006,9.904 11.006,17.056c0,5.136 -1.651,9.629 -3.852,12.196c-0.826,1.101 -3.577,1.559 -5.228,1.559Z" style="fill-rule:nonzero;"/><path d="M378.85,71.489c5.045,-0 9.631,-3.296 13.666,-7.69c1.099,4.211 3.296,7.69 5.86,7.69c4.213,-0 9.071,-2.747 12.188,-5.859c-0,-1.556 -0.642,-2.838 -1.65,-3.664c-1.834,0.459 -3.759,0.917 -5.867,1.192c-0.183,-2.017 -0.275,-4.676 -0.275,-6.694l-0,-29.15c-0,-10.085 0.092,-17.238 0.367,-26.409l-0.917,-0.905c-6.41,0.272 -13.19,1.364 -18.786,3.29c-0.366,1.65 -0.183,3.209 0.367,4.768c2.569,0.276 5.32,0.826 7.98,1.468l0,18.062c-2.935,-1.373 -6.329,-2.196 -9.447,-2.196c-10.179,-0 -19.794,10.348 -19.794,23.828c-0,12.379 5.402,22.269 16.308,22.269Zm-5.136,-24.837c-0,-4.768 1.742,-9.72 3.852,-12.105c0.826,-0.917 3.21,-1.375 5.595,-1.375c3.027,-0 6.054,0.642 8.622,1.559l0,22.283c-3.577,3.393 -7.246,6.053 -9.722,6.053c-5.321,-0 -8.347,-7.978 -8.347,-16.415Z" style="fill-rule:nonzero;"/><g transform="matrix(4.16667,0,0,4.16667,-943.492,-3.57167)"><g transform="matrix(22,0,0,22,307.581,116.744)"><path d="M0.03,0.001c0.043,-0 0.09,-0.002 0.145,-0.002c0.047,0 0.107,-0 0.142,0.002c0.005,-0.019 0.007,-0.039 0.006,-0.061c-0.024,-0.009 -0.051,-0.016 -0.081,-0.019c-0.003,-0.026 -0.004,-0.054 -0.004,-0.083l-0,-0.119c0.026,0.003 0.053,0.005 0.077,0.005l0.006,-0l0.13,0.276l0.057,-0c0.043,-0 0.085,-0 0.125,0.002c0.005,-0.018 0.007,-0.04 0.006,-0.062c-0.024,-0.009 -0.052,-0.015 -0.083,-0.019l-0.115,-0.232c0.075,-0.042 0.127,-0.119 0.127,-0.195c-0,-0.086 -0.064,-0.168 -0.201,-0.168c-0.053,0 -0.124,0.005 -0.192,0.005c-0.055,0 -0.102,-0.002 -0.145,-0.002c-0.006,0.02 -0.008,0.041 -0.008,0.061c0.029,0.003 0.058,0.01 0.087,0.019c0.003,0.037 0.005,0.079 0.005,0.138l0,0.296c0,0.026 0,0.054 -0.005,0.078c-0.029,0.009 -0.058,0.016 -0.087,0.019c0,0.02 0.002,0.041 0.008,0.061Zm0.301,-0.59c0.069,-0 0.106,0.052 0.106,0.112c0,0.043 -0.015,0.075 -0.04,0.094c-0.005,0.004 -0.05,0.02 -0.098,0.02c-0.02,0 -0.041,-0.001 -0.061,-0.002l-0,-0.222c0.03,-0.001 0.064,-0.002 0.093,-0.002Z" style="fill-rule:nonzero;"/></g><g transform="matrix(22,0,0,22,321.463,116.744)"><path d="M0.251,0.014c0.07,-0 0.152,-0.039 0.2,-0.076c-0.002,-0.022 -0.008,-0.039 -0.022,-0.051c-0.06,0.024 -0.103,0.035 -0.145,0.035c-0.09,0 -0.123,-0.084 -0.129,-0.157l0.068,-0c0.073,-0 0.151,0.001 0.209,0.002l0.011,-0.01c0.005,-0.014 0.007,-0.035 0.007,-0.058c-0,-0.084 -0.04,-0.191 -0.187,-0.191c-0.134,0 -0.229,0.136 -0.229,0.264c0,0.135 0.065,0.242 0.217,0.242Zm-0.055,-0.408c0.009,-0.01 0.035,-0.017 0.05,-0.017c0.069,-0 0.083,0.051 0.083,0.108c-0.025,0.002 -0.068,0.003 -0.12,0.003l-0.052,0c0.007,-0.041 0.022,-0.072 0.039,-0.094Z" style="fill-rule:nonzero;"/></g><g transform="matrix(22,0,0,22,332.199,116.744)"><path d="M0.205,0.011c0.114,-0 0.201,-0.053 0.201,-0.16c-0,-0.156 -0.241,-0.135 -0.241,-0.224c-0,-0.024 0.003,-0.048 0.076,-0.048c0.021,-0 0.038,0.003 0.051,0.008c0.008,0.024 0.013,0.051 0.016,0.076c0.02,0.007 0.046,0.008 0.071,0.002c0.011,-0.036 0.019,-0.085 0.019,-0.135c-0.043,-0.013 -0.1,-0.019 -0.162,-0.019c-0.086,0 -0.186,0.037 -0.186,0.147c0,0.1 0.093,0.122 0.172,0.155c0.038,0.016 0.064,0.033 0.064,0.066c0,0.041 -0.015,0.057 -0.075,0.057c-0.029,0 -0.063,-0.005 -0.078,-0.012c-0.004,-0.029 -0.008,-0.061 -0.009,-0.091c-0.025,-0.008 -0.046,-0.009 -0.071,0c-0.013,0.05 -0.019,0.1 -0.019,0.15c0.036,0.015 0.098,0.028 0.171,0.028Z" style="fill-rule:nonzero;"/></g><g transform="matrix(22,0,0,22,341.857,116.744)"><path d="M0.205,0.014c0.068,-0 0.132,-0.025 0.171,-0.052c0.001,-0.025 -0.006,-0.043 -0.02,-0.057c-0.035,0.013 -0.065,0.02 -0.097,0.02c-0.032,0 -0.047,-0.035 -0.047,-0.105l-0,-0.219l0.154,-0c0.004,-0.026 0.005,-0.051 0.004,-0.079l-0.158,-0.002l-0,-0.132c-0.027,-0.008 -0.049,-0.009 -0.072,-0.007l-0.047,0.137c-0.027,0.002 -0.054,0.007 -0.078,0.014c-0.003,0.018 -0.002,0.038 0.004,0.056c0.025,0.003 0.055,0.008 0.073,0.013l0,0.269c0,0.093 0.034,0.144 0.113,0.144Z" style="fill-rule:nonzero;"/></g><g transform="matrix(22,0,0,22,350.283,116.744)"><path d="M0.162,0.014c0.048,-0 0.105,-0.029 0.154,-0.069c0.014,0.041 0.037,0.069 0.06,0.069c0.047,-0 0.1,-0.03 0.134,-0.064c-0,-0.017 -0.008,-0.031 -0.018,-0.04c-0.021,0.005 -0.042,0.01 -0.064,0.013c-0.003,-0.022 -0.004,-0.051 -0.004,-0.073l-0,-0.18c-0,-0.139 -0.106,-0.161 -0.168,-0.161c-0.075,0 -0.148,0.022 -0.203,0.054c0,0.044 0.011,0.085 0.029,0.115c0.026,0.007 0.051,0.002 0.076,-0.01c-0,-0.026 0.001,-0.053 0.008,-0.077c0.022,-0.005 0.046,-0.006 0.068,-0.006c0.053,-0 0.068,0.045 0.07,0.111c-0.117,0.025 -0.273,0.085 -0.273,0.195c0,0.079 0.049,0.123 0.131,0.123Zm-0.007,-0.154c-0,-0.018 0.008,-0.044 0.02,-0.054c0.01,-0.009 0.069,-0.023 0.129,-0.031l0,0.111c-0.027,0.02 -0.059,0.036 -0.082,0.036c-0.045,0 -0.067,-0.029 -0.067,-0.062Z" style="fill-rule:nonzero;"/></g><g transform="matrix(22,0,0,22,361.635,116.744)"><path d="M0.237,0.014c0.067,-0 0.116,-0.037 0.157,-0.081c0.012,0.045 0.036,0.081 0.063,0.081c0.046,-0 0.1,-0.03 0.134,-0.064c-0,-0.017 -0.008,-0.031 -0.018,-0.04c-0.021,0.005 -0.042,0.01 -0.064,0.013c-0.003,-0.022 -0.004,-0.051 -0.004,-0.073l-0,-0.052c-0,-0.101 -0,-0.18 0.003,-0.265l-0.011,-0.01l-0.043,0c-0.06,0 -0.098,-0.002 -0.137,-0.002c-0.004,0.013 -0.007,0.036 -0.007,0.058c0.027,0.005 0.051,0.011 0.075,0.021l0,0.259c-0.032,0.03 -0.074,0.062 -0.107,0.062c-0.044,0 -0.067,-0.041 -0.067,-0.122c-0,-0.058 -0,-0.173 0.002,-0.266l-0.01,-0.01l-0.044,0c-0.061,0 -0.1,-0.002 -0.139,-0.002c-0.004,0.013 -0.007,0.036 -0.007,0.058c0.028,0.005 0.054,0.011 0.078,0.021l0,0.25c0,0.11 0.056,0.164 0.146,0.164Z" style="fill-rule:nonzero;"/></g><g transform="matrix(22,0,0,22,374.967,116.744)"><path d="M0.037,0.001c0.038,-0 0.082,-0.002 0.14,-0.002c0.046,0 0.135,0.001 0.171,0.002c0.005,-0.011 0.007,-0.039 0.007,-0.058c-0.026,-0.008 -0.075,-0.015 -0.118,-0.018c-0.002,-0.024 -0.003,-0.048 -0.003,-0.075l-0,-0.171c0.035,-0.057 0.07,-0.075 0.099,-0.075c0.008,-0 0.014,-0 0.021,0.001c0.006,0.026 0.011,0.072 0.014,0.103c0.023,0.009 0.05,0.009 0.075,-0c0.015,-0.055 0.019,-0.111 0.019,-0.183c-0.024,-0.009 -0.053,-0.014 -0.088,-0.014c-0.062,0 -0.108,0.041 -0.14,0.088c-0.005,-0.024 -0.016,-0.065 -0.023,-0.082l-0.012,-0.008c-0.06,0.005 -0.119,0.018 -0.168,0.036c-0.004,0.017 -0.002,0.035 0.004,0.053c0.026,0.003 0.053,0.008 0.079,0.016l0,0.256c0,0.02 -0.001,0.034 -0.004,0.056c-0.02,0.007 -0.052,0.014 -0.08,0.017c0,0.021 0.003,0.048 0.007,0.058Z" style="fill-rule:nonzero;"/></g><g transform="matrix(22,0,0,22,385.329,116.744)"><path d="M0.162,0.014c0.048,-0 0.105,-0.029 0.154,-0.069c0.014,0.041 0.037,0.069 0.06,0.069c0.047,-0 0.1,-0.03 0.134,-0.064c-0,-0.017 -0.008,-0.031 -0.018,-0.04c-0.021,0.005 -0.042,0.01 -0.064,0.013c-0.003,-0.022 -0.004,-0.051 -0.004,-0.073l-0,-0.18c-0,-0.139 -0.106,-0.161 -0.168,-0.161c-0.075,0 -0.148,0.022 -0.203,0.054c0,0.044 0.011,0.085 0.029,0.115c0.026,0.007 0.051,0.002 0.076,-0.01c-0,-0.026 0.001,-0.053 0.008,-0.077c0.022,-0.005 0.046,-0.006 0.068,-0.006c0.053,-0 0.068,0.045 0.07,0.111c-0.117,0.025 -0.273,0.085 -0.273,0.195c0,0.079 0.049,0.123 0.131,0.123Zm-0.007,-0.154c-0,-0.018 0.008,-0.044 0.02,-0.054c0.01,-0.009 0.069,-0.023 0.129,-0.031l0,0.111c-0.027,0.02 -0.059,0.036 -0.082,0.036c-0.045,0 -0.067,-0.029 -0.067,-0.062Z" style="fill-rule:nonzero;"/></g><g transform="matrix(22,0,0,22,396.681,116.744)"><path d="M0.037,0.001c0.038,-0 0.081,-0.002 0.139,-0.002c0.034,0 0.099,0.001 0.125,0.002c0.004,-0.011 0.006,-0.039 0.006,-0.058c-0.017,-0.008 -0.045,-0.015 -0.07,-0.018c-0.002,-0.024 -0.003,-0.048 -0.003,-0.075l-0,-0.221c0.032,-0.02 0.065,-0.033 0.096,-0.033c0.073,-0 0.084,0.051 0.084,0.12l0,0.154c0,0.02 -0.001,0.034 -0.004,0.056c-0.016,0.007 -0.041,0.013 -0.062,0.017c0,0.021 0.003,0.048 0.006,0.058c0.034,-0 0.072,-0.002 0.123,-0.002c0.033,0 0.102,0.001 0.128,0.002c0.005,-0.011 0.007,-0.039 0.007,-0.058c-0.018,-0.008 -0.049,-0.015 -0.075,-0.018c-0.002,-0.024 -0.003,-0.048 -0.003,-0.075l-0,-0.185c-0,-0.109 -0.068,-0.157 -0.149,-0.157c-0.062,0 -0.113,0.025 -0.159,0.061c-0.005,-0.021 -0.011,-0.041 -0.015,-0.052l-0.013,-0.008c-0.059,0.005 -0.118,0.018 -0.167,0.036c-0.004,0.017 -0.002,0.035 0.004,0.053c0.026,0.003 0.053,0.008 0.079,0.016l0,0.256c0,0.02 -0.001,0.034 -0.004,0.056c-0.02,0.007 -0.052,0.014 -0.08,0.017c0,0.021 0.003,0.048 0.007,0.058Z" style="fill-rule:nonzero;"/></g><g transform="matrix(22,0,0,22,410.431,116.744)"><path d="M0.205,0.014c0.068,-0 0.132,-0.025 0.171,-0.052c0.001,-0.025 -0.006,-0.043 -0.02,-0.057c-0.035,0.013 -0.065,0.02 -0.097,0.02c-0.032,0 -0.047,-0.035 -0.047,-0.105l-0,-0.219l0.154,-0c0.004,-0.026 0.005,-0.051 0.004,-0.079l-0.158,-0.002l-0,-0.132c-0.027,-0.008 -0.049,-0.009 -0.072,-0.007l-0.047,0.137c-0.027,0.002 -0.054,0.007 -0.078,0.014c-0.003,0.018 -0.002,0.038 0.004,0.056c0.025,0.003 0.055,0.008 0.073,0.013l0,0.269c0,0.093 0.034,0.144 0.113,0.144Z" style="fill-rule:nonzero;"/></g><g transform="matrix(22,0,0,22,333.992,138.744)"><path d="M0.251,0.014c0.07,-0 0.152,-0.039 0.2,-0.076c-0.002,-0.022 -0.008,-0.039 -0.022,-0.051c-0.06,0.024 -0.103,0.035 -0.145,0.035c-0.09,0 -0.123,-0.084 -0.129,-0.157l0.068,-0c0.073,-0 0.151,0.001 0.209,0.002l0.011,-0.01c0.005,-0.014 0.007,-0.035 0.007,-0.058c-0,-0.084 -0.04,-0.191 -0.187,-0.191c-0.134,0 -0.229,0.136 -0.229,0.264c0,0.135 0.065,0.242 0.217,0.242Zm-0.055,-0.408c0.009,-0.01 0.035,-0.017 0.05,-0.017c0.069,-0 0.083,0.051 0.083,0.108c-0.025,0.002 -0.068,0.003 -0.12,0.003l-0.052,0c0.007,-0.041 0.022,-0.072 0.039,-0.094Z" style="fill-rule:nonzero;"/></g><g transform="matrix(22,0,0,22,344.618,138.744)"><path d="M0.017,0.001c0.028,-0 0.07,-0.002 0.108,-0.002c0.022,0 0.062,0.001 0.113,0.002c0.005,-0.016 0.006,-0.038 0.005,-0.058l-0.062,-0.017l0.083,-0.115l0.092,0.115l-0.055,0.017c-0,0.02 0.003,0.044 0.008,0.058c0.035,-0 0.083,-0.002 0.154,-0.002c0.035,0 0.067,0.001 0.098,0.002c0.006,-0.018 0.008,-0.038 0.006,-0.058c-0.02,-0.009 -0.045,-0.014 -0.069,-0.017l-0.134,-0.167l0.123,-0.163c0.022,-0.003 0.045,-0.008 0.064,-0.017c0.002,-0.02 -0,-0.04 -0.006,-0.058c-0.025,0.001 -0.051,0.002 -0.079,0.002c-0.053,-0 -0.09,-0.002 -0.122,-0.002c-0.005,0.014 -0.008,0.038 -0.008,0.058l0.053,0.017l-0.074,0.102l-0.082,-0.104l0.048,-0.015c0.002,-0.02 0.001,-0.04 -0.005,-0.058c-0.07,0.001 -0.103,0.002 -0.135,0.002c-0.041,-0 -0.084,-0.002 -0.112,-0.002c-0.004,0.014 -0.007,0.038 -0.007,0.058c0.02,0.003 0.055,0.01 0.071,0.017l0.122,0.153l-0.133,0.177c-0.018,0.007 -0.049,0.014 -0.072,0.017c0,0.02 0.003,0.044 0.007,0.058Z" style="fill-rule:nonzero;"/></g><g transform="matrix(22,0,0,22,357.356,138.744)"><path d="M0.156,-0.558c0.047,-0 0.084,-0.049 0.084,-0.093c-0,-0.039 -0.037,-0.066 -0.073,-0.066c-0.046,0 -0.083,0.052 -0.083,0.094c0,0.037 0.039,0.065 0.072,0.065Zm-0.119,0.559c0.038,-0 0.081,-0.002 0.139,-0.002c0.035,0 0.103,0.001 0.13,0.002c0.004,-0.011 0.006,-0.039 0.006,-0.058c-0.018,-0.008 -0.048,-0.015 -0.075,-0.018c-0.002,-0.024 -0.003,-0.048 -0.003,-0.075l-0,-0.044c-0,-0.11 0.001,-0.188 0.004,-0.288l-0.011,-0.01c-0.066,0.003 -0.137,0.015 -0.196,0.036c-0.003,0.018 -0.001,0.035 0.004,0.052c0.026,0.003 0.053,0.009 0.079,0.016l0,0.258c0,0.02 -0.001,0.035 -0.004,0.055c-0.02,0.007 -0.052,0.015 -0.08,0.018c0,0.021 0.003,0.048 0.007,0.058Z" style="fill-rule:nonzero;"/></g><g transform="matrix(22,0,0,22,364.704,138.744)"><path d="M0.205,0.011c0.114,-0 0.201,-0.053 0.201,-0.16c-0,-0.156 -0.241,-0.135 -0.241,-0.224c-0,-0.024 0.003,-0.048 0.076,-0.048c0.021,-0 0.038,0.003 0.051,0.008c0.008,0.024 0.013,0.051 0.016,0.076c0.02,0.007 0.046,0.008 0.071,0.002c0.011,-0.036 0.019,-0.085 0.019,-0.135c-0.043,-0.013 -0.1,-0.019 -0.162,-0.019c-0.086,0 -0.186,0.037 -0.186,0.147c0,0.1 0.093,0.122 0.172,0.155c0.038,0.016 0.064,0.033 0.064,0.066c0,0.041 -0.015,0.057 -0.075,0.057c-0.029,0 -0.063,-0.005 -0.078,-0.012c-0.004,-0.029 -0.008,-0.061 -0.009,-0.091c-0.025,-0.008 -0.046,-0.009 -0.071,0c-0.013,0.05 -0.019,0.1 -0.019,0.15c0.036,0.015 0.098,0.028 0.171,0.028Z" style="fill-rule:nonzero;"/></g><g transform="matrix(22,0,0,22,374.362,138.744)"><path d="M0.205,0.014c0.068,-0 0.132,-0.025 0.171,-0.052c0.001,-0.025 -0.006,-0.043 -0.02,-0.057c-0.035,0.013 -0.065,0.02 -0.097,0.02c-0.032,0 -0.047,-0.035 -0.047,-0.105l-0,-0.219l0.154,-0c0.004,-0.026 0.005,-0.051 0.004,-0.079l-0.158,-0.002l-0,-0.132c-0.027,-0.008 -0.049,-0.009 -0.072,-0.007l-0.047,0.137c-0.027,0.002 -0.054,0.007 -0.078,0.014c-0.003,0.018 -0.002,0.038 0.004,0.056c0.025,0.003 0.055,0.008 0.073,0.013l0,0.269c0,0.093 0.034,0.144 0.113,0.144Z" style="fill-rule:nonzero;"/></g><g transform="matrix(22,0,0,22,382.788,138.744)"><path d="M0.205,0.011c0.114,-0 0.201,-0.053 0.201,-0.16c-0,-0.156 -0.241,-0.135 -0.241,-0.224c-0,-0.024 0.003,-0.048 0.076,-0.048c0.021,-0 0.038,0.003 0.051,0.008c0.008,0.024 0.013,0.051 0.016,0.076c0.02,0.007 0.046,0.008 0.071,0.002c0.011,-0.036 0.019,-0.085 0.019,-0.135c-0.043,-0.013 -0.1,-0.019 -0.162,-0.019c-0.086,0 -0.186,0.037 -0.186,0.147c0,0.1 0.093,0.122 0.172,0.155c0.038,0.016 0.064,0.033 0.064,0.066c0,0.041 -0.015,0.057 -0.075,0.057c-0.029,0 -0.063,-0.005 -0.078,-0.012c-0.004,-0.029 -0.008,-0.061 -0.009,-0.091c-0.025,-0.008 -0.046,-0.009 -0.071,0c-0.013,0.05 -0.019,0.1 -0.019,0.15c0.036,0.015 0.098,0.028 0.171,0.028Z" style="fill-rule:nonzero;"/></g></g><path d="M737.453,71.58c8.988,0 17.691,-2.929 22.911,-5.034l-0,-4.305c-0,-5.688 0.091,-10.734 0.366,-13.761c2.384,-0.274 4.675,-0.916 6.6,-1.741c0.092,-2.013 -0.091,-3.843 -0.55,-5.581c-2.566,0.183 -8.523,0.172 -12.643,0.172c-5.587,0 -9.347,-0.172 -13.29,-0.172c-0.642,1.83 -0.826,3.751 -0.826,5.581c3.118,0.277 6.144,0.917 8.987,1.741c0.275,3.394 0.459,7.247 0.459,12.66l-0,1.651c-2.568,0.367 -5.227,0.551 -7.428,0.551c-13.94,-0 -19.809,-11.926 -19.809,-26.494c0,-10.088 4.677,-16.508 6.878,-18.433c1.559,-1.284 6.511,-2.476 11.372,-2.476c3.667,-0 6.785,0.183 9.261,0.55c0.734,3.118 1.009,6.236 1.192,9.721c2.014,0.733 4.303,0.917 6.775,0.55c1.465,-4.852 2.197,-10.168 2.106,-16.677c-4.486,-1.559 -9.706,-2.658 -17.776,-2.658c-21.181,0 -31.713,17.409 -31.713,33.183c0,17.138 9.158,30.972 27.128,30.972Z" style="fill-rule:nonzero;"/><path d="M793.002,71.489c13.845,-0 21.812,-12.641 21.812,-23.92c-0,-12.838 -6.502,-22.452 -20.619,-22.452c-13.845,-0 -21.812,12.64 -21.812,23.919c0,13.022 6.777,22.453 20.619,22.453Zm1.559,-7.781c-8.162,0 -11.006,-9.903 -11.006,-17.056c0,-5.135 1.651,-9.72 3.852,-12.288c0.826,-1.008 3.577,-1.467 5.228,-1.467c8.163,-0 11.007,9.904 11.007,17.056c-0,5.136 -1.651,9.629 -3.853,12.196c-0.825,1.101 -3.577,1.559 -5.228,1.559Z" style="fill-rule:nonzero;"/><path d="M841.677,71.489c13.845,-0 21.812,-12.641 21.812,-23.92c-0,-12.838 -6.502,-22.452 -20.619,-22.452c-13.845,-0 -21.812,12.64 -21.812,23.919c0,13.022 6.777,22.453 20.619,22.453Zm1.559,-7.781c-8.162,0 -11.006,-9.903 -11.006,-17.056c0,-5.135 1.651,-9.72 3.852,-12.288c0.826,-1.008 3.577,-1.467 5.228,-1.467c8.163,-0 11.007,9.904 11.007,17.056c-0,5.136 -1.651,9.629 -3.853,12.196c-0.825,1.101 -3.577,1.559 -5.228,1.559Z" style="fill-rule:nonzero;"/><path d="M886.042,71.489c5.045,-0 9.631,-3.296 13.666,-7.69c1.098,4.211 3.296,7.69 5.86,7.69c4.212,-0 9.071,-2.747 12.187,-5.859c0,-1.556 -0.641,-2.838 -1.65,-3.664c-1.833,0.459 -3.758,0.917 -5.866,1.192c-0.184,-2.017 -0.275,-4.676 -0.275,-6.694l-0,-29.15c-0,-10.085 0.091,-17.238 0.366,-26.409l-0.916,-0.905c-6.41,0.272 -13.191,1.364 -18.786,3.29c-0.367,1.65 -0.183,3.209 0.367,4.768c2.568,0.276 5.32,0.826 7.98,1.468l0,18.062c-2.935,-1.373 -6.329,-2.196 -9.448,-2.196c-10.178,-0 -19.794,10.348 -19.794,23.828c0,12.379 5.403,22.269 16.309,22.269Zm-5.137,-24.837c0,-4.768 1.743,-9.72 3.853,-12.105c0.825,-0.917 3.21,-1.375 5.595,-1.375c3.027,-0 6.054,0.642 8.622,1.559l0,22.283c-3.577,3.393 -7.246,6.053 -9.723,6.053c-5.32,-0 -8.347,-7.978 -8.347,-16.415Z" style="fill-rule:nonzero;"/><path d="M939.675,70.297c3.483,-0 7.425,-0.172 12.553,-0.172c3.388,0 9.619,0.08 12.094,0.172c0.367,-1.006 0.55,-3.567 0.55,-5.305c-1.65,-0.735 -4.4,-1.376 -6.875,-1.65c-0.183,-2.201 -0.275,-4.401 -0.275,-6.877l-0,-29.155c-0,-10.085 0.092,-17.236 0.367,-26.405l-1.008,-0.905c-6.044,0.272 -12.548,1.364 -17.956,3.289c-0.367,1.65 -0.183,3.209 0.367,4.768c2.383,0.275 4.858,0.825 7.241,1.466l0,48.776c0,1.833 -0.091,3.117 -0.366,5.134c-1.834,0.642 -4.767,1.284 -7.334,1.559c0,1.921 0.275,4.39 0.642,5.305Z" style="fill-rule:nonzero;"/><path d="M990.269,71.489c13.844,-0 21.811,-12.641 21.811,-23.92c0,-12.838 -6.501,-22.452 -20.619,-22.452c-13.844,-0 -21.811,12.64 -21.811,23.919c0,13.022 6.776,22.453 20.619,22.453Zm1.559,-7.781c-8.163,0 -11.006,-9.903 -11.006,-17.056c-0,-5.135 1.651,-9.72 3.852,-12.288c0.826,-1.008 3.577,-1.467 5.228,-1.467c8.163,-0 11.006,9.904 11.006,17.056c0,5.136 -1.651,9.629 -3.852,12.196c-0.825,1.101 -3.577,1.559 -5.228,1.559Z" style="fill-rule:nonzero;"/><path d="M1038.03,71.489c6.238,-0 13.656,-3.388 17.869,-6.775c-0.183,-2.106 -0.733,-3.573 -2.015,-4.765c-5.402,2.201 -8.974,3.118 -12.735,3.118c-8.99,-0 -11.65,-9.629 -11.65,-16.598c-0,-4.769 1.559,-9.354 3.761,-11.83c1.009,-1.009 4.036,-1.467 6.054,-1.467c2.294,-0 4.495,0.183 5.779,0.458c0.367,2.66 0.459,5.227 0.55,7.887c2.015,1.1 4.304,1.1 7.05,0.367c1.557,-3.577 2.198,-7.612 2.381,-13.38c-3.754,-1.739 -8.881,-3.112 -15.393,-3.112c-13.204,-0 -21.354,12.457 -21.354,23.644c0,12.563 5.861,22.453 19.703,22.453Z" style="fill-rule:nonzero;"/><path d="M1072.67,71.489c4.404,-0 9.634,-2.655 14.127,-6.317c1.282,3.753 3.388,6.317 5.494,6.317c4.304,-0 9.162,-2.747 12.279,-5.859c-0,-1.556 -0.733,-2.838 -1.65,-3.664c-1.925,0.459 -3.85,0.917 -5.867,1.192c-0.275,-2.017 -0.366,-4.676 -0.366,-6.694l-0,-16.506c-0,-12.736 -9.707,-14.75 -15.393,-14.75c-6.881,0 -13.569,2.014 -18.604,4.942c-0,4.031 1.007,7.791 2.655,10.542c2.38,0.642 4.669,0.183 6.958,-0.917c0,-2.384 0.092,-4.86 0.734,-7.061c2.019,-0.459 4.22,-0.55 6.239,-0.55c4.862,-0 6.239,4.126 6.422,10.178c-10.734,2.293 -25.025,7.795 -25.025,17.882c0,7.237 4.487,11.265 11.997,11.265Zm-0.642,-14.108c0,-1.65 0.734,-4.035 1.835,-4.952c0.918,-0.825 6.33,-2.109 11.835,-2.842l0,10.178c-2.477,1.834 -5.413,3.302 -7.523,3.302c-4.128,-0 -6.147,-2.66 -6.147,-5.686Z" style="fill-rule:nonzero;"/><path d="M1123.91,71.489c6.233,-0 12.1,-2.289 15.675,-4.76c0.091,-2.289 -0.55,-3.938 -1.834,-5.221c-3.208,1.192 -5.958,1.834 -8.891,1.834c-2.934,-0 -4.309,-3.21 -4.309,-9.629l0,-20.083l14.117,0c0.367,-2.379 0.458,-4.668 0.367,-7.23l-14.484,-0.183l0,-12.1c-2.472,-0.734 -4.487,-0.825 -6.593,-0.642l-4.304,12.558c-2.475,0.184 -4.95,0.641 -7.15,1.282c-0.275,1.647 -0.183,3.478 0.367,5.125c2.292,0.275 5.042,0.733 6.692,1.19l-0,24.668c-0,8.522 3.113,13.191 10.347,13.191Z" style="fill-rule:nonzero;"/><path d="M1154.54,19.055c4.305,0 7.694,-4.488 7.694,-8.518c0,-3.572 -3.389,-6.045 -6.686,-6.045c-4.213,-0 -7.602,4.763 -7.602,8.61c-0,3.389 3.572,5.953 6.594,5.953Zm-10.903,51.242c3.484,-0 7.425,-0.172 12.736,-0.172c3.205,0 9.436,0.08 11.911,0.172c0.367,-1.006 0.55,-3.567 0.55,-5.305c-1.65,-0.735 -4.4,-1.376 -6.875,-1.65c-0.183,-2.201 -0.275,-4.402 -0.275,-6.877l0,-4.035c0,-10.086 0.092,-17.239 0.367,-26.408l-1.008,-0.905c-6.043,0.271 -12.547,1.363 -17.956,3.289c-0.275,1.651 -0.091,3.209 0.367,4.768c2.383,0.275 4.858,0.825 7.242,1.467l-0,23.657c-0,1.834 -0.092,3.21 -0.367,5.044c-1.833,0.641 -4.767,1.375 -7.333,1.65c-0,1.919 0.275,4.39 0.641,5.305Z" style="fill-rule:nonzero;"/><path d="M1194.59,71.489c13.844,-0 21.811,-12.641 21.811,-23.92c0,-12.838 -6.501,-22.452 -20.619,-22.452c-13.844,-0 -21.811,12.64 -21.811,23.919c0,13.022 6.776,22.453 20.619,22.453Zm1.559,-7.781c-8.163,0 -11.006,-9.903 -11.006,-17.056c-0,-5.135 1.651,-9.72 3.852,-12.288c0.826,-1.008 3.577,-1.467 5.228,-1.467c8.163,-0 11.006,9.904 11.006,17.056c0,5.136 -1.651,9.629 -3.852,12.196c-0.825,1.101 -3.577,1.559 -5.228,1.559Z" style="fill-rule:nonzero;"/><path d="M1222.92,70.297c3.483,-0 7.425,-0.172 12.736,-0.172c3.113,0 9.072,0.08 11.457,0.172c0.367,-1.006 0.55,-3.567 0.55,-5.305c-1.559,-0.735 -4.128,-1.376 -6.421,-1.65c-0.183,-2.201 -0.275,-4.402 -0.275,-6.878l-0,-20.266c2.935,-1.834 5.962,-3.026 8.806,-3.026c6.696,-0 7.705,4.677 7.705,11.004l0,14.122c0,1.834 -0.091,3.117 -0.366,5.135c-1.468,0.642 -3.761,1.192 -5.688,1.559c0,1.921 0.275,4.39 0.551,5.305c3.118,-0 6.602,-0.172 11.272,-0.172c3.022,0 9.345,0.08 11.728,0.172c0.459,-1.006 0.642,-3.567 0.642,-5.305c-1.65,-0.735 -4.492,-1.376 -6.875,-1.65c-0.183,-2.201 -0.275,-4.402 -0.275,-6.878l-0,-16.965c-0,-9.989 -6.227,-14.382 -13.649,-14.382c-5.687,-0 -10.365,2.288 -14.584,5.583c-0.457,-1.922 -1.007,-3.753 -1.373,-4.76l-1.191,-0.732c-5.402,0.458 -10.808,1.648 -15.3,3.296c-0.367,1.556 -0.183,3.203 0.367,4.851c2.383,0.275 4.858,0.734 7.241,1.467l0,23.476c0,1.834 -0.091,3.117 -0.366,5.135c-1.834,0.642 -4.767,1.284 -7.334,1.559c0,1.921 0.275,4.39 0.642,5.305Z" style="fill-rule:nonzero;"/><path d="M208.202,134.913l12.854,-9.001l154.272,220.322l7.335,-30.563l14.482,75.401l-65.901,-39.397l31.229,3.56l-154.271,-220.322Z" style="stroke:#000;stroke-width:4.17px;"/><path d="M916.913,125.912l12.855,9.001l-154.271,220.322l31.228,-3.56l-65.9,39.397l14.481,-75.401l7.336,30.563l154.271,-220.322Z" style="stroke:#000;stroke-width:4.17px;"/></svg>