<?xml version="1.0" encoding="UTF-8" standalone="no"?>
<svg
   width="100%"
   height="100%"
   viewBox="0 0 2016 1719"
   version="1.1"
   xml:space="preserve"
   style="fill-rule:evenodd;clip-rule:evenodd;stroke-miterlimit:10;"
   id="svg20"
   sodipodi:docname="typical_set2.svg"
   inkscape:version="1.3.2 (091e20ef0f, 2023-11-25, custom)"
   xmlns:inkscape="http://www.inkscape.org/namespaces/inkscape"
   xmlns:sodipodi="http://sodipodi.sourceforge.net/DTD/sodipodi-0.dtd"
   xmlns="http://www.w3.org/2000/svg"
   xmlns:svg="http://www.w3.org/2000/svg"><defs
     id="defs20" /><sodipodi:namedview
     id="namedview20"
     pagecolor="#ffffff"
     bordercolor="#666666"
     borderopacity="1.0"
     inkscape:showpageshadow="2"
     inkscape:pageopacity="0.0"
     inkscape:pagecheckerboard="0"
     inkscape:deskcolor="#d1d1d1"
     inkscape:zoom="0.69575334"
     inkscape:cx="1008.2596"
     inkscape:cy="859.5"
     inkscape:window-width="2560"
     inkscape:window-height="1372"
     inkscape:window-x="1280"
     inkscape:window-y="0"
     inkscape:window-maximized="1"
     inkscape:current-layer="svg20" /><path
     d="m 1085.0666,1272.4674 c -620.09701,0 -206.69901,-206.699 -206.69901,-413.39799 0,-206.699 -124.02,-413.398 206.69901,-413.398 330.718,0 124.019,206.699 124.019,413.398 0,206.69899 82.68,413.39799 -124.019,413.39799"
     style="fill:none;fill-rule:nonzero;stroke:#8f2727;stroke-width:0.42px"
     id="path1" /><path
     d="m 1085.0666,1272.4674 c -620.09701,0 -206.69901,-206.699 -206.69901,-413.39799 0,-206.699 -124.02,-413.398 206.69901,-413.398 330.718,0 124.019,206.699 124.019,413.398 0,206.69899 82.68,413.39799 -124.019,413.39799"
     style="fill:none;fill-rule:nonzero;stroke:#8f2727;stroke-width:6.23px;stroke-opacity:0.67"
     id="path2" /><path
     d="m 1085.0666,1272.4674 c -620.09701,0 -206.69901,-206.699 -206.69901,-413.39799 0,-206.699 -124.02,-413.398 206.69901,-413.398 330.718,0 124.019,206.699 124.019,413.398 0,206.69899 82.68,413.39799 -124.019,413.39799"
     style="fill:none;fill-rule:nonzero;stroke:#8f2727;stroke-width:12.45px;stroke-opacity:0.45"
     id="path3" /><path
     d="m 1085.0666,1272.4674 c -620.09701,0 -206.69901,-206.699 -206.69901,-413.39799 0,-206.699 -124.02,-413.398 206.69901,-413.398 330.718,0 124.019,206.699 124.019,413.398 0,206.69899 82.68,413.39799 -124.019,413.39799"
     style="fill:none;fill-rule:nonzero;stroke:#8f2727;stroke-width:18.68px;stroke-opacity:0.3"
     id="path4" /><path
     d="m 1085.0666,1272.4674 c -620.09701,0 -206.69901,-206.699 -206.69901,-413.39799 0,-206.699 -124.02,-413.398 206.69901,-413.398 330.718,0 124.019,206.699 124.019,413.398 0,206.69899 82.68,413.39799 -124.019,413.39799"
     style="fill:none;fill-rule:nonzero;stroke:#8f2727;stroke-width:24.91px;stroke-opacity:0.2"
     id="path5" /><path
     d="m 1085.0666,1272.4674 c -620.09701,0 -206.69901,-206.699 -206.69901,-413.39799 0,-206.699 -124.02,-413.398 206.69901,-413.398 330.718,0 124.019,206.699 124.019,413.398 0,206.69899 82.68,413.39799 -124.019,413.39799"
     style="fill:none;fill-rule:nonzero;stroke:#8f2727;stroke-width:31.14px;stroke-opacity:0.14"
     id="path6" /><path
     d="m 1085.0666,1272.4674 c -620.09701,0 -206.69901,-206.699 -206.69901,-413.39799 0,-206.699 -124.02,-413.398 206.69901,-413.398 330.718,0 124.019,206.699 124.019,413.398 0,206.69899 82.68,413.39799 -124.019,413.39799"
     style="fill:none;fill-rule:nonzero;stroke:#8f2727;stroke-width:37.36px;stroke-opacity:0.09"
     id="path7" /><path
     d="m 1085.0666,1272.4674 c -620.09701,0 -206.69901,-206.699 -206.69901,-413.39799 0,-206.699 -124.02,-413.398 206.69901,-413.398 330.718,0 124.019,206.699 124.019,413.398 0,206.69899 82.68,413.39799 -124.019,413.39799"
     style="fill:none;fill-rule:nonzero;stroke:#8f2727;stroke-width:43.59px;stroke-opacity:0.06"
     id="path8" /><path
     d="m 1085.0666,1272.4674 c -620.09701,0 -206.69901,-206.699 -206.69901,-413.39799 0,-206.699 -124.02,-413.398 206.69901,-413.398 330.718,0 124.019,206.699 124.019,413.398 0,206.69899 82.68,413.39799 -124.019,413.39799"
     style="fill:none;fill-rule:nonzero;stroke:#8f2727;stroke-width:49.82px;stroke-opacity:0.04"
     id="path9" /><path
     d="m 1085.0666,1272.4674 c -620.09701,0 -206.69901,-206.699 -206.69901,-413.39799 0,-206.699 -124.02,-413.398 206.69901,-413.398 330.718,0 124.019,206.699 124.019,413.398 0,206.69899 82.68,413.39799 -124.019,413.39799"
     style="fill:none;fill-rule:nonzero;stroke:#8f2727;stroke-width:56.04px;stroke-opacity:0.03"
     id="path10" /><path
     d="m 1085.0666,1272.4674 c -620.09701,0 -206.69901,-206.699 -206.69901,-413.39799 0,-206.699 -124.02,-413.398 206.69901,-413.398 330.718,0 124.019,206.699 124.019,413.398 0,206.69899 82.68,413.39799 -124.019,413.39799"
     style="fill:none;fill-rule:nonzero;stroke:#8f2727;stroke-width:62.27px;stroke-opacity:0.02"
     id="path11" /><path
     d="m 1085.0666,1272.4674 c -620.09701,0 -206.69901,-206.699 -206.69901,-413.39799 0,-206.699 -124.02,-413.398 206.69901,-413.398 330.718,0 124.019,206.699 124.019,413.398 0,206.69899 82.68,413.39799 -124.019,413.39799"
     style="fill:none;fill-rule:nonzero;stroke:#8f2727;stroke-width:68.5px;stroke-opacity:0.01"
     id="path12" /><path
     d="m 1085.0666,1272.4674 c -620.09701,0 -206.69901,-206.699 -206.69901,-413.39799 0,-206.699 -124.02,-413.398 206.69901,-413.398 330.718,0 124.019,206.699 124.019,413.398 0,206.69899 82.68,413.39799 -124.019,413.39799"
     style="fill:none;fill-rule:nonzero;stroke:#8f2727;stroke-width:74.73px;stroke-opacity:0.01"
     id="path13" /><path
     d="m 1085.0666,1272.4674 c -620.09701,0 -206.69901,-206.699 -206.69901,-413.39799 0,-206.699 -124.02,-413.398 206.69901,-413.398 330.718,0 124.019,206.699 124.019,413.398 0,206.69899 82.68,413.39799 -124.019,413.39799"
     style="fill:none;fill-rule:nonzero;stroke:#8f2727;stroke-width:80.95px;stroke-opacity:0"
     id="path14" /><path
     d="m 1085.0666,1272.4674 c -620.09701,0 -206.69901,-206.699 -206.69901,-413.39799 0,-206.699 -124.02,-413.398 206.69901,-413.398 330.718,0 124.019,206.699 124.019,413.398 0,206.69899 82.68,413.39799 -124.019,413.39799"
     style="fill:none;fill-rule:nonzero;stroke:#8f2727;stroke-width:87.18px;stroke-opacity:0"
     id="path15" /><path
     d="m 1085.0666,1272.4674 c -620.09701,0 -206.69901,-206.699 -206.69901,-413.39799 0,-206.699 -124.02,-413.398 206.69901,-413.398 330.718,0 124.019,206.699 124.019,413.398 0,206.69899 82.68,413.39799 -124.019,413.39799"
     style="fill:none;fill-rule:nonzero;stroke:#8f2727;stroke-width:93.41px;stroke-opacity:0"
     id="path16" /><path
     d="m 1085.0666,1272.4674 c -620.09701,0 -206.69901,-206.699 -206.69901,-413.39799 0,-206.699 -124.02,-413.398 206.69901,-413.398 330.718,0 124.019,206.699 124.019,413.398 0,206.69899 82.68,413.39799 -124.019,413.39799"
     style="fill:none;fill-rule:nonzero;stroke:#8f2727;stroke-width:99.63px;stroke-opacity:0"
     id="path17" /><path
     d="m 1085.0666,1272.4674 c -620.09701,0 -206.69901,-206.699 -206.69901,-413.39799 0,-206.699 -124.02,-413.398 206.69901,-413.398 330.718,0 124.019,206.699 124.019,413.398 0,206.69899 82.68,413.39799 -124.019,413.39799"
     style="fill:none;fill-rule:nonzero;stroke:#8f2727;stroke-width:105.86px;stroke-opacity:0"
     id="path18" /><path
     d="m 1085.0666,1272.4674 c -620.09701,0 -206.69901,-206.699 -206.69901,-413.39799 0,-206.699 -124.02,-413.398 206.69901,-413.398 330.718,0 124.019,206.699 124.019,413.398 0,206.69899 82.68,413.39799 -124.019,413.39799"
     style="fill:none;fill-rule:nonzero;stroke:#8f2727;stroke-width:112.09px;stroke-opacity:0"
     id="path19" /><path
     d="m 1085.0666,1272.4674 c -620.09701,0 -206.69901,-206.699 -206.69901,-413.39799 0,-206.699 -124.02,-413.398 206.69901,-413.398 330.718,0 124.019,206.699 124.019,413.398 0,206.69899 82.68,413.39799 -124.019,413.39799"
     style="fill:none;fill-rule:nonzero;stroke:#8f2727;stroke-width:118.32px;stroke-opacity:0"
     id="path20" /></svg>
